<svg class="button-module_icon__-nXel" viewBox="0 0 24 24" width="16" height="16" style="fill: currentcolor;" xmlns="http://www.w3.org/2000/svg"><path fill-rule="evenodd" clip-rule="evenodd" d="M14.293 4.293a1 1 0 0 1 1.414 0l3 3a1 1 0 0 1 0 1.414l-3 3a1 1 0 0 1-1.414-1.414L15.586 9H6a1 1 0 0 1 0-2h9.586l-1.293-1.293a1 1 0 0 1 0-1.414Zm-4.586 8a1 1 0 0 1 0 1.414L8.414 15H18a1 1 0 1 1 0 2H8.414l1.293 1.293a1 1 0 0 1-1.414 1.414l-3-3a1 1 0 0 1 0-1.414l3-3a1 1 0 0 1 1.414 0Z" fill="currentColor"></path></svg>