<svg class="AxieCard_EggIcon__Yrjv8" viewBox="0 0 24 24" width="16" height="16" style="fill: currentcolor;" xmlns="http://www.w3.org/2000/svg"><path d="M11.944 22c5.556 0 9.445-3.863 9.445-10l-2.778 2.222L16.39 12l-2.222 2.222L11.944 12l-2.222 2.222L7.5 12l-2.222 2.222L2.5 12c0 6.137 3.889 10 9.444 10Z" fill="currentColor"></path><path d="m19.72 11.913.002-.17c0-4.7-3.482-9.743-7.778-9.743-4.295 0-7.777 5.043-7.777 9.744 0 .057 0 .113.003.169l1.025.82L7.5 10.43l2.222 2.222 2.222-2.222 2.223 2.222 2.222-2.222 2.305 2.304 1.025-.82Z" fill="currentColor"></path><path d="m19.21 13.744-.599.478L16.39 12l-2.222 2.222L11.944 12l-2.222 2.222L7.5 12l-2.222 2.222-.598-.478c1.12 1.911 3.95 2.7 7.264 2.7 3.315 0 6.145-.789 7.265-2.7Z" fill="currentColor"></path></svg>