<svg viewBox="0 0 16 16" width="16" height="16" style="fill: currentcolor;" xmlns="http://www.w3.org/2000/svg"><path d="M7.028.74C8.302.546 9.135.776 10.19.99c1.02.206 2.052.66 1.744 1.111-.089.13-.713.014-1.17 0-.923-.027-1.91.13-2.462.312-.654.216-1.417.487-2.098 1.589a4.345 4.345 0 0 0-.622 1.808 8.318 8.318 0 0 0 0 1.82c.07.643.283 1.26.622 1.809a4.289 4.289 0 0 0 1.355 1.37l.092.059c1.159.732 2.421.832 3.729.568.979-.198 2.085-.868 2.77-1.867.877-1.279.64-1.567 1.05-1.567.41 0-.213 3.051-.721 3.773-.637.905-1.062 1.601-1.908 2.136-.757.478-1.519.835-2.38 1.125-1.007.339-2.066.334-3.163.249-1.496-.116-2.44-.634-3.61-1.374a4.954 4.954 0 0 1-1.567-1.583C1.325 11.476.963 10.652.79 9.662c-.198-1.12-.123-1.878 0-2.997.109-.993.538-1.869 1.05-2.697.395-.64 1.212-1.466 1.846-1.867 1.17-.74 1.999-1.155 3.343-1.36Z" fill="#EF4236"></path><path d="M10.764 3.346c0 1.244 2.155 3.423 3.386 3.423-1.255 0-3.386 2.178-3.386 3.422 0-1.244-2.154-3.422-3.385-3.422 1.23 0 3.385-2.178 3.385-3.423Z" fill="#EF4236"></path></svg>