<svg class="button-module_icon__-nXel" viewBox="0 0 24 24" width="16" height="16" style="fill: currentcolor;" xmlns="http://www.w3.org/2000/svg"><path d="M6.157 2.435c.343-.166.767-.339 1.17-.423.34-.071.636.189.728.539a236.387 236.387 0 0 0 2.722 9.493c.414 1.358.628 2.134.831 2.736.135.399.645.4.78.001.205-.602.42-1.378.835-2.737.689-2.257 1.625-5.323 2.722-9.493.092-.35.388-.61.728-.54.403.085.827.258 1.17.424.407.195.537.713.317 1.122-1.084 2.015-3.96 7.51-3.292 7.861.82.43 2.077-.887 3.281-2.149.667-.7 2.46.86 1.64 1.29-3.277 1.717-6.146 4.292-7.787 6.44-.004.043-1.754-3.277-7.791-6.44-.82-.43.973-1.99 1.64-1.29 1.204 1.262 2.46 2.579 3.28 2.149.67-.35-2.207-5.846-3.291-7.861-.22-.409-.09-.927.317-1.122Z" fill="currentColor"></path><path d="M11.208 16.392a1 1 0 0 0 .009-.012l-.01.012ZM11.008 16.892ZM11.425 16.182l-.027-.034c-.93-1.183-3.053-3.423-7.187-5.59a.388.388 0 0 1-.178-.172l.553-.983c.418-.301.96-.454 1.265-.134 1.204 1.262 2.46 2.579 3.28 2.149.47-.246-.804-3.019-1.98-5.35.167-.044.341-.068.519-.068h1.323c.696 2.48 1.3 4.461 1.784 6.044.167.55.302 1.004.417 1.39.107.363.197.665.28.93l.004.014.033.105c.033.104.065.203.097.297.135.399.645.4.78.001.033-.094.065-.193.098-.297l.033-.105.005-.014c.087-.28.183-.6.299-.99.111-.373.241-.809.4-1.331A264.963 264.963 0 0 0 15.007 6h1.497a2 2 0 0 1 .363.033c-1.182 2.338-2.47 5.138-1.999 5.385.82.43 2.077-.887 3.281-2.149.359-.376 1.043-.1 1.471.304l.378.702c-.012.115-.076.214-.209.284-2.873 1.505-5.431 3.67-7.124 5.628l-.032.037a17.21 17.21 0 0 0-.632.775L12 16.997l-.034-.052a9.143 9.143 0 0 0-.54-.763Z" fill="currentColor"></path><path d="M20.527 11.26a1.484 1.484 0 0 1-.274.184c-3.136 1.643-5.884 4.112-7.44 6.142a1 1 0 0 1-1.531.107c-.059-.06-.099-.117-.102-.122a1.62 1.62 0 0 1-.042-.063l-.02-.032-.023-.035-.021-.033a7.713 7.713 0 0 0-.25-.363c-.233-.318-.61-.791-1.17-1.365-1.12-1.146-2.983-2.704-5.907-4.236a1.504 1.504 0 0 1-.227-.146l-.687 1.221a2 2 0 0 0 .494 2.542l7.424 5.94a2 2 0 0 0 2.498 0l7.45-5.96a2 2 0 0 0 .512-2.509l-.684-1.272ZM18.832 8.107l-.566-1.054a1.999 1.999 0 0 0-.492-.598 65.73 65.73 0 0 0-1.01 2.076c-.21.457-.4.887-.556 1.271.374-.341.78-.765 1.218-1.223.43-.451.977-.525 1.406-.472Z" fill="currentColor"></path><path d="M13.968 6h-3.936c.66 2.343 1.236 4.23 1.701 5.752.1.33.189.622.267.884.078-.262.166-.555.267-.884.465-1.523 1.04-3.409 1.701-5.752ZM6.28 6.562a1.998 1.998 0 0 0-.353.457l-.605 1.075c.401-.018.873.087 1.252.485a26.5 26.5 0 0 0 1.218 1.223 30.625 30.625 0 0 0-.557-1.271 64.959 64.959 0 0 0-.955-1.969ZM8.231 11.16Z" fill="currentColor"></path></svg>