<svg class="AxieCard_SlipsIcon__B6fgy" viewBox="0 0 24 24" width="16" height="16" style="fill: currentcolor;" xmlns="http://www.w3.org/2000/svg"><path d="M4.757 1.292c0-.253.175-.459.391-.459h9.282c.216 0 .391.206.391.459v6.012h-2.98L9.453 5.857 7.662 7.304H4.757V1.292ZM12.274 11.695c-.193.008-.26.309-.091.426l5.221 3.624c.109.075.129.25.041.356l-1.232 1.494a.175.175 0 0 1-.26.022l-5.807-5.214a.172.172 0 0 0-.213-.01L3.6 17.08c-.09.067-.21.036-.269-.07l-.799-1.452c-.06-.111-.03-.26.07-.324l4.753-3.111c.174-.114.108-.42-.087-.43h-3.52c-.144 0-.239-.176-.176-.328l.353-.857a.262.262 0 0 0 .02-.1V8.844c0-.127.087-.23.195-.23h3.81c.04 0 .079-.014.111-.04l1.378-1.114.005-.004.092-.074.097.06a.181.181 0 0 1 .007.003l1.887 1.144a.173.173 0 0 0 .09.025h3.75c.133 0 .227.152.187.3l-.402 1.462a.266.266 0 0 0 .01.17l.338.82c.063.153-.032.33-.176.33h-3.049Z" fill="currentColor"></path><path d="m9.982 13.906-5.225 3.868v.934c0 .254.175.459.391.459h9.282c.216 0 .391-.206.391-.459v-.457l-4.84-4.345Z" fill="currentColor"></path></svg>