<svg width="32" height="32" viewBox="0 0 32 32" fill="none" xmlns="http://www.w3.org/2000/svg" shape-rendering="crispEdges"><rect x="15" y="3" width="2" height="1" fill="#000000"></rect><rect x="14" y="4" width="1" height="1" fill="#000000"></rect><rect x="15" y="4" width="2" height="1" fill="#80BBFF"></rect><rect x="17" y="4" width="1" height="1" fill="#000000"></rect><rect x="13" y="5" width="1" height="1" fill="#000000"></rect><rect x="14" y="5" width="2" height="1" fill="#D3E8FF"></rect><rect x="16" y="5" width="2" height="1" fill="#80BBFF"></rect><rect x="18" y="5" width="1" height="1" fill="#000000"></rect><rect x="12" y="6" width="1" height="1" fill="#000000"></rect><rect x="13" y="6" width="2" height="1" fill="#D3E8FF"></rect><rect x="15" y="6" width="1" height="4" fill="#80BBFF"></rect><rect x="16" y="6" width="1" height="19" fill="#2560A4"></rect><rect x="17" y="6" width="2" height="1" fill="#80BBFF"></rect><rect x="19" y="6" width="1" height="1" fill="#000000"></rect><rect x="11" y="7" width="1" height="1" fill="#000000"></rect><rect x="12" y="7" width="2" height="1" fill="#D3E8FF"></rect><rect x="14" y="7" width="1" height="12" fill="#62A6F3"></rect><rect x="17" y="7" width="1" height="18" fill="#2560A4"></rect><rect x="18" y="7" width="2" height="1" fill="#80BBFF"></rect><rect x="20" y="7" width="1" height="1" fill="#000000"></rect><rect x="10" y="8" width="1" height="1" fill="#000000"></rect><rect x="11" y="8" width="2" height="1" fill="#D3E8FF"></rect><rect x="13" y="8" width="1" height="12" fill="#62A6F3"></rect><rect x="18" y="8" width="1" height="16" fill="#2560A4"></rect><rect x="19" y="8" width="2" height="1" fill="#80BBFF"></rect><rect x="21" y="8" width="1" height="1" fill="#000000"></rect><rect x="9" y="9" width="1" height="1" fill="#000000"></rect><rect x="10" y="9" width="2" height="1" fill="#D3E8FF"></rect><rect x="12" y="9" width="1" height="11" fill="#62A6F3"></rect><rect x="19" y="9" width="1" height="15" fill="#2560A4"></rect><rect x="20" y="9" width="2" height="1" fill="#80BBFF"></rect><rect x="22" y="9" width="1" height="1" fill="#000000"></rect><rect x="8" y="10" width="1" height="1" fill="#000000"></rect><rect x="9" y="10" width="2" height="1" fill="#D3E8FF"></rect><rect x="11" y="10" width="1" height="10" fill="#62A6F3"></rect><rect x="15" y="10" width="1" height="1" fill="#478DDD"></rect><rect x="20" y="10" width="1" height="13" fill="#2560A4"></rect><rect x="21" y="10" width="2" height="1" fill="#80BBFF"></rect><rect x="23" y="10" width="1" height="1" fill="#000000"></rect><rect x="7" y="11" width="1" height="1" fill="#000000"></rect><rect x="8" y="11" width="2" height="1" fill="#80BBFF"></rect><rect x="10" y="11" width="1" height="8" fill="#62A6F3"></rect><rect x="15" y="11" width="1" height="1" fill="#80BBFF"></rect><rect x="21" y="11" width="1" height="11" fill="#2560A4"></rect><rect x="22" y="11" width="2" height="1" fill="#478DDD"></rect><rect x="24" y="11" width="1" height="1" fill="#000000"></rect><rect x="6" y="12" width="1" height="5" fill="#000000"></rect><rect x="7" y="12" width="2" height="1" fill="#80BBFF"></rect><rect x="9" y="12" width="1" height="9" fill="#478DDD"></rect><rect x="15" y="12" width="1" height="13" fill="#478DDD"></rect><rect x="22" y="12" width="1" height="9" fill="#2560A4"></rect><rect x="23" y="12" width="2" height="1" fill="#478DDD"></rect><rect x="25" y="12" width="1" height="5" fill="#000000"></rect><rect x="7" y="13" width="1" height="4" fill="#80BBFF"></rect><rect x="8" y="13" width="1" height="4" fill="#62A6F3"></rect><rect x="23" y="13" width="1" height="4" fill="#2560A4"></rect><rect x="24" y="13" width="1" height="4" fill="#478DDD"></rect><rect x="7" y="17" width="1" height="4" fill="#000000"></rect><rect x="8" y="17" width="1" height="4" fill="#80BBFF"></rect><rect x="23" y="17" width="1" height="4" fill="#478DDD"></rect><rect x="24" y="17" width="1" height="4" fill="#000000"></rect><rect x="10" y="19" width="1" height="4" fill="#478DDD"></rect><rect x="14" y="19" width="1" height="6" fill="#478DDD"></rect><rect x="11" y="20" width="3" height="1" fill="#478DDD"></rect><rect x="8" y="21" width="1" height="2" fill="#000000"></rect><rect x="9" y="21" width="1" height="2" fill="#80BBFF"></rect><rect x="11" y="21" width="2" height="1" fill="#62A6F3"></rect><rect x="13" y="21" width="1" height="3" fill="#478DDD"></rect><rect x="22" y="21" width="1" height="2" fill="#478DDD"></rect><rect x="23" y="21" width="1" height="2" fill="#000000"></rect><rect x="11" y="22" width="2" height="1" fill="#478DDD"></rect><rect x="21" y="22" width="1" height="2" fill="#478DDD"></rect><rect x="9" y="23" width="1" height="1" fill="#000000"></rect><rect x="10" y="23" width="2" height="1" fill="#80BBFF"></rect><rect x="12" y="23" width="1" height="1" fill="#478DDD"></rect><rect x="20" y="23" width="1" height="2" fill="#478DDD"></rect><rect x="22" y="23" width="1" height="2" fill="#000000"></rect><rect x="10" y="24" width="1" height="1" fill="#000000"></rect><rect x="11" y="24" width="3" height="1" fill="#80BBFF"></rect><rect x="18" y="24" width="2" height="1" fill="#478DDD"></rect><rect x="21" y="24" width="1" height="1" fill="#000000"></rect><rect x="11" y="25" width="2" height="1" fill="#000000"></rect><rect x="13" y="25" width="3" height="1" fill="#80BBFF"></rect><rect x="16" y="25" width="3" height="1" fill="#478DDD"></rect><rect x="19" y="25" width="2" height="1" fill="#000000"></rect><rect x="13" y="26" width="2" height="1" fill="#000000"></rect><rect x="15" y="26" width="1" height="1" fill="#80BBFF"></rect><rect x="16" y="26" width="1" height="1" fill="#478DDD"></rect><rect x="17" y="26" width="2" height="1" fill="#000000"></rect><rect x="15" y="27" width="2" height="1" fill="#000000"></rect></svg>
