<svg width="32" height="32" viewBox="0 0 32 32" fill="none" xmlns="http://www.w3.org/2000/svg" shape-rendering="crispEdges"><rect x="15" y="1" width="2" height="1" fill="#000000"></rect><rect x="14" y="2" width="1" height="1" fill="#000000"></rect><rect x="15" y="2" width="2" height="1" fill="#95B4B7"></rect><rect x="17" y="2" width="1" height="1" fill="#000000"></rect><rect x="13" y="3" width="1" height="1" fill="#000000"></rect><rect x="14" y="3" width="1" height="1" fill="#95B4B7"></rect><rect x="15" y="3" width="1" height="18" fill="#EDEDED"></rect><rect x="16" y="3" width="2" height="2" fill="#95B4B7"></rect><rect x="18" y="3" width="1" height="1" fill="#000000"></rect><rect x="21" y="3" width="1" height="1" fill="#000000"></rect><rect x="12" y="4" width="1" height="1" fill="#000000"></rect><rect x="13" y="4" width="1" height="1" fill="#95B4B7"></rect><rect x="14" y="4" width="1" height="17" fill="#EDEDED"></rect><rect x="18" y="4" width="1" height="2" fill="#95B4B7"></rect><rect x="19" y="4" width="2" height="1" fill="#000000"></rect><rect x="21" y="4" width="1" height="7" fill="#189726"></rect><rect x="22" y="4" width="1" height="1" fill="#000000"></rect><rect x="11" y="5" width="1" height="1" fill="#000000"></rect><rect x="12" y="5" width="1" height="1" fill="#95B4B7"></rect><rect x="13" y="5" width="1" height="14" fill="#EDEDED"></rect><rect x="16" y="5" width="1" height="9" fill="#EDEDED"></rect><rect x="17" y="5" width="1" height="2" fill="#95B4B7"></rect><rect x="19" y="5" width="1" height="1" fill="#000000"></rect><rect x="20" y="5" width="1" height="6" fill="#189726"></rect><rect x="22" y="5" width="1" height="6" fill="#189726"></rect><rect x="23" y="5" width="1" height="1" fill="#000000"></rect><rect x="10" y="6" width="1" height="4" fill="#000000"></rect><rect x="11" y="6" width="1" height="3" fill="#95B4B7"></rect><rect x="12" y="6" width="1" height="7" fill="#EDEDED"></rect><rect x="18" y="6" width="1" height="1" fill="#000000"></rect><rect x="19" y="6" width="1" height="2" fill="#189726"></rect><rect x="23" y="6" width="1" height="2" fill="#189726"></rect><rect x="24" y="6" width="1" height="1" fill="#000000"></rect><rect x="17" y="7" width="1" height="2" fill="#000000"></rect><rect x="18" y="7" width="1" height="2" fill="#0A5612"></rect><rect x="24" y="7" width="1" height="2" fill="#0A5612"></rect><rect x="25" y="7" width="1" height="2" fill="#000000"></rect><rect x="19" y="8" width="1" height="1" fill="#0A5612"></rect><rect x="23" y="8" width="1" height="1" fill="#0A5612"></rect><rect x="11" y="9" width="1" height="1" fill="#4D6264"></rect><rect x="17" y="9" width="1" height="12" fill="#95B4B7"></rect><rect x="18" y="9" width="2" height="1" fill="#000000"></rect><rect x="23" y="9" width="2" height="1" fill="#000000"></rect><rect x="11" y="10" width="1" height="7" fill="#000000"></rect><rect x="18" y="10" width="1" height="11" fill="#95B4B7"></rect><rect x="19" y="10" width="1" height="3" fill="#000000"></rect><rect x="23" y="10" width="1" height="3" fill="#000000"></rect><rect x="20" y="11" width="3" height="1" fill="#0A5612"></rect><rect x="20" y="12" width="3" height="1" fill="#000000"></rect><rect x="12" y="13" width="1" height="3" fill="#95B4B7"></rect><rect x="19" y="13" width="1" height="2" fill="#95B4B7"></rect><rect x="20" y="13" width="1" height="4" fill="#000000"></rect><rect x="16" y="14" width="1" height="7" fill="#95B4B7"></rect><rect x="19" y="15" width="1" height="2" fill="#4D6264"></rect><rect x="12" y="16" width="1" height="1" fill="#4D6264"></rect><rect x="12" y="17" width="1" height="5" fill="#000000"></rect><rect x="19" y="17" width="1" height="5" fill="#000000"></rect><rect x="13" y="19" width="1" height="2" fill="#95B4B7"></rect><rect x="11" y="21" width="1" height="1" fill="#000000"></rect><rect x="13" y="21" width="6" height="1" fill="#000000"></rect><rect x="20" y="21" width="1" height="1" fill="#000000"></rect><rect x="10" y="22" width="1" height="3" fill="#000000"></rect><rect x="11" y="22" width="2" height="2" fill="#96563B"></rect><rect x="13" y="22" width="6" height="2" fill="#BF7632"></rect><rect x="19" y="22" width="2" height="2" fill="#96563B"></rect><rect x="21" y="22" width="1" height="3" fill="#000000"></rect><rect x="11" y="24" width="3" height="1" fill="#000000"></rect><rect x="14" y="24" width="4" height="1" fill="#96563B"></rect><rect x="18" y="24" width="3" height="1" fill="#000000"></rect><rect x="13" y="25" width="1" height="2" fill="#000000"></rect><rect x="14" y="25" width="4" height="2" fill="#BF7632"></rect><rect x="18" y="25" width="1" height="2" fill="#000000"></rect><rect x="14" y="27" width="1" height="2" fill="#000000"></rect><rect x="15" y="27" width="2" height="1" fill="#96563B"></rect><rect x="17" y="27" width="1" height="2" fill="#000000"></rect><rect x="15" y="28" width="2" height="1" fill="#000000"></rect></svg>
