<svg width="32" height="32" viewBox="0 0 32 32" fill="none" xmlns="http://www.w3.org/2000/svg" shape-rendering="crispEdges"><rect x="18" y="2" width="1" height="1" fill="#F5D547"></rect><rect x="5" y="4" width="1" height="1" fill="#F5D547"></rect><rect x="18" y="4" width="1" height="1" fill="#F5D547"></rect><rect x="26" y="5" width="1" height="1" fill="#F5D547"></rect><rect x="9" y="6" width="1" height="1" fill="#F5D547"></rect><rect x="1" y="7" width="1" height="5" fill="#F5D547"></rect><rect x="5" y="7" width="1" height="2" fill="#F5D547"></rect><rect x="18" y="7" width="1" height="1" fill="#F5D547"></rect><rect x="15" y="8" width="1" height="1" fill="#F5D547"></rect><rect x="17" y="8" width="1" height="1" fill="#F5D547"></rect><rect x="18" y="8" width="1" height="1" fill="#FFFFFF"></rect><rect x="19" y="8" width="1" height="1" fill="#F5D547"></rect><rect x="21" y="8" width="1" height="1" fill="#F5D547"></rect><rect x="26" y="8" width="1" height="3" fill="#F5D547"></rect><rect x="9" y="9" width="1" height="1" fill="#F5D547"></rect><rect x="18" y="9" width="1" height="4" fill="#F5D547"></rect><rect x="5" y="10" width="1" height="4" fill="#F5D547"></rect><rect x="8" y="10" width="1" height="1" fill="#F5D547"></rect><rect x="9" y="10" width="1" height="1" fill="#FFFFFF"></rect><rect x="10" y="10" width="1" height="1" fill="#F5D547"></rect><rect x="21" y="10" width="2" height="1" fill="#FFFFFF"></rect><rect x="23" y="10" width="1" height="1" fill="#F5D547"></rect><rect x="24" y="10" width="2" height="1" fill="#FFFFFF"></rect><rect x="9" y="11" width="1" height="3" fill="#F5D547"></rect><rect x="11" y="11" width="5" height="1" fill="#F5D547"></rect><rect x="20" y="11" width="1" height="1" fill="#FFFFFF"></rect><rect x="21" y="11" width="4" height="1" fill="#000000"></rect><rect x="25" y="11" width="2" height="1" fill="#FFFFFF"></rect><rect x="0" y="12" width="1" height="1" fill="#F5D547"></rect><rect x="1" y="12" width="1" height="1" fill="#FFFFFF"></rect><rect x="2" y="12" width="1" height="1" fill="#F5D547"></rect><rect x="10" y="12" width="2" height="2" fill="#F5D547"></rect><rect x="16" y="12" width="2" height="1" fill="#F5D547"></rect><rect x="19" y="12" width="1" height="2" fill="#FFFFFF"></rect><rect x="20" y="12" width="1" height="12" fill="#000000"></rect><rect x="21" y="12" width="2" height="9" fill="#BD6F22"></rect><rect x="23" y="12" width="1" height="11" fill="#7F4F2B"></rect><rect x="24" y="12" width="1" height="12" fill="#522E12"></rect><rect x="25" y="12" width="1" height="4" fill="#000000"></rect><rect x="26" y="12" width="1" height="1" fill="#FFFFFF"></rect><rect x="1" y="13" width="1" height="4" fill="#F5D547"></rect><rect x="6" y="13" width="3" height="1" fill="#F5D547"></rect><rect x="12" y="13" width="5" height="1" fill="#F5D547"></rect><rect x="17" y="13" width="2" height="1" fill="#FFFFFF"></rect><rect x="26" y="13" width="1" height="2" fill="#F5D547"></rect><rect x="3" y="14" width="2" height="1" fill="#F5D547"></rect><rect x="5" y="14" width="15" height="1" fill="#000000"></rect><rect x="27" y="14" width="1" height="1" fill="#F5D547"></rect><rect x="28" y="14" width="2" height="1" fill="#FFFFFF"></rect><rect x="2" y="15" width="1" height="1" fill="#F5D547"></rect><rect x="3" y="15" width="2" height="1" fill="#000000"></rect><rect x="5" y="15" width="2" height="1" fill="#8DE8FB"></rect><rect x="7" y="15" width="9" height="2" fill="#FFFFFF"></rect><rect x="16" y="15" width="4" height="6" fill="#8DE8FB"></rect><rect x="26" y="15" width="3" height="1" fill="#000000"></rect><rect x="29" y="15" width="2" height="1" fill="#FFFFFF"></rect><rect x="2" y="16" width="1" height="1" fill="#000000"></rect><rect x="3" y="16" width="1" height="1" fill="#8DE8FB"></rect><rect x="4" y="16" width="3" height="4" fill="#FFFFFF"></rect><rect x="25" y="16" width="1" height="4" fill="#522E12"></rect><rect x="26" y="16" width="3" height="2" fill="#BD6F22"></rect><rect x="29" y="16" width="1" height="4" fill="#000000"></rect><rect x="30" y="16" width="1" height="1" fill="#FFFFFF"></rect><rect x="0" y="17" width="1" height="2" fill="#FFFFFF"></rect><rect x="1" y="17" width="1" height="2" fill="#000000"></rect><rect x="2" y="17" width="1" height="2" fill="#8DE8FB"></rect><rect x="3" y="17" width="1" height="2" fill="#FFFFFF"></rect><rect x="7" y="17" width="6" height="1" fill="#FFFFFF"></rect><rect x="13" y="17" width="3" height="2" fill="#8DE8FB"></rect><rect x="30" y="17" width="1" height="5" fill="#F5D547"></rect><rect x="7" y="18" width="5" height="3" fill="#FFFFFF"></rect><rect x="12" y="18" width="1" height="1" fill="#8DE8FB"></rect><rect x="26" y="18" width="3" height="1" fill="#7F4F2B"></rect><rect x="1" y="19" width="1" height="1" fill="#F5D547"></rect><rect x="2" y="19" width="1" height="1" fill="#000000"></rect><rect x="3" y="19" width="1" height="1" fill="#8DE8FB"></rect><rect x="12" y="19" width="4" height="2" fill="#FFFFFF"></rect><rect x="26" y="19" width="3" height="1" fill="#522E12"></rect><rect x="2" y="20" width="1" height="1" fill="#F5D547"></rect><rect x="3" y="20" width="2" height="1" fill="#000000"></rect><rect x="5" y="20" width="2" height="1" fill="#8DE8FB"></rect><rect x="25" y="20" width="4" height="1" fill="#000000"></rect><rect x="29" y="20" width="1" height="1" fill="#F5D547"></rect><rect x="3" y="21" width="2" height="1" fill="#F5D547"></rect><rect x="5" y="21" width="15" height="1" fill="#000000"></rect><rect x="21" y="21" width="2" height="2" fill="#7F4F2B"></rect><rect x="25" y="21" width="1" height="3" fill="#000000"></rect><rect x="26" y="21" width="3" height="1" fill="#F5D547"></rect><rect x="5" y="22" width="4" height="1" fill="#F5D547"></rect><rect x="9" y="22" width="2" height="1" fill="#FFFFFF"></rect><rect x="11" y="22" width="2" height="1" fill="#F5D547"></rect><rect x="13" y="22" width="1" height="1" fill="#FFFFFF"></rect><rect x="14" y="22" width="1" height="1" fill="#F5D547"></rect><rect x="15" y="22" width="2" height="1" fill="#FFFFFF"></rect><rect x="17" y="22" width="3" height="1" fill="#F5D547"></rect><rect x="26" y="22" width="1" height="2" fill="#F5D547"></rect><rect x="29" y="22" width="1" height="1" fill="#F5D547"></rect><rect x="12" y="23" width="1" height="1" fill="#F5D547"></rect><rect x="17" y="23" width="1" height="1" fill="#F5D547"></rect><rect x="19" y="23" width="1" height="1" fill="#F5D547"></rect><rect x="21" y="23" width="3" height="1" fill="#522E12"></rect><rect x="27" y="23" width="2" height="1" fill="#F5D547"></rect><rect x="13" y="24" width="4" height="1" fill="#F5D547"></rect><rect x="20" y="24" width="1" height="1" fill="#F5D547"></rect><rect x="21" y="24" width="4" height="1" fill="#000000"></rect><rect x="25" y="24" width="1" height="1" fill="#F5D547"></rect><rect x="21" y="25" width="4" height="1" fill="#F5D547"></rect></svg>
