<svg width="32" height="32" viewBox="0 0 32 32" fill="none" xmlns="http://www.w3.org/2000/svg" shape-rendering="crispEdges"><rect x="5" y="8" width="2" height="1" fill="#000000"></rect><rect x="13" y="8" width="6" height="1" fill="#000000"></rect><rect x="25" y="8" width="2" height="1" fill="#000000"></rect><rect x="5" y="9" width="1" height="3" fill="#000000"></rect><rect x="6" y="9" width="1" height="3" fill="#FEFFE9"></rect><rect x="7" y="9" width="6" height="1" fill="#000000"></rect><rect x="13" y="9" width="1" height="8" fill="#693C1D"></rect><rect x="14" y="9" width="1" height="1" fill="#1E1E20"></rect><rect x="15" y="9" width="2" height="2" fill="#B0B0D8"></rect><rect x="17" y="9" width="1" height="1" fill="#1E1E20"></rect><rect x="18" y="9" width="1" height="8" fill="#693C1D"></rect><rect x="19" y="9" width="6" height="1" fill="#000000"></rect><rect x="25" y="9" width="1" height="3" fill="#FEFFE9"></rect><rect x="26" y="9" width="1" height="3" fill="#000000"></rect><rect x="7" y="10" width="1" height="2" fill="#FEFFE9"></rect><rect x="8" y="10" width="3" height="2" fill="#C9CAA8"></rect><rect x="11" y="10" width="1" height="2" fill="#3C1A0E"></rect><rect x="12" y="10" width="1" height="7" fill="#693C1D"></rect><rect x="14" y="10" width="1" height="7" fill="#3C1A0E"></rect><rect x="17" y="10" width="1" height="7" fill="#3C1A0E"></rect><rect x="19" y="10" width="1" height="7" fill="#693C1D"></rect><rect x="20" y="10" width="1" height="2" fill="#3C1A0E"></rect><rect x="21" y="10" width="3" height="2" fill="#C9CAA8"></rect><rect x="24" y="10" width="1" height="2" fill="#FEFFE9"></rect><rect x="15" y="11" width="2" height="2" fill="#7C7DB2"></rect><rect x="6" y="12" width="1" height="1" fill="#000000"></rect><rect x="7" y="12" width="3" height="1" fill="#C9CAA8"></rect><rect x="10" y="12" width="1" height="1" fill="#1E1E20"></rect><rect x="11" y="12" width="1" height="5" fill="#693C1D"></rect><rect x="20" y="12" width="1" height="5" fill="#693C1D"></rect><rect x="21" y="12" width="1" height="1" fill="#1E1E20"></rect><rect x="22" y="12" width="3" height="1" fill="#C9CAA8"></rect><rect x="25" y="12" width="1" height="1" fill="#000000"></rect><rect x="7" y="13" width="3" height="1" fill="#000000"></rect><rect x="10" y="13" width="1" height="4" fill="#693C1D"></rect><rect x="15" y="13" width="2" height="10" fill="#636268"></rect><rect x="21" y="13" width="1" height="4" fill="#693C1D"></rect><rect x="22" y="13" width="3" height="1" fill="#000000"></rect><rect x="7" y="14" width="1" height="1" fill="#000000"></rect><rect x="8" y="14" width="1" height="4" fill="#3C1A0E"></rect><rect x="9" y="14" width="1" height="2" fill="#693C1D"></rect><rect x="22" y="14" width="1" height="2" fill="#693C1D"></rect><rect x="23" y="14" width="1" height="4" fill="#3C1A0E"></rect><rect x="24" y="14" width="1" height="1" fill="#000000"></rect><rect x="6" y="15" width="1" height="3" fill="#000000"></rect><rect x="7" y="15" width="1" height="2" fill="#3C1A0E"></rect><rect x="24" y="15" width="1" height="2" fill="#3C1A0E"></rect><rect x="25" y="15" width="1" height="3" fill="#000000"></rect><rect x="9" y="16" width="1" height="2" fill="#3C1A0E"></rect><rect x="22" y="16" width="1" height="2" fill="#3C1A0E"></rect><rect x="7" y="17" width="1" height="1" fill="#000000"></rect><rect x="10" y="17" width="4" height="2" fill="#3C1A0E"></rect><rect x="14" y="17" width="1" height="3" fill="#000000"></rect><rect x="17" y="17" width="1" height="3" fill="#000000"></rect><rect x="18" y="17" width="4" height="2" fill="#3C1A0E"></rect><rect x="24" y="17" width="1" height="1" fill="#000000"></rect><rect x="5" y="18" width="1" height="3" fill="#000000"></rect><rect x="6" y="18" width="2" height="1" fill="#B0B0D8"></rect><rect x="8" y="18" width="1" height="1" fill="#7C7DB2"></rect><rect x="9" y="18" width="1" height="1" fill="#000000"></rect><rect x="22" y="18" width="1" height="1" fill="#000000"></rect><rect x="23" y="18" width="1" height="1" fill="#7C7DB2"></rect><rect x="24" y="18" width="2" height="1" fill="#B0B0D8"></rect><rect x="26" y="18" width="1" height="3" fill="#000000"></rect><rect x="6" y="19" width="1" height="2" fill="#636268"></rect><rect x="7" y="19" width="1" height="1" fill="#7C7DB2"></rect><rect x="8" y="19" width="2" height="1" fill="#B0B0D8"></rect><rect x="10" y="19" width="1" height="1" fill="#7C7DB2"></rect><rect x="11" y="19" width="3" height="1" fill="#000000"></rect><rect x="18" y="19" width="3" height="1" fill="#000000"></rect><rect x="21" y="19" width="1" height="1" fill="#7C7DB2"></rect><rect x="22" y="19" width="2" height="1" fill="#B0B0D8"></rect><rect x="24" y="19" width="1" height="1" fill="#7C7DB2"></rect><rect x="25" y="19" width="1" height="2" fill="#636268"></rect><rect x="7" y="20" width="2" height="2" fill="#636268"></rect><rect x="9" y="20" width="1" height="1" fill="#7C7DB2"></rect><rect x="10" y="20" width="5" height="1" fill="#B0B0D8"></rect><rect x="17" y="20" width="5" height="1" fill="#B0B0D8"></rect><rect x="22" y="20" width="1" height="1" fill="#7C7DB2"></rect><rect x="23" y="20" width="2" height="2" fill="#636268"></rect><rect x="6" y="21" width="1" height="1" fill="#000000"></rect><rect x="9" y="21" width="6" height="2" fill="#636268"></rect><rect x="17" y="21" width="6" height="2" fill="#636268"></rect><rect x="25" y="21" width="1" height="1" fill="#000000"></rect><rect x="7" y="22" width="2" height="1" fill="#000000"></rect><rect x="23" y="22" width="2" height="1" fill="#000000"></rect><rect x="9" y="23" width="14" height="1" fill="#000000"></rect></svg>
