<svg width="32" height="32" viewBox="0 0 32 32" fill="none" xmlns="http://www.w3.org/2000/svg" shape-rendering="crispEdges"><rect x="14" y="1" width="7" height="1" fill="#000000"></rect><rect x="13" y="2" width="1" height="1" fill="#000000"></rect><rect x="14" y="2" width="7" height="1" fill="#7D7693"></rect><rect x="21" y="2" width="1" height="1" fill="#000000"></rect><rect x="12" y="3" width="1" height="1" fill="#000000"></rect><rect x="13" y="3" width="7" height="1" fill="#7D7693"></rect><rect x="20" y="3" width="1" height="1" fill="#433B60"></rect><rect x="21" y="3" width="1" height="1" fill="#7D7693"></rect><rect x="22" y="3" width="1" height="2" fill="#000000"></rect><rect x="11" y="4" width="1" height="1" fill="#000000"></rect><rect x="12" y="4" width="1" height="1" fill="#433B60"></rect><rect x="13" y="4" width="6" height="1" fill="#7D7693"></rect><rect x="19" y="4" width="1" height="2" fill="#433B60"></rect><rect x="20" y="4" width="1" height="7" fill="#7D7693"></rect><rect x="21" y="4" width="1" height="2" fill="#C67126"></rect><rect x="10" y="5" width="1" height="4" fill="#000000"></rect><rect x="11" y="5" width="2" height="4" fill="#7D7693"></rect><rect x="13" y="5" width="1" height="1" fill="#433B60"></rect><rect x="14" y="5" width="5" height="1" fill="#7D7693"></rect><rect x="22" y="5" width="1" height="3" fill="#C67126"></rect><rect x="23" y="5" width="1" height="1" fill="#000000"></rect><rect x="13" y="6" width="1" height="3" fill="#7D7693"></rect><rect x="14" y="6" width="1" height="1" fill="#C67126"></rect><rect x="15" y="6" width="3" height="1" fill="#7D7693"></rect><rect x="18" y="6" width="1" height="2" fill="#433B60"></rect><rect x="19" y="6" width="1" height="3" fill="#7D7693"></rect><rect x="21" y="6" width="1" height="2" fill="#945933"></rect><rect x="23" y="6" width="1" height="1" fill="#945933"></rect><rect x="24" y="6" width="1" height="2" fill="#000000"></rect><rect x="14" y="7" width="1" height="2" fill="#945933"></rect><rect x="15" y="7" width="1" height="4" fill="#C67126"></rect><rect x="16" y="7" width="2" height="8" fill="#7D7693"></rect><rect x="23" y="7" width="1" height="3" fill="#C67126"></rect><rect x="18" y="8" width="1" height="1" fill="#945933"></rect><rect x="21" y="8" width="1" height="5" fill="#7D7693"></rect><rect x="22" y="8" width="1" height="2" fill="#945933"></rect><rect x="24" y="8" width="1" height="1" fill="#945933"></rect><rect x="25" y="8" width="1" height="2" fill="#000000"></rect><rect x="11" y="9" width="1" height="3" fill="#000000"></rect><rect x="12" y="9" width="1" height="1" fill="#7D7693"></rect><rect x="13" y="9" width="1" height="1" fill="#945933"></rect><rect x="14" y="9" width="1" height="4" fill="#C67126"></rect><rect x="18" y="9" width="1" height="4" fill="#C67126"></rect><rect x="19" y="9" width="1" height="2" fill="#945933"></rect><rect x="24" y="9" width="1" height="1" fill="#C67126"></rect><rect x="12" y="10" width="1" height="1" fill="#945933"></rect><rect x="13" y="10" width="1" height="4" fill="#C67126"></rect><rect x="22" y="10" width="1" height="4" fill="#7D7693"></rect><rect x="23" y="10" width="1" height="4" fill="#000000"></rect><rect x="24" y="10" width="3" height="1" fill="#945933"></rect><rect x="27" y="10" width="1" height="1" fill="#000000"></rect><rect x="12" y="11" width="1" height="4" fill="#C67126"></rect><rect x="15" y="11" width="1" height="2" fill="#945933"></rect><rect x="19" y="11" width="1" height="5" fill="#C67126"></rect><rect x="20" y="11" width="1" height="2" fill="#945933"></rect><rect x="24" y="11" width="3" height="1" fill="#000000"></rect><rect x="10" y="12" width="1" height="2" fill="#000000"></rect><rect x="11" y="12" width="1" height="1" fill="#945933"></rect><rect x="11" y="13" width="1" height="3" fill="#C67126"></rect><rect x="14" y="13" width="1" height="1" fill="#945933"></rect><rect x="15" y="13" width="1" height="3" fill="#7D7693"></rect><rect x="18" y="13" width="1" height="3" fill="#945933"></rect><rect x="20" y="13" width="1" height="5" fill="#C67126"></rect><rect x="21" y="13" width="1" height="2" fill="#945933"></rect><rect x="9" y="14" width="1" height="1" fill="#000000"></rect><rect x="10" y="14" width="1" height="3" fill="#945933"></rect><rect x="13" y="14" width="1" height="1" fill="#945933"></rect><rect x="14" y="14" width="1" height="1" fill="#000000"></rect><rect x="22" y="14" width="1" height="4" fill="#000000"></rect><rect x="8" y="15" width="1" height="1" fill="#000000"></rect><rect x="9" y="15" width="1" height="2" fill="#945933"></rect><rect x="12" y="15" width="1" height="1" fill="#945933"></rect><rect x="13" y="15" width="1" height="3" fill="#000000"></rect><rect x="14" y="15" width="1" height="1" fill="#433B60"></rect><rect x="16" y="15" width="1" height="1" fill="#7D7693"></rect><rect x="17" y="15" width="1" height="1" fill="#433B60"></rect><rect x="21" y="15" width="1" height="3" fill="#C67126"></rect><rect x="7" y="16" width="1" height="2" fill="#000000"></rect><rect x="8" y="16" width="1" height="1" fill="#945933"></rect><rect x="11" y="16" width="2" height="1" fill="#000000"></rect><rect x="14" y="16" width="1" height="7" fill="#7D7693"></rect><rect x="15" y="16" width="1" height="1" fill="#433B60"></rect><rect x="16" y="16" width="1" height="1" fill="#945933"></rect><rect x="17" y="16" width="2" height="2" fill="#7D7693"></rect><rect x="19" y="16" width="1" height="2" fill="#945933"></rect><rect x="8" y="17" width="3" height="1" fill="#000000"></rect><rect x="15" y="17" width="1" height="3" fill="#945933"></rect><rect x="16" y="17" width="1" height="8" fill="#C67126"></rect><rect x="12" y="18" width="1" height="2" fill="#000000"></rect><rect x="13" y="18" width="1" height="6" fill="#7D7693"></rect><rect x="17" y="18" width="1" height="2" fill="#945933"></rect><rect x="18" y="18" width="2" height="2" fill="#7D7693"></rect><rect x="20" y="18" width="1" height="2" fill="#000000"></rect><rect x="21" y="18" width="2" height="1" fill="#945933"></rect><rect x="23" y="18" width="2" height="1" fill="#000000"></rect><rect x="21" y="19" width="1" height="1" fill="#000000"></rect><rect x="22" y="19" width="2" height="1" fill="#945933"></rect><rect x="11" y="20" width="1" height="2" fill="#000000"></rect><rect x="12" y="20" width="1" height="5" fill="#7D7693"></rect><rect x="15" y="20" width="1" height="1" fill="#C67126"></rect><rect x="17" y="20" width="1" height="7" fill="#C67126"></rect><rect x="18" y="20" width="1" height="1" fill="#945933"></rect><rect x="19" y="20" width="1" height="2" fill="#000000"></rect><rect x="22" y="20" width="2" height="1" fill="#000000"></rect><rect x="15" y="21" width="1" height="1" fill="#945933"></rect><rect x="18" y="21" width="1" height="1" fill="#C67126"></rect><rect x="10" y="22" width="1" height="1" fill="#000000"></rect><rect x="11" y="22" width="1" height="3" fill="#7D7693"></rect><rect x="15" y="22" width="1" height="4" fill="#000000"></rect><rect x="18" y="22" width="1" height="4" fill="#000000"></rect><rect x="9" y="23" width="1" height="1" fill="#000000"></rect><rect x="10" y="23" width="1" height="3" fill="#7D7693"></rect><rect x="14" y="23" width="1" height="1" fill="#000000"></rect><rect x="8" y="24" width="1" height="1" fill="#000000"></rect><rect x="9" y="24" width="1" height="2" fill="#7D7693"></rect><rect x="13" y="24" width="1" height="1" fill="#000000"></rect><rect x="7" y="25" width="1" height="2" fill="#000000"></rect><rect x="8" y="25" width="1" height="1" fill="#7D7693"></rect><rect x="11" y="25" width="2" height="1" fill="#000000"></rect><rect x="16" y="25" width="1" height="1" fill="#945933"></rect><rect x="8" y="26" width="3" height="1" fill="#000000"></rect><rect x="16" y="26" width="1" height="2" fill="#000000"></rect><rect x="18" y="26" width="1" height="1" fill="#945933"></rect><rect x="19" y="26" width="1" height="2" fill="#000000"></rect><rect x="17" y="27" width="1" height="1" fill="#945933"></rect><rect x="18" y="27" width="1" height="1" fill="#C67126"></rect><rect x="17" y="28" width="1" height="1" fill="#000000"></rect><rect x="18" y="28" width="2" height="1" fill="#945933"></rect><rect x="20" y="28" width="1" height="2" fill="#000000"></rect><rect x="18" y="29" width="2" height="1" fill="#000000"></rect></svg>
