<svg width="32" height="32" viewBox="0 0 32 32" fill="none" xmlns="http://www.w3.org/2000/svg" shape-rendering="crispEdges"><rect x="15" y="0" width="1" height="1" fill="#000000"></rect><rect x="14" y="1" width="1" height="1" fill="#000000"></rect><rect x="15" y="1" width="1" height="4" fill="#D32A2A"></rect><rect x="16" y="1" width="1" height="1" fill="#000000"></rect><rect x="13" y="2" width="1" height="1" fill="#000000"></rect><rect x="14" y="2" width="1" height="3" fill="#D32A2A"></rect><rect x="16" y="2" width="1" height="3" fill="#D32A2A"></rect><rect x="17" y="2" width="1" height="1" fill="#000000"></rect><rect x="12" y="3" width="1" height="3" fill="#000000"></rect><rect x="13" y="3" width="1" height="2" fill="#D32A2A"></rect><rect x="17" y="3" width="1" height="2" fill="#D32A2A"></rect><rect x="18" y="3" width="1" height="3" fill="#000000"></rect><rect x="13" y="5" width="1" height="1" fill="#000000"></rect><rect x="14" y="5" width="3" height="1" fill="#530815"></rect><rect x="17" y="5" width="1" height="1" fill="#000000"></rect><rect x="10" y="6" width="2" height="1" fill="#000000"></rect><rect x="12" y="6" width="1" height="1" fill="#8B182C"></rect><rect x="13" y="6" width="5" height="1" fill="#D32A2A"></rect><rect x="18" y="6" width="1" height="1" fill="#8B182C"></rect><rect x="19" y="6" width="2" height="1" fill="#000000"></rect><rect x="9" y="7" width="1" height="1" fill="#000000"></rect><rect x="10" y="7" width="1" height="1" fill="#8B182C"></rect><rect x="11" y="7" width="2" height="1" fill="#D32A2A"></rect><rect x="13" y="7" width="5" height="1" fill="#8B182C"></rect><rect x="18" y="7" width="2" height="1" fill="#D32A2A"></rect><rect x="20" y="7" width="1" height="1" fill="#8B182C"></rect><rect x="21" y="7" width="1" height="1" fill="#000000"></rect><rect x="8" y="8" width="1" height="1" fill="#000000"></rect><rect x="9" y="8" width="1" height="1" fill="#8B182C"></rect><rect x="10" y="8" width="1" height="1" fill="#D32A2A"></rect><rect x="11" y="8" width="1" height="1" fill="#8B182C"></rect><rect x="12" y="8" width="7" height="1" fill="#000000"></rect><rect x="19" y="8" width="1" height="1" fill="#8B182C"></rect><rect x="20" y="8" width="1" height="1" fill="#D32A2A"></rect><rect x="21" y="8" width="1" height="1" fill="#8B182C"></rect><rect x="22" y="8" width="1" height="1" fill="#000000"></rect><rect x="7" y="9" width="1" height="2" fill="#000000"></rect><rect x="8" y="9" width="1" height="1" fill="#8B182C"></rect><rect x="9" y="9" width="1" height="1" fill="#D32A2A"></rect><rect x="10" y="9" width="1" height="1" fill="#8B182C"></rect><rect x="11" y="9" width="1" height="1" fill="#000000"></rect><rect x="19" y="9" width="1" height="1" fill="#000000"></rect><rect x="20" y="9" width="1" height="1" fill="#8B182C"></rect><rect x="21" y="9" width="1" height="1" fill="#D32A2A"></rect><rect x="22" y="9" width="1" height="1" fill="#8B182C"></rect><rect x="23" y="9" width="1" height="2" fill="#000000"></rect><rect x="8" y="10" width="1" height="2" fill="#D32A2A"></rect><rect x="9" y="10" width="1" height="1" fill="#8B182C"></rect><rect x="10" y="10" width="1" height="1" fill="#000000"></rect><rect x="20" y="10" width="1" height="1" fill="#000000"></rect><rect x="21" y="10" width="1" height="1" fill="#8B182C"></rect><rect x="22" y="10" width="1" height="2" fill="#D32A2A"></rect><rect x="4" y="11" width="3" height="1" fill="#000000"></rect><rect x="7" y="11" width="1" height="1" fill="#8B182C"></rect><rect x="9" y="11" width="1" height="7" fill="#000000"></rect><rect x="14" y="11" width="3" height="1" fill="#000000"></rect><rect x="21" y="11" width="1" height="7" fill="#000000"></rect><rect x="23" y="11" width="1" height="1" fill="#8B182C"></rect><rect x="24" y="11" width="3" height="1" fill="#000000"></rect><rect x="3" y="12" width="1" height="1" fill="#000000"></rect><rect x="4" y="12" width="2" height="5" fill="#D32A2A"></rect><rect x="6" y="12" width="1" height="1" fill="#000000"></rect><rect x="7" y="12" width="1" height="5" fill="#D32A2A"></rect><rect x="8" y="12" width="1" height="5" fill="#8B182C"></rect><rect x="13" y="12" width="1" height="1" fill="#000000"></rect><rect x="14" y="12" width="3" height="5" fill="#D32A2A"></rect><rect x="17" y="12" width="1" height="1" fill="#000000"></rect><rect x="22" y="12" width="1" height="5" fill="#8B182C"></rect><rect x="23" y="12" width="1" height="5" fill="#D32A2A"></rect><rect x="24" y="12" width="1" height="1" fill="#000000"></rect><rect x="25" y="12" width="2" height="5" fill="#D32A2A"></rect><rect x="27" y="12" width="1" height="1" fill="#000000"></rect><rect x="2" y="13" width="1" height="1" fill="#000000"></rect><rect x="3" y="13" width="1" height="3" fill="#D32A2A"></rect><rect x="6" y="13" width="1" height="3" fill="#530815"></rect><rect x="12" y="13" width="1" height="3" fill="#000000"></rect><rect x="13" y="13" width="1" height="3" fill="#D32A2A"></rect><rect x="17" y="13" width="1" height="3" fill="#D32A2A"></rect><rect x="18" y="13" width="1" height="3" fill="#000000"></rect><rect x="24" y="13" width="1" height="3" fill="#530815"></rect><rect x="27" y="13" width="1" height="3" fill="#D32A2A"></rect><rect x="28" y="13" width="1" height="1" fill="#000000"></rect><rect x="1" y="14" width="1" height="1" fill="#000000"></rect><rect x="2" y="14" width="1" height="1" fill="#D32A2A"></rect><rect x="28" y="14" width="1" height="1" fill="#D32A2A"></rect><rect x="29" y="14" width="1" height="1" fill="#000000"></rect><rect x="2" y="15" width="1" height="1" fill="#000000"></rect><rect x="28" y="15" width="1" height="1" fill="#000000"></rect><rect x="3" y="16" width="1" height="1" fill="#000000"></rect><rect x="6" y="16" width="1" height="2" fill="#000000"></rect><rect x="13" y="16" width="1" height="1" fill="#000000"></rect><rect x="17" y="16" width="1" height="1" fill="#000000"></rect><rect x="24" y="16" width="1" height="2" fill="#000000"></rect><rect x="27" y="16" width="1" height="1" fill="#000000"></rect><rect x="4" y="17" width="2" height="1" fill="#000000"></rect><rect x="7" y="17" width="1" height="1" fill="#8B182C"></rect><rect x="8" y="17" width="1" height="2" fill="#D32A2A"></rect><rect x="14" y="17" width="3" height="1" fill="#000000"></rect><rect x="22" y="17" width="1" height="2" fill="#D32A2A"></rect><rect x="23" y="17" width="1" height="1" fill="#8B182C"></rect><rect x="25" y="17" width="2" height="1" fill="#000000"></rect><rect x="7" y="18" width="1" height="2" fill="#000000"></rect><rect x="9" y="18" width="1" height="1" fill="#8B182C"></rect><rect x="10" y="18" width="1" height="1" fill="#000000"></rect><rect x="20" y="18" width="1" height="1" fill="#000000"></rect><rect x="21" y="18" width="1" height="1" fill="#8B182C"></rect><rect x="23" y="18" width="1" height="2" fill="#000000"></rect><rect x="8" y="19" width="1" height="1" fill="#8B182C"></rect><rect x="9" y="19" width="1" height="1" fill="#D32A2A"></rect><rect x="10" y="19" width="1" height="1" fill="#8B182C"></rect><rect x="11" y="19" width="1" height="1" fill="#000000"></rect><rect x="19" y="19" width="1" height="1" fill="#000000"></rect><rect x="20" y="19" width="1" height="1" fill="#8B182C"></rect><rect x="21" y="19" width="1" height="1" fill="#D32A2A"></rect><rect x="22" y="19" width="1" height="1" fill="#8B182C"></rect><rect x="8" y="20" width="1" height="1" fill="#000000"></rect><rect x="9" y="20" width="1" height="1" fill="#8B182C"></rect><rect x="10" y="20" width="1" height="1" fill="#D32A2A"></rect><rect x="11" y="20" width="1" height="1" fill="#8B182C"></rect><rect x="12" y="20" width="7" height="1" fill="#000000"></rect><rect x="19" y="20" width="1" height="1" fill="#8B182C"></rect><rect x="20" y="20" width="1" height="1" fill="#D32A2A"></rect><rect x="21" y="20" width="1" height="1" fill="#8B182C"></rect><rect x="22" y="20" width="1" height="1" fill="#000000"></rect><rect x="9" y="21" width="1" height="1" fill="#000000"></rect><rect x="10" y="21" width="1" height="1" fill="#8B182C"></rect><rect x="11" y="21" width="2" height="1" fill="#D32A2A"></rect><rect x="13" y="21" width="5" height="1" fill="#8B182C"></rect><rect x="18" y="21" width="2" height="1" fill="#D32A2A"></rect><rect x="20" y="21" width="1" height="1" fill="#8B182C"></rect><rect x="21" y="21" width="1" height="1" fill="#000000"></rect><rect x="10" y="22" width="2" height="1" fill="#000000"></rect><rect x="12" y="22" width="1" height="1" fill="#8B182C"></rect><rect x="13" y="22" width="5" height="1" fill="#D32A2A"></rect><rect x="18" y="22" width="1" height="1" fill="#8B182C"></rect><rect x="19" y="22" width="2" height="1" fill="#000000"></rect><rect x="12" y="23" width="2" height="1" fill="#000000"></rect><rect x="14" y="23" width="3" height="1" fill="#530815"></rect><rect x="17" y="23" width="2" height="1" fill="#000000"></rect><rect x="12" y="24" width="1" height="2" fill="#000000"></rect><rect x="13" y="24" width="5" height="2" fill="#D32A2A"></rect><rect x="18" y="24" width="1" height="2" fill="#000000"></rect><rect x="13" y="26" width="1" height="1" fill="#000000"></rect><rect x="14" y="26" width="3" height="1" fill="#D32A2A"></rect><rect x="17" y="26" width="1" height="1" fill="#000000"></rect><rect x="14" y="27" width="1" height="1" fill="#000000"></rect><rect x="15" y="27" width="1" height="1" fill="#D32A2A"></rect><rect x="16" y="27" width="1" height="1" fill="#000000"></rect><rect x="15" y="28" width="1" height="1" fill="#000000"></rect></svg>
