<svg width="32" height="32" viewBox="0 0 32 32" fill="none" xmlns="http://www.w3.org/2000/svg" shape-rendering="crispEdges"><rect x="7" y="1" width="4" height="1" fill="#000000"></rect><rect x="6" y="2" width="1" height="1" fill="#000000"></rect><rect x="7" y="2" width="2" height="1" fill="#0A5612"></rect><rect x="9" y="2" width="1" height="5" fill="#189726"></rect><rect x="10" y="2" width="1" height="2" fill="#000000"></rect><rect x="5" y="3" width="1" height="1" fill="#000000"></rect><rect x="6" y="3" width="2" height="1" fill="#0A5612"></rect><rect x="8" y="3" width="1" height="5" fill="#189726"></rect><rect x="11" y="3" width="4" height="1" fill="#000000"></rect><rect x="4" y="4" width="1" height="1" fill="#000000"></rect><rect x="5" y="4" width="2" height="1" fill="#0A5612"></rect><rect x="7" y="4" width="1" height="4" fill="#189726"></rect><rect x="10" y="4" width="4" height="1" fill="#189726"></rect><rect x="14" y="4" width="3" height="1" fill="#000000"></rect><rect x="3" y="5" width="1" height="2" fill="#000000"></rect><rect x="4" y="5" width="2" height="2" fill="#0A5612"></rect><rect x="6" y="5" width="1" height="2" fill="#189726"></rect><rect x="10" y="5" width="3" height="1" fill="#189726"></rect><rect x="13" y="5" width="2" height="1" fill="#000000"></rect><rect x="15" y="5" width="2" height="1" fill="#BD6F22"></rect><rect x="17" y="5" width="2" height="1" fill="#000000"></rect><rect x="10" y="6" width="1" height="1" fill="#189726"></rect><rect x="11" y="6" width="2" height="1" fill="#000000"></rect><rect x="13" y="6" width="6" height="2" fill="#EEA60B"></rect><rect x="19" y="6" width="2" height="1" fill="#000000"></rect><rect x="4" y="7" width="1" height="1" fill="#000000"></rect><rect x="5" y="7" width="2" height="1" fill="#0A5612"></rect><rect x="9" y="7" width="2" height="1" fill="#000000"></rect><rect x="11" y="7" width="2" height="4" fill="#EEA60B"></rect><rect x="19" y="7" width="2" height="3" fill="#EEA60B"></rect><rect x="21" y="7" width="2" height="1" fill="#000000"></rect><rect x="5" y="8" width="1" height="1" fill="#000000"></rect><rect x="6" y="8" width="2" height="1" fill="#0A5612"></rect><rect x="8" y="8" width="1" height="1" fill="#000000"></rect><rect x="9" y="8" width="1" height="1" fill="#BD6F22"></rect><rect x="10" y="8" width="1" height="2" fill="#EEA60B"></rect><rect x="13" y="8" width="2" height="4" fill="#EEA60B"></rect><rect x="15" y="8" width="2" height="2" fill="#FFE5EA"></rect><rect x="17" y="8" width="2" height="3" fill="#EEA60B"></rect><rect x="21" y="8" width="1" height="2" fill="#EEA60B"></rect><rect x="22" y="8" width="1" height="1" fill="#BD6F22"></rect><rect x="23" y="8" width="1" height="1" fill="#000000"></rect><rect x="6" y="9" width="2" height="1" fill="#000000"></rect><rect x="8" y="9" width="1" height="9" fill="#BD6F22"></rect><rect x="9" y="9" width="1" height="1" fill="#EEA60B"></rect><rect x="22" y="9" width="2" height="3" fill="#7F4F2B"></rect><rect x="24" y="9" width="1" height="3" fill="#000000"></rect><rect x="7" y="10" width="1" height="9" fill="#000000"></rect><rect x="9" y="10" width="2" height="2" fill="#BD6F22"></rect><rect x="15" y="10" width="2" height="2" fill="#EEA60B"></rect><rect x="19" y="10" width="1" height="1" fill="#EEA60B"></rect><rect x="20" y="10" width="1" height="1" fill="#BD6F22"></rect><rect x="21" y="10" width="1" height="2" fill="#7F4F2B"></rect><rect x="11" y="11" width="2" height="9" fill="#BD6F22"></rect><rect x="17" y="11" width="1" height="1" fill="#EEA60B"></rect><rect x="18" y="11" width="1" height="1" fill="#BD6F22"></rect><rect x="19" y="11" width="2" height="2" fill="#7F4F2B"></rect><rect x="25" y="11" width="2" height="1" fill="#000000"></rect><rect x="9" y="12" width="2" height="2" fill="#FFE5EA"></rect><rect x="13" y="12" width="3" height="6" fill="#BD6F22"></rect><rect x="16" y="12" width="3" height="6" fill="#7F4F2B"></rect><rect x="21" y="12" width="2" height="1" fill="#FFE5EA"></rect><rect x="23" y="12" width="1" height="1" fill="#032407"></rect><rect x="24" y="12" width="2" height="1" fill="#0A5612"></rect><rect x="26" y="12" width="1" height="8" fill="#189726"></rect><rect x="27" y="12" width="1" height="1" fill="#000000"></rect><rect x="19" y="13" width="1" height="1" fill="#7F4F2B"></rect><rect x="20" y="13" width="2" height="1" fill="#032407"></rect><rect x="22" y="13" width="2" height="1" fill="#0A5612"></rect><rect x="24" y="13" width="2" height="1" fill="#032407"></rect><rect x="27" y="13" width="1" height="6" fill="#189726"></rect><rect x="28" y="13" width="1" height="1" fill="#000000"></rect><rect x="9" y="14" width="2" height="5" fill="#BD6F22"></rect><rect x="19" y="14" width="1" height="4" fill="#032407"></rect><rect x="20" y="14" width="2" height="4" fill="#0A5612"></rect><rect x="22" y="14" width="4" height="4" fill="#189726"></rect><rect x="28" y="14" width="1" height="4" fill="#189726"></rect><rect x="29" y="14" width="1" height="1" fill="#000000"></rect><rect x="29" y="15" width="1" height="2" fill="#189726"></rect><rect x="30" y="15" width="1" height="2" fill="#000000"></rect><rect x="29" y="17" width="1" height="1" fill="#000000"></rect><rect x="8" y="18" width="1" height="1" fill="#7F4F2B"></rect><rect x="13" y="18" width="2" height="2" fill="#FFE5EA"></rect><rect x="15" y="18" width="1" height="3" fill="#BD6F22"></rect><rect x="16" y="18" width="1" height="3" fill="#7F4F2B"></rect><rect x="17" y="18" width="2" height="1" fill="#FFE5EA"></rect><rect x="19" y="18" width="1" height="1" fill="#7F4F2B"></rect><rect x="20" y="18" width="2" height="1" fill="#032407"></rect><rect x="22" y="18" width="2" height="1" fill="#0A5612"></rect><rect x="24" y="18" width="2" height="1" fill="#032407"></rect><rect x="28" y="18" width="1" height="1" fill="#000000"></rect><rect x="8" y="19" width="1" height="1" fill="#000000"></rect><rect x="9" y="19" width="1" height="1" fill="#7F4F2B"></rect><rect x="10" y="19" width="1" height="1" fill="#BD6F22"></rect><rect x="17" y="19" width="3" height="1" fill="#032407"></rect><rect x="20" y="19" width="1" height="1" fill="#0A5612"></rect><rect x="21" y="19" width="2" height="1" fill="#7F4F2B"></rect><rect x="23" y="19" width="1" height="1" fill="#000000"></rect><rect x="24" y="19" width="2" height="1" fill="#0A5612"></rect><rect x="27" y="19" width="1" height="1" fill="#000000"></rect><rect x="9" y="20" width="2" height="1" fill="#000000"></rect><rect x="11" y="20" width="1" height="1" fill="#7F4F2B"></rect><rect x="12" y="20" width="3" height="1" fill="#BD6F22"></rect><rect x="17" y="20" width="1" height="1" fill="#032407"></rect><rect x="18" y="20" width="2" height="1" fill="#0A5612"></rect><rect x="20" y="20" width="1" height="8" fill="#189726"></rect><rect x="21" y="20" width="2" height="1" fill="#000000"></rect><rect x="24" y="20" width="3" height="1" fill="#000000"></rect><rect x="11" y="21" width="2" height="1" fill="#000000"></rect><rect x="13" y="21" width="1" height="1" fill="#7F4F2B"></rect><rect x="14" y="21" width="2" height="1" fill="#032407"></rect><rect x="16" y="21" width="2" height="1" fill="#0A5612"></rect><rect x="18" y="21" width="2" height="1" fill="#032407"></rect><rect x="21" y="21" width="1" height="6" fill="#189726"></rect><rect x="22" y="21" width="1" height="1" fill="#000000"></rect><rect x="13" y="22" width="1" height="4" fill="#000000"></rect><rect x="14" y="22" width="2" height="4" fill="#0A5612"></rect><rect x="16" y="22" width="4" height="4" fill="#189726"></rect><rect x="22" y="22" width="1" height="4" fill="#189726"></rect><rect x="23" y="22" width="1" height="1" fill="#000000"></rect><rect x="23" y="23" width="1" height="2" fill="#189726"></rect><rect x="24" y="23" width="1" height="2" fill="#000000"></rect><rect x="23" y="25" width="1" height="1" fill="#000000"></rect><rect x="14" y="26" width="4" height="1" fill="#000000"></rect><rect x="18" y="26" width="2" height="1" fill="#032407"></rect><rect x="22" y="26" width="1" height="1" fill="#000000"></rect><rect x="17" y="27" width="1" height="1" fill="#000000"></rect><rect x="18" y="27" width="2" height="1" fill="#0A5612"></rect><rect x="21" y="27" width="1" height="1" fill="#000000"></rect><rect x="18" y="28" width="3" height="1" fill="#000000"></rect></svg>
