<svg width="32" height="32" viewBox="0 0 32 32" fill="none" xmlns="http://www.w3.org/2000/svg" shape-rendering="crispEdges"><rect x="12" y="2" width="8" height="1" fill="#000000"></rect><rect x="10" y="3" width="2" height="1" fill="#000000"></rect><rect x="12" y="3" width="8" height="6" fill="#212F38"></rect><rect x="20" y="3" width="2" height="1" fill="#000000"></rect><rect x="9" y="4" width="1" height="1" fill="#000000"></rect><rect x="10" y="4" width="2" height="4" fill="#212F38"></rect><rect x="20" y="4" width="2" height="4" fill="#212F38"></rect><rect x="22" y="4" width="1" height="1" fill="#000000"></rect><rect x="8" y="5" width="1" height="1" fill="#000000"></rect><rect x="9" y="5" width="1" height="2" fill="#212F38"></rect><rect x="22" y="5" width="1" height="2" fill="#212F38"></rect><rect x="23" y="5" width="1" height="1" fill="#000000"></rect><rect x="7" y="6" width="1" height="2" fill="#000000"></rect><rect x="8" y="6" width="1" height="13" fill="#1A1A1A"></rect><rect x="23" y="6" width="1" height="13" fill="#1A1A1A"></rect><rect x="24" y="6" width="1" height="2" fill="#000000"></rect><rect x="9" y="7" width="1" height="8" fill="#1A1A1A"></rect><rect x="22" y="7" width="1" height="8" fill="#1A1A1A"></rect><rect x="6" y="8" width="1" height="11" fill="#000000"></rect><rect x="7" y="8" width="1" height="10" fill="#1A1A1A"></rect><rect x="10" y="8" width="2" height="6" fill="#1A1A1A"></rect><rect x="20" y="8" width="2" height="6" fill="#1A1A1A"></rect><rect x="24" y="8" width="1" height="10" fill="#1A1A1A"></rect><rect x="25" y="8" width="1" height="11" fill="#000000"></rect><rect x="12" y="9" width="8" height="6" fill="#1A1A1A"></rect><rect x="10" y="14" width="2" height="3" fill="#F5D547"></rect><rect x="20" y="14" width="2" height="3" fill="#F5D547"></rect><rect x="9" y="15" width="1" height="1" fill="#F5D547"></rect><rect x="12" y="15" width="2" height="1" fill="#F5D547"></rect><rect x="14" y="15" width="4" height="12" fill="#1A1A1A"></rect><rect x="18" y="15" width="2" height="1" fill="#F5D547"></rect><rect x="22" y="15" width="1" height="1" fill="#F5D547"></rect><rect x="9" y="16" width="1" height="3" fill="#1A1A1A"></rect><rect x="12" y="16" width="1" height="1" fill="#F5D547"></rect><rect x="13" y="16" width="1" height="11" fill="#1A1A1A"></rect><rect x="18" y="16" width="1" height="11" fill="#1A1A1A"></rect><rect x="19" y="16" width="1" height="1" fill="#F5D547"></rect><rect x="22" y="16" width="1" height="3" fill="#1A1A1A"></rect><rect x="5" y="17" width="1" height="2" fill="#000000"></rect><rect x="10" y="17" width="3" height="9" fill="#1A1A1A"></rect><rect x="19" y="17" width="3" height="9" fill="#1A1A1A"></rect><rect x="26" y="17" width="1" height="2" fill="#000000"></rect><rect x="4" y="18" width="1" height="1" fill="#000000"></rect><rect x="7" y="18" width="1" height="1" fill="#000000"></rect><rect x="24" y="18" width="1" height="1" fill="#000000"></rect><rect x="27" y="18" width="1" height="1" fill="#000000"></rect><rect x="3" y="19" width="1" height="1" fill="#000000"></rect><rect x="4" y="19" width="4" height="5" fill="#1A1A1A"></rect><rect x="8" y="19" width="2" height="1" fill="#000000"></rect><rect x="22" y="19" width="2" height="1" fill="#000000"></rect><rect x="24" y="19" width="4" height="5" fill="#1A1A1A"></rect><rect x="28" y="19" width="1" height="1" fill="#000000"></rect><rect x="2" y="20" width="1" height="3" fill="#000000"></rect><rect x="3" y="20" width="1" height="3" fill="#1A1A1A"></rect><rect x="8" y="20" width="2" height="6" fill="#1A1A1A"></rect><rect x="22" y="20" width="2" height="6" fill="#1A1A1A"></rect><rect x="28" y="20" width="1" height="3" fill="#1A1A1A"></rect><rect x="29" y="20" width="1" height="3" fill="#000000"></rect><rect x="3" y="23" width="1" height="1" fill="#000000"></rect><rect x="28" y="23" width="1" height="1" fill="#000000"></rect><rect x="4" y="24" width="2" height="1" fill="#000000"></rect><rect x="6" y="24" width="2" height="1" fill="#1A1A1A"></rect><rect x="24" y="24" width="2" height="1" fill="#1A1A1A"></rect><rect x="26" y="24" width="2" height="1" fill="#000000"></rect><rect x="6" y="25" width="2" height="1" fill="#000000"></rect><rect x="24" y="25" width="2" height="1" fill="#000000"></rect><rect x="8" y="26" width="3" height="1" fill="#000000"></rect><rect x="11" y="26" width="2" height="1" fill="#1A1A1A"></rect><rect x="19" y="26" width="2" height="1" fill="#1A1A1A"></rect><rect x="21" y="26" width="3" height="1" fill="#000000"></rect><rect x="11" y="27" width="10" height="1" fill="#000000"></rect></svg>
