<svg width="32" height="32" viewBox="0 0 32 32" fill="none" xmlns="http://www.w3.org/2000/svg" shape-rendering="crispEdges"><rect x="15" y="5" width="3" height="1" fill="#000000"></rect><rect x="6" y="6" width="5" height="1" fill="#000000"></rect><rect x="14" y="6" width="1" height="1" fill="#000000"></rect><rect x="15" y="6" width="3" height="1" fill="#C8E9F8"></rect><rect x="18" y="6" width="1" height="1" fill="#000000"></rect><rect x="24" y="6" width="2" height="1" fill="#000000"></rect><rect x="6" y="7" width="1" height="4" fill="#000000"></rect><rect x="7" y="7" width="2" height="1" fill="#8DE8FB"></rect><rect x="9" y="7" width="2" height="1" fill="#33B1FF"></rect><rect x="11" y="7" width="3" height="1" fill="#000000"></rect><rect x="14" y="7" width="5" height="1" fill="#B0B0D8"></rect><rect x="19" y="7" width="5" height="1" fill="#000000"></rect><rect x="24" y="7" width="1" height="10" fill="#636268"></rect><rect x="25" y="7" width="1" height="13" fill="#000000"></rect><rect x="7" y="8" width="1" height="1" fill="#8DE8FB"></rect><rect x="8" y="8" width="3" height="3" fill="#FFFFFF"></rect><rect x="11" y="8" width="1" height="1" fill="#8DE8FB"></rect><rect x="12" y="8" width="1" height="1" fill="#000000"></rect><rect x="13" y="8" width="1" height="1" fill="#B0B0D8"></rect><rect x="14" y="8" width="2" height="2" fill="#636268"></rect><rect x="16" y="8" width="1" height="2" fill="#B0B0D8"></rect><rect x="17" y="8" width="2" height="5" fill="#444347"></rect><rect x="19" y="8" width="5" height="1" fill="#636268"></rect><rect x="7" y="9" width="1" height="2" fill="#33B1FF"></rect><rect x="11" y="9" width="1" height="5" fill="#FFFFFF"></rect><rect x="12" y="9" width="1" height="1" fill="#8DE8FB"></rect><rect x="13" y="9" width="1" height="1" fill="#000000"></rect><rect x="19" y="9" width="5" height="6" fill="#444347"></rect><rect x="12" y="10" width="1" height="5" fill="#FFFFFF"></rect><rect x="13" y="10" width="1" height="1" fill="#8DE8FB"></rect><rect x="14" y="10" width="1" height="1" fill="#000000"></rect><rect x="15" y="10" width="2" height="1" fill="#636268"></rect><rect x="7" y="11" width="1" height="10" fill="#000000"></rect><rect x="8" y="11" width="1" height="1" fill="#8DE8FB"></rect><rect x="9" y="11" width="2" height="1" fill="#FFFFFF"></rect><rect x="13" y="11" width="1" height="5" fill="#FFFFFF"></rect><rect x="14" y="11" width="1" height="1" fill="#8DE8FB"></rect><rect x="15" y="11" width="1" height="1" fill="#000000"></rect><rect x="16" y="11" width="1" height="1" fill="#636268"></rect><rect x="8" y="12" width="1" height="1" fill="#000000"></rect><rect x="9" y="12" width="1" height="1" fill="#8DE8FB"></rect><rect x="10" y="12" width="1" height="1" fill="#FFFFFF"></rect><rect x="14" y="12" width="1" height="5" fill="#FFFFFF"></rect><rect x="15" y="12" width="1" height="1" fill="#8DE8FB"></rect><rect x="16" y="12" width="1" height="1" fill="#000000"></rect><rect x="8" y="13" width="1" height="8" fill="#B0B0D8"></rect><rect x="9" y="13" width="1" height="1" fill="#000000"></rect><rect x="10" y="13" width="1" height="1" fill="#8DE8FB"></rect><rect x="15" y="13" width="1" height="5" fill="#FFFFFF"></rect><rect x="16" y="13" width="1" height="1" fill="#8DE8FB"></rect><rect x="17" y="13" width="1" height="1" fill="#000000"></rect><rect x="18" y="13" width="1" height="1" fill="#444347"></rect><rect x="9" y="14" width="1" height="7" fill="#636268"></rect><rect x="10" y="14" width="1" height="1" fill="#000000"></rect><rect x="11" y="14" width="1" height="1" fill="#8DE8FB"></rect><rect x="16" y="14" width="1" height="5" fill="#FFFFFF"></rect><rect x="17" y="14" width="1" height="1" fill="#8DE8FB"></rect><rect x="18" y="14" width="1" height="1" fill="#000000"></rect><rect x="10" y="15" width="1" height="7" fill="#636268"></rect><rect x="11" y="15" width="1" height="1" fill="#000000"></rect><rect x="12" y="15" width="1" height="1" fill="#8DE8FB"></rect><rect x="17" y="15" width="1" height="2" fill="#FFFFFF"></rect><rect x="18" y="15" width="1" height="1" fill="#8DE8FB"></rect><rect x="19" y="15" width="1" height="1" fill="#000000"></rect><rect x="20" y="15" width="4" height="1" fill="#444347"></rect><rect x="11" y="16" width="1" height="7" fill="#636268"></rect><rect x="12" y="16" width="1" height="1" fill="#000000"></rect><rect x="13" y="16" width="1" height="1" fill="#8DE8FB"></rect><rect x="18" y="16" width="1" height="2" fill="#FFFFFF"></rect><rect x="19" y="16" width="1" height="1" fill="#8DE8FB"></rect><rect x="20" y="16" width="1" height="1" fill="#000000"></rect><rect x="21" y="16" width="3" height="1" fill="#444347"></rect><rect x="12" y="17" width="1" height="7" fill="#636268"></rect><rect x="13" y="17" width="1" height="1" fill="#000000"></rect><rect x="14" y="17" width="1" height="1" fill="#8DE8FB"></rect><rect x="17" y="17" width="1" height="1" fill="#8DE8FB"></rect><rect x="19" y="17" width="1" height="2" fill="#FFFFFF"></rect><rect x="20" y="17" width="1" height="3" fill="#8DE8FB"></rect><rect x="21" y="17" width="1" height="1" fill="#000000"></rect><rect x="22" y="17" width="1" height="1" fill="#444347"></rect><rect x="23" y="17" width="1" height="1" fill="#000000"></rect><rect x="24" y="17" width="1" height="1" fill="#522E12"></rect><rect x="13" y="18" width="1" height="7" fill="#636268"></rect><rect x="14" y="18" width="1" height="1" fill="#000000"></rect><rect x="15" y="18" width="1" height="1" fill="#8DE8FB"></rect><rect x="17" y="18" width="1" height="2" fill="#FFFFFF"></rect><rect x="18" y="18" width="1" height="1" fill="#8DE8FB"></rect><rect x="21" y="18" width="1" height="1" fill="#33B1FF"></rect><rect x="22" y="18" width="1" height="1" fill="#000000"></rect><rect x="23" y="18" width="2" height="2" fill="#7F4F2B"></rect><rect x="14" y="19" width="1" height="7" fill="#636268"></rect><rect x="15" y="19" width="1" height="1" fill="#000000"></rect><rect x="16" y="19" width="1" height="1" fill="#8DE8FB"></rect><rect x="18" y="19" width="1" height="1" fill="#FFFFFF"></rect><rect x="19" y="19" width="1" height="1" fill="#33B1FF"></rect><rect x="21" y="19" width="1" height="1" fill="#000000"></rect><rect x="22" y="19" width="1" height="2" fill="#BD6F22"></rect><rect x="15" y="20" width="1" height="6" fill="#636268"></rect><rect x="16" y="20" width="1" height="1" fill="#000000"></rect><rect x="17" y="20" width="3" height="1" fill="#8DE8FB"></rect><rect x="20" y="20" width="1" height="1" fill="#000000"></rect><rect x="21" y="20" width="1" height="2" fill="#BD6F22"></rect><rect x="23" y="20" width="1" height="1" fill="#7F4F2B"></rect><rect x="24" y="20" width="1" height="3" fill="#000000"></rect><rect x="8" y="21" width="1" height="1" fill="#000000"></rect><rect x="9" y="21" width="1" height="1" fill="#B0B0D8"></rect><rect x="16" y="21" width="1" height="1" fill="#444347"></rect><rect x="17" y="21" width="1" height="1" fill="#000000"></rect><rect x="18" y="21" width="1" height="1" fill="#33B1FF"></rect><rect x="19" y="21" width="1" height="1" fill="#000000"></rect><rect x="20" y="21" width="1" height="2" fill="#BD6F22"></rect><rect x="22" y="21" width="1" height="1" fill="#7F4F2B"></rect><rect x="23" y="21" width="1" height="1" fill="#000000"></rect><rect x="9" y="22" width="1" height="1" fill="#000000"></rect><rect x="10" y="22" width="1" height="1" fill="#B0B0D8"></rect><rect x="16" y="22" width="1" height="5" fill="#B0B0D8"></rect><rect x="17" y="22" width="1" height="1" fill="#444347"></rect><rect x="18" y="22" width="1" height="1" fill="#000000"></rect><rect x="19" y="22" width="1" height="1" fill="#BD6F22"></rect><rect x="21" y="22" width="1" height="1" fill="#7F4F2B"></rect><rect x="22" y="22" width="1" height="1" fill="#000000"></rect><rect x="23" y="22" width="1" height="3" fill="#7F4F2B"></rect><rect x="10" y="23" width="1" height="1" fill="#000000"></rect><rect x="11" y="23" width="1" height="1" fill="#B0B0D8"></rect><rect x="17" y="23" width="1" height="1" fill="#000000"></rect><rect x="18" y="23" width="3" height="1" fill="#7F4F2B"></rect><rect x="21" y="23" width="1" height="2" fill="#000000"></rect><rect x="22" y="23" width="1" height="1" fill="#7F4F2B"></rect><rect x="24" y="23" width="1" height="1" fill="#7F4F2B"></rect><rect x="25" y="23" width="1" height="1" fill="#000000"></rect><rect x="11" y="24" width="1" height="1" fill="#000000"></rect><rect x="12" y="24" width="1" height="1" fill="#B0B0D8"></rect><rect x="17" y="24" width="1" height="1" fill="#522E12"></rect><rect x="18" y="24" width="2" height="1" fill="#7F4F2B"></rect><rect x="20" y="24" width="1" height="1" fill="#000000"></rect><rect x="22" y="24" width="1" height="1" fill="#000000"></rect><rect x="24" y="24" width="2" height="2" fill="#BD6F22"></rect><rect x="26" y="24" width="1" height="2" fill="#000000"></rect><rect x="12" y="25" width="1" height="1" fill="#000000"></rect><rect x="13" y="25" width="1" height="1" fill="#B0B0D8"></rect><rect x="17" y="25" width="3" height="1" fill="#000000"></rect><rect x="23" y="25" width="1" height="1" fill="#000000"></rect><rect x="13" y="26" width="1" height="1" fill="#000000"></rect><rect x="14" y="26" width="2" height="1" fill="#B0B0D8"></rect><rect x="17" y="26" width="2" height="1" fill="#000000"></rect><rect x="24" y="26" width="2" height="1" fill="#000000"></rect><rect x="14" y="27" width="3" height="1" fill="#000000"></rect></svg>
