<svg width="32" height="32" viewBox="0 0 32 32" fill="none" xmlns="http://www.w3.org/2000/svg" shape-rendering="crispEdges"><rect x="14" y="6" width="3" height="1" fill="#000000"></rect><rect x="6" y="7" width="3" height="1" fill="#000000"></rect><rect x="13" y="7" width="1" height="1" fill="#000000"></rect><rect x="14" y="7" width="2" height="2" fill="#C8E9F8"></rect><rect x="16" y="7" width="1" height="2" fill="#7C7DB2"></rect><rect x="17" y="7" width="1" height="1" fill="#000000"></rect><rect x="6" y="8" width="1" height="6" fill="#000000"></rect><rect x="7" y="8" width="1" height="2" fill="#C8E9F8"></rect><rect x="8" y="8" width="1" height="1" fill="#7C7DB2"></rect><rect x="9" y="8" width="4" height="1" fill="#000000"></rect><rect x="13" y="8" width="1" height="2" fill="#C8E9F8"></rect><rect x="17" y="8" width="1" height="2" fill="#7C7DB2"></rect><rect x="18" y="8" width="5" height="1" fill="#000000"></rect><rect x="8" y="9" width="1" height="1" fill="#B0B0D8"></rect><rect x="9" y="9" width="1" height="1" fill="#383444"></rect><rect x="10" y="9" width="2" height="1" fill="#B0B0D8"></rect><rect x="12" y="9" width="1" height="1" fill="#C8E9F8"></rect><rect x="14" y="9" width="2" height="1" fill="#636268"></rect><rect x="16" y="9" width="1" height="5" fill="#444347"></rect><rect x="18" y="9" width="1" height="1" fill="#7C7DB2"></rect><rect x="19" y="9" width="2" height="1" fill="#636268"></rect><rect x="21" y="9" width="1" height="1" fill="#444347"></rect><rect x="22" y="9" width="1" height="1" fill="#636268"></rect><rect x="23" y="9" width="1" height="1" fill="#000000"></rect><rect x="7" y="10" width="2" height="1" fill="#383444"></rect><rect x="9" y="10" width="1" height="1" fill="#636268"></rect><rect x="10" y="10" width="2" height="3" fill="#7C7B81"></rect><rect x="12" y="10" width="1" height="1" fill="#636268"></rect><rect x="13" y="10" width="1" height="1" fill="#1D1A27"></rect><rect x="14" y="10" width="1" height="1" fill="#444347"></rect><rect x="15" y="10" width="1" height="3" fill="#636268"></rect><rect x="17" y="10" width="2" height="2" fill="#636268"></rect><rect x="19" y="10" width="2" height="1" fill="#444347"></rect><rect x="21" y="10" width="1" height="1" fill="#3A3841"></rect><rect x="22" y="10" width="1" height="2" fill="#444347"></rect><rect x="23" y="10" width="1" height="2" fill="#636268"></rect><rect x="24" y="10" width="1" height="2" fill="#000000"></rect><rect x="7" y="11" width="1" height="2" fill="#B0B0D8"></rect><rect x="8" y="11" width="1" height="2" fill="#636268"></rect><rect x="9" y="11" width="1" height="2" fill="#7C7B81"></rect><rect x="12" y="11" width="1" height="3" fill="#7C7B81"></rect><rect x="13" y="11" width="1" height="1" fill="#444347"></rect><rect x="14" y="11" width="1" height="2" fill="#1D1A27"></rect><rect x="19" y="11" width="1" height="1" fill="#444347"></rect><rect x="20" y="11" width="1" height="1" fill="#1D1A27"></rect><rect x="21" y="11" width="1" height="1" fill="#444347"></rect><rect x="13" y="12" width="1" height="3" fill="#636268"></rect><rect x="17" y="12" width="1" height="1" fill="#444347"></rect><rect x="18" y="12" width="1" height="1" fill="#3A3841"></rect><rect x="19" y="12" width="1" height="5" fill="#1D1A27"></rect><rect x="20" y="12" width="1" height="1" fill="#444347"></rect><rect x="21" y="12" width="2" height="3" fill="#636268"></rect><rect x="23" y="12" width="1" height="2" fill="#000000"></rect><rect x="7" y="13" width="1" height="2" fill="#000000"></rect><rect x="8" y="13" width="1" height="1" fill="#7C7B81"></rect><rect x="9" y="13" width="2" height="1" fill="#B0B0D8"></rect><rect x="11" y="13" width="1" height="1" fill="#7C7B81"></rect><rect x="14" y="13" width="1" height="1" fill="#444347"></rect><rect x="15" y="13" width="1" height="1" fill="#383444"></rect><rect x="17" y="13" width="2" height="1" fill="#1D1A27"></rect><rect x="20" y="13" width="1" height="1" fill="#3A3841"></rect><rect x="24" y="13" width="1" height="5" fill="#000000"></rect><rect x="8" y="14" width="1" height="1" fill="#383444"></rect><rect x="9" y="14" width="1" height="1" fill="#444347"></rect><rect x="10" y="14" width="2" height="1" fill="#B0B0D8"></rect><rect x="12" y="14" width="1" height="1" fill="#636268"></rect><rect x="14" y="14" width="1" height="1" fill="#636268"></rect><rect x="15" y="14" width="1" height="1" fill="#444347"></rect><rect x="16" y="14" width="1" height="2" fill="#1D1A27"></rect><rect x="17" y="14" width="1" height="1" fill="#3A3841"></rect><rect x="18" y="14" width="1" height="1" fill="#444347"></rect><rect x="20" y="14" width="1" height="2" fill="#1D1A27"></rect><rect x="23" y="14" width="1" height="4" fill="#636268"></rect><rect x="6" y="15" width="1" height="3" fill="#000000"></rect><rect x="7" y="15" width="1" height="3" fill="#B0B0D8"></rect><rect x="8" y="15" width="2" height="2" fill="#636268"></rect><rect x="10" y="15" width="1" height="1" fill="#444347"></rect><rect x="11" y="15" width="1" height="1" fill="#B0B0D8"></rect><rect x="12" y="15" width="1" height="1" fill="#444347"></rect><rect x="13" y="15" width="2" height="1" fill="#383444"></rect><rect x="15" y="15" width="1" height="1" fill="#1D1A27"></rect><rect x="17" y="15" width="2" height="1" fill="#1D1A27"></rect><rect x="21" y="15" width="2" height="1" fill="#444347"></rect><rect x="10" y="16" width="1" height="2" fill="#636268"></rect><rect x="11" y="16" width="1" height="3" fill="#1D1A27"></rect><rect x="12" y="16" width="1" height="1" fill="#B0B0D8"></rect><rect x="13" y="16" width="1" height="1" fill="#383444"></rect><rect x="14" y="16" width="1" height="1" fill="#444347"></rect><rect x="15" y="16" width="1" height="2" fill="#7C7B81"></rect><rect x="16" y="16" width="2" height="1" fill="#444347"></rect><rect x="18" y="16" width="1" height="1" fill="#1D1A27"></rect><rect x="20" y="16" width="1" height="1" fill="#383444"></rect><rect x="21" y="16" width="1" height="1" fill="#3A3841"></rect><rect x="22" y="16" width="1" height="1" fill="#444347"></rect><rect x="8" y="17" width="1" height="1" fill="#7C7DB2"></rect><rect x="9" y="17" width="1" height="2" fill="#636268"></rect><rect x="12" y="17" width="1" height="1" fill="#383444"></rect><rect x="13" y="17" width="1" height="2" fill="#B0B0D8"></rect><rect x="14" y="17" width="1" height="1" fill="#7C7B81"></rect><rect x="16" y="17" width="1" height="1" fill="#444347"></rect><rect x="17" y="17" width="1" height="2" fill="#1D1A27"></rect><rect x="18" y="17" width="2" height="1" fill="#3A3841"></rect><rect x="20" y="17" width="1" height="1" fill="#444347"></rect><rect x="21" y="17" width="2" height="1" fill="#383444"></rect><rect x="7" y="18" width="1" height="2" fill="#000000"></rect><rect x="8" y="18" width="1" height="2" fill="#B0B0D8"></rect><rect x="10" y="18" width="1" height="1" fill="#444347"></rect><rect x="12" y="18" width="1" height="1" fill="#1D1A27"></rect><rect x="14" y="18" width="2" height="1" fill="#B0B0D8"></rect><rect x="16" y="18" width="1" height="1" fill="#7C7B81"></rect><rect x="18" y="18" width="1" height="1" fill="#444347"></rect><rect x="19" y="18" width="2" height="2" fill="#636268"></rect><rect x="21" y="18" width="1" height="2" fill="#444347"></rect><rect x="22" y="18" width="1" height="2" fill="#636268"></rect><rect x="23" y="18" width="1" height="2" fill="#000000"></rect><rect x="9" y="19" width="2" height="1" fill="#1D1A27"></rect><rect x="11" y="19" width="1" height="3" fill="#636268"></rect><rect x="12" y="19" width="1" height="1" fill="#444347"></rect><rect x="13" y="19" width="1" height="1" fill="#1D1A27"></rect><rect x="14" y="19" width="3" height="1" fill="#383444"></rect><rect x="17" y="19" width="1" height="2" fill="#7C7B81"></rect><rect x="18" y="19" width="1" height="1" fill="#636268"></rect><rect x="8" y="20" width="1" height="1" fill="#000000"></rect><rect x="9" y="20" width="1" height="1" fill="#B0B0D8"></rect><rect x="10" y="20" width="1" height="1" fill="#444347"></rect><rect x="12" y="20" width="2" height="2" fill="#7C7B81"></rect><rect x="14" y="20" width="1" height="1" fill="#636268"></rect><rect x="15" y="20" width="1" height="1" fill="#444347"></rect><rect x="16" y="20" width="1" height="2" fill="#383444"></rect><rect x="18" y="20" width="1" height="2" fill="#7C7B81"></rect><rect x="19" y="20" width="1" height="1" fill="#636268"></rect><rect x="20" y="20" width="1" height="1" fill="#444347"></rect><rect x="21" y="20" width="1" height="1" fill="#636268"></rect><rect x="22" y="20" width="1" height="1" fill="#000000"></rect><rect x="9" y="21" width="1" height="1" fill="#000000"></rect><rect x="10" y="21" width="1" height="1" fill="#B0B0D8"></rect><rect x="14" y="21" width="1" height="2" fill="#7C7B81"></rect><rect x="15" y="21" width="1" height="3" fill="#636268"></rect><rect x="17" y="21" width="1" height="1" fill="#3A3841"></rect><rect x="19" y="21" width="1" height="2" fill="#7C7B81"></rect><rect x="20" y="21" width="1" height="1" fill="#636268"></rect><rect x="21" y="21" width="1" height="1" fill="#000000"></rect><rect x="10" y="22" width="1" height="1" fill="#000000"></rect><rect x="11" y="22" width="1" height="1" fill="#B0B0D8"></rect><rect x="12" y="22" width="1" height="1" fill="#636268"></rect><rect x="13" y="22" width="1" height="1" fill="#7C7B81"></rect><rect x="16" y="22" width="1" height="2" fill="#444347"></rect><rect x="17" y="22" width="1" height="2" fill="#383444"></rect><rect x="18" y="22" width="1" height="1" fill="#3A3841"></rect><rect x="20" y="22" width="1" height="1" fill="#000000"></rect><rect x="11" y="23" width="1" height="1" fill="#000000"></rect><rect x="12" y="23" width="2" height="1" fill="#B0B0D8"></rect><rect x="14" y="23" width="1" height="1" fill="#636268"></rect><rect x="18" y="23" width="1" height="1" fill="#636268"></rect><rect x="19" y="23" width="1" height="1" fill="#000000"></rect><rect x="12" y="24" width="2" height="1" fill="#000000"></rect><rect x="14" y="24" width="2" height="1" fill="#B0B0D8"></rect><rect x="16" y="24" width="1" height="1" fill="#636268"></rect><rect x="17" y="24" width="2" height="1" fill="#000000"></rect><rect x="14" y="25" width="3" height="1" fill="#000000"></rect></svg>
