<svg width="32" height="32" viewBox="0 0 32 32" fill="none" xmlns="http://www.w3.org/2000/svg" shape-rendering="crispEdges"><rect x="11" y="5" width="11" height="1" fill="#000000"></rect><rect x="10" y="6" width="1" height="1" fill="#000000"></rect><rect x="11" y="6" width="8" height="1" fill="#FFFFFF"></rect><rect x="19" y="6" width="3" height="1" fill="#95B4B7"></rect><rect x="22" y="6" width="1" height="1" fill="#000000"></rect><rect x="9" y="7" width="1" height="4" fill="#000000"></rect><rect x="10" y="7" width="3" height="1" fill="#FFFFFF"></rect><rect x="13" y="7" width="4" height="1" fill="#000000"></rect><rect x="17" y="7" width="3" height="1" fill="#FFFFFF"></rect><rect x="20" y="7" width="3" height="3" fill="#95B4B7"></rect><rect x="23" y="7" width="1" height="3" fill="#000000"></rect><rect x="25" y="7" width="1" height="1" fill="#000000"></rect><rect x="10" y="8" width="2" height="2" fill="#FFFFFF"></rect><rect x="12" y="8" width="1" height="3" fill="#000000"></rect><rect x="17" y="8" width="1" height="3" fill="#000000"></rect><rect x="18" y="8" width="2" height="2" fill="#FFFFFF"></rect><rect x="24" y="8" width="1" height="1" fill="#000000"></rect><rect x="25" y="8" width="1" height="7" fill="#189726"></rect><rect x="26" y="8" width="1" height="1" fill="#000000"></rect><rect x="24" y="9" width="1" height="6" fill="#189726"></rect><rect x="26" y="9" width="1" height="6" fill="#189726"></rect><rect x="27" y="9" width="1" height="1" fill="#000000"></rect><rect x="7" y="10" width="2" height="1" fill="#000000"></rect><rect x="10" y="10" width="2" height="1" fill="#4D6264"></rect><rect x="13" y="10" width="4" height="1" fill="#000000"></rect><rect x="18" y="10" width="2" height="1" fill="#4D6264"></rect><rect x="20" y="10" width="3" height="1" fill="#000000"></rect><rect x="23" y="10" width="1" height="2" fill="#189726"></rect><rect x="27" y="10" width="1" height="2" fill="#189726"></rect><rect x="28" y="10" width="1" height="1" fill="#000000"></rect><rect x="6" y="11" width="1" height="1" fill="#000000"></rect><rect x="7" y="11" width="14" height="2" fill="#FFFFFF"></rect><rect x="21" y="11" width="1" height="2" fill="#000000"></rect><rect x="22" y="11" width="1" height="2" fill="#0A5612"></rect><rect x="28" y="11" width="1" height="2" fill="#0A5612"></rect><rect x="29" y="11" width="1" height="2" fill="#000000"></rect><rect x="5" y="12" width="1" height="11" fill="#000000"></rect><rect x="6" y="12" width="1" height="10" fill="#FFFFFF"></rect><rect x="23" y="12" width="1" height="1" fill="#0A5612"></rect><rect x="27" y="12" width="1" height="1" fill="#0A5612"></rect><rect x="7" y="13" width="5" height="2" fill="#FFFFFF"></rect><rect x="12" y="13" width="4" height="8" fill="#D32A2A"></rect><rect x="16" y="13" width="6" height="2" fill="#FFFFFF"></rect><rect x="22" y="13" width="2" height="1" fill="#000000"></rect><rect x="27" y="13" width="2" height="1" fill="#000000"></rect><rect x="22" y="14" width="1" height="8" fill="#FFFFFF"></rect><rect x="23" y="14" width="1" height="3" fill="#000000"></rect><rect x="27" y="14" width="1" height="9" fill="#000000"></rect><rect x="7" y="15" width="3" height="7" fill="#FFFFFF"></rect><rect x="10" y="15" width="2" height="4" fill="#D32A2A"></rect><rect x="16" y="15" width="2" height="4" fill="#D32A2A"></rect><rect x="18" y="15" width="4" height="7" fill="#FFFFFF"></rect><rect x="24" y="15" width="3" height="1" fill="#0A5612"></rect><rect x="24" y="16" width="3" height="1" fill="#000000"></rect><rect x="23" y="17" width="4" height="5" fill="#95B4B7"></rect><rect x="10" y="19" width="2" height="3" fill="#FFFFFF"></rect><rect x="16" y="19" width="2" height="3" fill="#FFFFFF"></rect><rect x="12" y="21" width="4" height="1" fill="#FFFFFF"></rect><rect x="6" y="22" width="2" height="1" fill="#000000"></rect><rect x="8" y="22" width="15" height="1" fill="#4D6264"></rect><rect x="23" y="22" width="4" height="1" fill="#000000"></rect><rect x="7" y="23" width="1" height="4" fill="#000000"></rect><rect x="8" y="23" width="17" height="1" fill="#95B4B7"></rect><rect x="25" y="23" width="1" height="4" fill="#000000"></rect><rect x="8" y="24" width="13" height="2" fill="#FFFFFF"></rect><rect x="21" y="24" width="4" height="2" fill="#95B4B7"></rect><rect x="8" y="26" width="17" height="1" fill="#000000"></rect></svg>
