<svg width="32" height="32" viewBox="0 0 32 32" fill="none" xmlns="http://www.w3.org/2000/svg" shape-rendering="crispEdges"><rect x="11" y="4" width="2" height="1" fill="#000000"></rect><rect x="19" y="4" width="2" height="1" fill="#000000"></rect><rect x="10" y="5" width="1" height="1" fill="#000000"></rect><rect x="11" y="5" width="1" height="5" fill="#22211F"></rect><rect x="12" y="5" width="1" height="3" fill="#000000"></rect><rect x="19" y="5" width="1" height="3" fill="#000000"></rect><rect x="20" y="5" width="1" height="11" fill="#22211F"></rect><rect x="21" y="5" width="1" height="1" fill="#000000"></rect><rect x="9" y="6" width="1" height="1" fill="#000000"></rect><rect x="10" y="6" width="1" height="4" fill="#22211F"></rect><rect x="21" y="6" width="1" height="10" fill="#22211F"></rect><rect x="22" y="6" width="1" height="1" fill="#000000"></rect><rect x="8" y="7" width="1" height="1" fill="#000000"></rect><rect x="9" y="7" width="1" height="3" fill="#22211F"></rect><rect x="22" y="7" width="1" height="9" fill="#22211F"></rect><rect x="23" y="7" width="1" height="1" fill="#000000"></rect><rect x="7" y="8" width="1" height="1" fill="#000000"></rect><rect x="8" y="8" width="1" height="2" fill="#22211F"></rect><rect x="12" y="8" width="1" height="3" fill="#22211F"></rect><rect x="13" y="8" width="1" height="3" fill="#000000"></rect><rect x="18" y="8" width="1" height="3" fill="#000000"></rect><rect x="19" y="8" width="1" height="9" fill="#22211F"></rect><rect x="23" y="8" width="1" height="9" fill="#22211F"></rect><rect x="24" y="8" width="1" height="1" fill="#000000"></rect><rect x="6" y="9" width="1" height="2" fill="#000000"></rect><rect x="7" y="9" width="1" height="2" fill="#22211F"></rect><rect x="24" y="9" width="1" height="14" fill="#22211F"></rect><rect x="25" y="9" width="1" height="2" fill="#000000"></rect><rect x="8" y="10" width="4" height="5" fill="#3B3A39"></rect><rect x="5" y="11" width="1" height="2" fill="#000000"></rect><rect x="6" y="11" width="1" height="13" fill="#22211F"></rect><rect x="7" y="11" width="1" height="4" fill="#3B3A39"></rect><rect x="12" y="11" width="1" height="3" fill="#3B3A39"></rect><rect x="13" y="11" width="1" height="11" fill="#22211F"></rect><rect x="14" y="11" width="1" height="2" fill="#000000"></rect><rect x="17" y="11" width="1" height="2" fill="#000000"></rect><rect x="18" y="11" width="1" height="11" fill="#22211F"></rect><rect x="25" y="11" width="1" height="12" fill="#22211F"></rect><rect x="26" y="11" width="1" height="2" fill="#000000"></rect><rect x="15" y="12" width="2" height="1" fill="#000000"></rect><rect x="4" y="13" width="1" height="3" fill="#000000"></rect><rect x="5" y="13" width="1" height="10" fill="#22211F"></rect><rect x="14" y="13" width="4" height="9" fill="#22211F"></rect><rect x="26" y="13" width="1" height="9" fill="#22211F"></rect><rect x="27" y="13" width="1" height="3" fill="#000000"></rect><rect x="12" y="14" width="1" height="3" fill="#22211F"></rect><rect x="7" y="15" width="1" height="9" fill="#22211F"></rect><rect x="8" y="15" width="3" height="1" fill="#3B3A39"></rect><rect x="11" y="15" width="1" height="1" fill="#22211F"></rect><rect x="3" y="16" width="1" height="6" fill="#000000"></rect><rect x="4" y="16" width="1" height="6" fill="#22211F"></rect><rect x="8" y="16" width="1" height="1" fill="#22211F"></rect><rect x="9" y="16" width="3" height="4" fill="#FFF0D3"></rect><rect x="20" y="16" width="3" height="4" fill="#FFF0D3"></rect><rect x="27" y="16" width="1" height="4" fill="#343230"></rect><rect x="28" y="16" width="1" height="6" fill="#000000"></rect><rect x="8" y="17" width="1" height="3" fill="#FFB017"></rect><rect x="12" y="17" width="1" height="3" fill="#FFB017"></rect><rect x="19" y="17" width="1" height="3" fill="#FFB017"></rect><rect x="23" y="17" width="1" height="3" fill="#FFB017"></rect><rect x="8" y="20" width="1" height="5" fill="#22211F"></rect><rect x="9" y="20" width="3" height="1" fill="#FFB017"></rect><rect x="12" y="20" width="1" height="2" fill="#22211F"></rect><rect x="19" y="20" width="1" height="2" fill="#22211F"></rect><rect x="20" y="20" width="3" height="1" fill="#FFB017"></rect><rect x="23" y="20" width="1" height="4" fill="#22211F"></rect><rect x="27" y="20" width="1" height="1" fill="#664B17"></rect><rect x="9" y="21" width="3" height="1" fill="#22211F"></rect><rect x="20" y="21" width="3" height="1" fill="#22211F"></rect><rect x="27" y="21" width="1" height="1" fill="#FFB017"></rect><rect x="4" y="22" width="1" height="1" fill="#000000"></rect><rect x="9" y="22" width="2" height="3" fill="#22211F"></rect><rect x="11" y="22" width="1" height="1" fill="#99573F"></rect><rect x="12" y="22" width="1" height="1" fill="#FFB017"></rect><rect x="13" y="22" width="6" height="1" fill="#FFF0D3"></rect><rect x="19" y="22" width="1" height="1" fill="#FFB017"></rect><rect x="20" y="22" width="1" height="1" fill="#99573F"></rect><rect x="21" y="22" width="2" height="2" fill="#22211F"></rect><rect x="26" y="22" width="1" height="1" fill="#FFB017"></rect><rect x="27" y="22" width="1" height="1" fill="#000000"></rect><rect x="5" y="23" width="1" height="1" fill="#000000"></rect><rect x="11" y="23" width="1" height="3" fill="#22211F"></rect><rect x="12" y="23" width="1" height="1" fill="#99573F"></rect><rect x="13" y="23" width="1" height="1" fill="#FFB017"></rect><rect x="14" y="23" width="4" height="1" fill="#FFF0D3"></rect><rect x="18" y="23" width="1" height="1" fill="#FFB017"></rect><rect x="19" y="23" width="1" height="1" fill="#99573F"></rect><rect x="20" y="23" width="1" height="2" fill="#22211F"></rect><rect x="24" y="23" width="2" height="1" fill="#664B17"></rect><rect x="26" y="23" width="1" height="1" fill="#000000"></rect><rect x="6" y="24" width="2" height="1" fill="#000000"></rect><rect x="12" y="24" width="8" height="1" fill="#22211F"></rect><rect x="21" y="24" width="3" height="1" fill="#343230"></rect><rect x="24" y="24" width="2" height="1" fill="#000000"></rect><rect x="8" y="25" width="3" height="1" fill="#000000"></rect><rect x="12" y="25" width="6" height="1" fill="#22211F"></rect><rect x="18" y="25" width="3" height="1" fill="#343230"></rect><rect x="21" y="25" width="3" height="1" fill="#000000"></rect><rect x="11" y="26" width="3" height="1" fill="#000000"></rect><rect x="14" y="26" width="4" height="1" fill="#343230"></rect><rect x="18" y="26" width="3" height="1" fill="#000000"></rect><rect x="14" y="27" width="4" height="1" fill="#000000"></rect><rect x="22" y="31" width="4" height="1" fill="#000000"></rect></svg>
