<svg width="32" height="32" viewBox="0 0 32 32" fill="none" xmlns="http://www.w3.org/2000/svg" shape-rendering="crispEdges"><rect x="10" y="3" width="4" height="1" fill="#000000"></rect><rect x="17" y="3" width="4" height="1" fill="#000000"></rect><rect x="9" y="4" width="1" height="2" fill="#000000"></rect><rect x="10" y="4" width="3" height="2" fill="#31CD42"></rect><rect x="13" y="4" width="1" height="4" fill="#189726"></rect><rect x="14" y="4" width="1" height="2" fill="#000000"></rect><rect x="16" y="4" width="1" height="2" fill="#000000"></rect><rect x="17" y="4" width="3" height="2" fill="#31CD42"></rect><rect x="20" y="4" width="1" height="2" fill="#189726"></rect><rect x="21" y="4" width="1" height="2" fill="#000000"></rect><rect x="8" y="5" width="1" height="1" fill="#000000"></rect><rect x="22" y="5" width="1" height="1" fill="#000000"></rect><rect x="7" y="6" width="1" height="1" fill="#000000"></rect><rect x="8" y="6" width="2" height="1" fill="#189726"></rect><rect x="10" y="6" width="1" height="1" fill="#0A5612"></rect><rect x="11" y="6" width="2" height="1" fill="#189726"></rect><rect x="14" y="6" width="1" height="4" fill="#0A5612"></rect><rect x="15" y="6" width="1" height="1" fill="#000000"></rect><rect x="16" y="6" width="1" height="4" fill="#0A5612"></rect><rect x="17" y="6" width="3" height="1" fill="#189726"></rect><rect x="20" y="6" width="1" height="1" fill="#0A5612"></rect><rect x="21" y="6" width="2" height="5" fill="#189726"></rect><rect x="23" y="6" width="1" height="1" fill="#000000"></rect><rect x="6" y="7" width="1" height="4" fill="#000000"></rect><rect x="7" y="7" width="1" height="3" fill="#189726"></rect><rect x="8" y="7" width="2" height="2" fill="#31CD42"></rect><rect x="10" y="7" width="1" height="4" fill="#189726"></rect><rect x="11" y="7" width="1" height="1" fill="#0A5612"></rect><rect x="12" y="7" width="1" height="1" fill="#189726"></rect><rect x="15" y="7" width="1" height="3" fill="#032407"></rect><rect x="17" y="7" width="2" height="1" fill="#189726"></rect><rect x="19" y="7" width="1" height="1" fill="#0A5612"></rect><rect x="20" y="7" width="1" height="4" fill="#189726"></rect><rect x="23" y="7" width="1" height="3" fill="#189726"></rect><rect x="24" y="7" width="1" height="4" fill="#000000"></rect><rect x="11" y="8" width="1" height="2" fill="#189726"></rect><rect x="12" y="8" width="1" height="1" fill="#032407"></rect><rect x="13" y="8" width="1" height="1" fill="#0A5612"></rect><rect x="17" y="8" width="1" height="1" fill="#0A5612"></rect><rect x="18" y="8" width="1" height="1" fill="#032407"></rect><rect x="19" y="8" width="1" height="2" fill="#189726"></rect><rect x="8" y="9" width="2" height="2" fill="#189726"></rect><rect x="12" y="9" width="1" height="3" fill="#0A5612"></rect><rect x="13" y="9" width="1" height="3" fill="#032407"></rect><rect x="17" y="9" width="1" height="3" fill="#032407"></rect><rect x="18" y="9" width="1" height="3" fill="#0A5612"></rect><rect x="7" y="10" width="1" height="1" fill="#0A5612"></rect><rect x="11" y="10" width="1" height="2" fill="#0A5612"></rect><rect x="14" y="10" width="1" height="1" fill="#032407"></rect><rect x="16" y="10" width="1" height="1" fill="#032407"></rect><rect x="19" y="10" width="1" height="2" fill="#0A5612"></rect><rect x="23" y="10" width="1" height="1" fill="#0A5612"></rect><rect x="7" y="11" width="2" height="1" fill="#000000"></rect><rect x="9" y="11" width="2" height="1" fill="#0A5612"></rect><rect x="20" y="11" width="2" height="1" fill="#0A5612"></rect><rect x="22" y="11" width="2" height="1" fill="#000000"></rect><rect x="9" y="12" width="2" height="1" fill="#000000"></rect><rect x="11" y="12" width="2" height="1" fill="#032407"></rect><rect x="14" y="12" width="2" height="1" fill="#000000"></rect><rect x="18" y="12" width="2" height="1" fill="#032407"></rect><rect x="20" y="12" width="2" height="1" fill="#000000"></rect><rect x="7" y="13" width="2" height="1" fill="#000000"></rect><rect x="9" y="13" width="4" height="1" fill="#0A5612"></rect><rect x="13" y="13" width="1" height="3" fill="#032407"></rect><rect x="14" y="13" width="2" height="1" fill="#0A5612"></rect><rect x="16" y="13" width="1" height="1" fill="#000000"></rect><rect x="17" y="13" width="1" height="3" fill="#032407"></rect><rect x="18" y="13" width="4" height="1" fill="#0A5612"></rect><rect x="22" y="13" width="2" height="1" fill="#000000"></rect><rect x="6" y="14" width="1" height="4" fill="#000000"></rect><rect x="7" y="14" width="1" height="1" fill="#0A5612"></rect><rect x="8" y="14" width="3" height="3" fill="#31CD42"></rect><rect x="11" y="14" width="2" height="1" fill="#0A5612"></rect><rect x="14" y="14" width="1" height="1" fill="#032407"></rect><rect x="15" y="14" width="1" height="1" fill="#0A5612"></rect><rect x="16" y="14" width="1" height="1" fill="#032407"></rect><rect x="18" y="14" width="2" height="1" fill="#0A5612"></rect><rect x="20" y="14" width="2" height="2" fill="#31CD42"></rect><rect x="22" y="14" width="1" height="5" fill="#189726"></rect><rect x="23" y="14" width="1" height="1" fill="#0A5612"></rect><rect x="24" y="14" width="1" height="4" fill="#000000"></rect><rect x="7" y="15" width="1" height="3" fill="#189726"></rect><rect x="11" y="15" width="1" height="2" fill="#189726"></rect><rect x="12" y="15" width="1" height="1" fill="#0A5612"></rect><rect x="14" y="15" width="1" height="4" fill="#0A5612"></rect><rect x="15" y="15" width="1" height="3" fill="#032407"></rect><rect x="16" y="15" width="1" height="4" fill="#0A5612"></rect><rect x="18" y="15" width="1" height="1" fill="#0A5612"></rect><rect x="19" y="15" width="1" height="2" fill="#189726"></rect><rect x="23" y="15" width="1" height="3" fill="#189726"></rect><rect x="12" y="16" width="1" height="1" fill="#032407"></rect><rect x="13" y="16" width="1" height="1" fill="#0A5612"></rect><rect x="17" y="16" width="1" height="1" fill="#0A5612"></rect><rect x="18" y="16" width="1" height="1" fill="#032407"></rect><rect x="20" y="16" width="2" height="2" fill="#189726"></rect><rect x="8" y="17" width="3" height="1" fill="#189726"></rect><rect x="11" y="17" width="1" height="1" fill="#0A5612"></rect><rect x="12" y="17" width="2" height="4" fill="#189726"></rect><rect x="17" y="17" width="2" height="4" fill="#189726"></rect><rect x="19" y="17" width="1" height="1" fill="#0A5612"></rect><rect x="7" y="18" width="1" height="1" fill="#000000"></rect><rect x="8" y="18" width="2" height="1" fill="#189726"></rect><rect x="10" y="18" width="1" height="1" fill="#0A5612"></rect><rect x="11" y="18" width="1" height="3" fill="#189726"></rect><rect x="15" y="18" width="1" height="1" fill="#000000"></rect><rect x="19" y="18" width="1" height="3" fill="#189726"></rect><rect x="20" y="18" width="1" height="1" fill="#0A5612"></rect><rect x="21" y="18" width="1" height="1" fill="#189726"></rect><rect x="23" y="18" width="1" height="1" fill="#000000"></rect><rect x="8" y="19" width="2" height="1" fill="#000000"></rect><rect x="10" y="19" width="1" height="2" fill="#189726"></rect><rect x="14" y="19" width="1" height="3" fill="#000000"></rect><rect x="15" y="19" width="1" height="3" fill="#0A5612"></rect><rect x="16" y="19" width="1" height="3" fill="#000000"></rect><rect x="20" y="19" width="1" height="2" fill="#189726"></rect><rect x="21" y="19" width="2" height="1" fill="#000000"></rect><rect x="9" y="20" width="1" height="1" fill="#000000"></rect><rect x="21" y="20" width="1" height="1" fill="#000000"></rect><rect x="10" y="21" width="4" height="1" fill="#000000"></rect><rect x="17" y="21" width="4" height="1" fill="#000000"></rect><rect x="13" y="22" width="1" height="2" fill="#000000"></rect><rect x="14" y="22" width="1" height="2" fill="#189726"></rect><rect x="15" y="22" width="1" height="2" fill="#000000"></rect><rect x="12" y="24" width="1" height="1" fill="#000000"></rect><rect x="13" y="24" width="1" height="1" fill="#189726"></rect><rect x="14" y="24" width="1" height="1" fill="#000000"></rect><rect x="11" y="25" width="1" height="2" fill="#000000"></rect><rect x="12" y="25" width="1" height="1" fill="#189726"></rect><rect x="13" y="25" width="1" height="1" fill="#000000"></rect><rect x="12" y="26" width="1" height="1" fill="#000000"></rect></svg>
