<svg width="32" height="32" viewBox="0 0 32 32" fill="none" xmlns="http://www.w3.org/2000/svg" shape-rendering="crispEdges"><rect x="8" y="7" width="5" height="1" fill="#000000"></rect><rect x="19" y="7" width="5" height="1" fill="#000000"></rect><rect x="7" y="8" width="1" height="11" fill="#000000"></rect><rect x="8" y="8" width="3" height="1" fill="#B4B3B7"></rect><rect x="11" y="8" width="2" height="1" fill="#C8E9F8"></rect><rect x="13" y="8" width="1" height="9" fill="#000000"></rect><rect x="18" y="8" width="1" height="9" fill="#000000"></rect><rect x="19" y="8" width="3" height="1" fill="#B4B3B7"></rect><rect x="22" y="8" width="2" height="1" fill="#C8E9F8"></rect><rect x="24" y="8" width="1" height="11" fill="#000000"></rect><rect x="8" y="9" width="1" height="1" fill="#000000"></rect><rect x="9" y="9" width="2" height="1" fill="#8B182C"></rect><rect x="11" y="9" width="1" height="1" fill="#530815"></rect><rect x="12" y="9" width="1" height="1" fill="#000000"></rect><rect x="19" y="9" width="1" height="1" fill="#000000"></rect><rect x="20" y="9" width="2" height="1" fill="#8B182C"></rect><rect x="22" y="9" width="1" height="1" fill="#530815"></rect><rect x="23" y="9" width="1" height="1" fill="#000000"></rect><rect x="8" y="10" width="3" height="8" fill="#D32A2A"></rect><rect x="11" y="10" width="1" height="8" fill="#8B182C"></rect><rect x="12" y="10" width="1" height="1" fill="#530815"></rect><rect x="19" y="10" width="3" height="9" fill="#D32A2A"></rect><rect x="22" y="10" width="1" height="10" fill="#8B182C"></rect><rect x="23" y="10" width="1" height="1" fill="#530815"></rect><rect x="12" y="11" width="1" height="8" fill="#8B182C"></rect><rect x="23" y="11" width="1" height="8" fill="#8B182C"></rect><rect x="13" y="17" width="1" height="1" fill="#530815"></rect><rect x="14" y="17" width="4" height="1" fill="#000000"></rect><rect x="18" y="17" width="1" height="1" fill="#8B182C"></rect><rect x="8" y="18" width="1" height="1" fill="#8B182C"></rect><rect x="9" y="18" width="3" height="2" fill="#D32A2A"></rect><rect x="13" y="18" width="5" height="1" fill="#8B182C"></rect><rect x="18" y="18" width="1" height="3" fill="#D32A2A"></rect><rect x="8" y="19" width="1" height="2" fill="#000000"></rect><rect x="12" y="19" width="6" height="2" fill="#D32A2A"></rect><rect x="19" y="19" width="2" height="1" fill="#D32A2A"></rect><rect x="21" y="19" width="1" height="2" fill="#8B182C"></rect><rect x="23" y="19" width="1" height="2" fill="#000000"></rect><rect x="9" y="20" width="1" height="1" fill="#8B182C"></rect><rect x="10" y="20" width="2" height="1" fill="#D32A2A"></rect><rect x="19" y="20" width="1" height="1" fill="#D32A2A"></rect><rect x="20" y="20" width="1" height="2" fill="#8B182C"></rect><rect x="22" y="20" width="1" height="1" fill="#530815"></rect><rect x="9" y="21" width="1" height="1" fill="#000000"></rect><rect x="10" y="21" width="10" height="1" fill="#8B182C"></rect><rect x="21" y="21" width="1" height="1" fill="#530815"></rect><rect x="22" y="21" width="1" height="1" fill="#000000"></rect><rect x="10" y="22" width="2" height="1" fill="#000000"></rect><rect x="12" y="22" width="1" height="1" fill="#530815"></rect><rect x="13" y="22" width="6" height="1" fill="#8B182C"></rect><rect x="19" y="22" width="1" height="1" fill="#530815"></rect><rect x="20" y="22" width="2" height="1" fill="#000000"></rect><rect x="12" y="23" width="8" height="1" fill="#000000"></rect></svg>
