<svg width="32" height="32" viewBox="0 0 32 32" fill="none" xmlns="http://www.w3.org/2000/svg" shape-rendering="crispEdges"><rect x="10" y="0" width="4" height="1" fill="#000000"></rect><rect x="17" y="0" width="4" height="1" fill="#000000"></rect><rect x="9" y="1" width="1" height="2" fill="#000000"></rect><rect x="10" y="1" width="1" height="1" fill="#0A5612"></rect><rect x="11" y="1" width="3" height="1" fill="#189726"></rect><rect x="14" y="1" width="1" height="1" fill="#000000"></rect><rect x="16" y="1" width="1" height="1" fill="#000000"></rect><rect x="17" y="1" width="3" height="1" fill="#189726"></rect><rect x="20" y="1" width="1" height="1" fill="#0A5612"></rect><rect x="21" y="1" width="1" height="2" fill="#000000"></rect><rect x="10" y="2" width="1" height="1" fill="#189726"></rect><rect x="11" y="2" width="1" height="1" fill="#0A5612"></rect><rect x="12" y="2" width="2" height="1" fill="#000000"></rect><rect x="14" y="2" width="1" height="1" fill="#189726"></rect><rect x="15" y="2" width="1" height="1" fill="#000000"></rect><rect x="16" y="2" width="1" height="1" fill="#189726"></rect><rect x="17" y="2" width="2" height="1" fill="#000000"></rect><rect x="19" y="2" width="1" height="1" fill="#0A5612"></rect><rect x="20" y="2" width="1" height="1" fill="#189726"></rect><rect x="10" y="3" width="2" height="1" fill="#000000"></rect><rect x="14" y="3" width="1" height="1" fill="#000000"></rect><rect x="15" y="3" width="1" height="1" fill="#0A5612"></rect><rect x="16" y="3" width="1" height="1" fill="#000000"></rect><rect x="19" y="3" width="2" height="1" fill="#000000"></rect><rect x="13" y="4" width="1" height="2" fill="#000000"></rect><rect x="14" y="4" width="3" height="1" fill="#189726"></rect><rect x="17" y="4" width="1" height="2" fill="#000000"></rect><rect x="12" y="5" width="1" height="1" fill="#000000"></rect><rect x="14" y="5" width="3" height="1" fill="#000000"></rect><rect x="18" y="5" width="1" height="1" fill="#000000"></rect><rect x="8" y="6" width="4" height="1" fill="#000000"></rect><rect x="12" y="6" width="2" height="1" fill="#0A5612"></rect><rect x="14" y="6" width="3" height="1" fill="#189726"></rect><rect x="17" y="6" width="2" height="1" fill="#0A5612"></rect><rect x="19" y="6" width="4" height="1" fill="#000000"></rect><rect x="7" y="7" width="1" height="1" fill="#000000"></rect><rect x="8" y="7" width="3" height="2" fill="#83C56D"></rect><rect x="11" y="7" width="2" height="1" fill="#000000"></rect><rect x="13" y="7" width="5" height="1" fill="#0A5612"></rect><rect x="18" y="7" width="2" height="1" fill="#000000"></rect><rect x="20" y="7" width="3" height="2" fill="#83C56D"></rect><rect x="23" y="7" width="1" height="1" fill="#000000"></rect><rect x="6" y="8" width="1" height="4" fill="#000000"></rect><rect x="7" y="8" width="1" height="2" fill="#83C56D"></rect><rect x="11" y="8" width="1" height="1" fill="#83C56D"></rect><rect x="12" y="8" width="1" height="1" fill="#189726"></rect><rect x="13" y="8" width="5" height="1" fill="#000000"></rect><rect x="18" y="8" width="1" height="1" fill="#189726"></rect><rect x="19" y="8" width="1" height="1" fill="#83C56D"></rect><rect x="23" y="8" width="1" height="2" fill="#83C56D"></rect><rect x="24" y="8" width="1" height="4" fill="#000000"></rect><rect x="8" y="9" width="1" height="1" fill="#83C56D"></rect><rect x="9" y="9" width="4" height="1" fill="#000000"></rect><rect x="13" y="9" width="2" height="1" fill="#0A5612"></rect><rect x="15" y="9" width="1" height="1" fill="#189726"></rect><rect x="16" y="9" width="2" height="1" fill="#0A5612"></rect><rect x="18" y="9" width="4" height="1" fill="#000000"></rect><rect x="22" y="9" width="1" height="1" fill="#83C56D"></rect><rect x="7" y="10" width="1" height="1" fill="#189726"></rect><rect x="8" y="10" width="1" height="1" fill="#022B07"></rect><rect x="9" y="10" width="1" height="1" fill="#000000"></rect><rect x="13" y="10" width="1" height="2" fill="#000000"></rect><rect x="14" y="10" width="1" height="1" fill="#189726"></rect><rect x="15" y="10" width="1" height="1" fill="#0A5612"></rect><rect x="16" y="10" width="1" height="1" fill="#189726"></rect><rect x="17" y="10" width="1" height="2" fill="#000000"></rect><rect x="21" y="10" width="1" height="1" fill="#000000"></rect><rect x="22" y="10" width="1" height="1" fill="#022B07"></rect><rect x="23" y="10" width="1" height="1" fill="#189726"></rect><rect x="7" y="11" width="1" height="1" fill="#022B07"></rect><rect x="8" y="11" width="1" height="1" fill="#0A5612"></rect><rect x="9" y="11" width="1" height="1" fill="#022B07"></rect><rect x="10" y="11" width="3" height="1" fill="#000000"></rect><rect x="14" y="11" width="1" height="1" fill="#0A5612"></rect><rect x="15" y="11" width="1" height="1" fill="#189726"></rect><rect x="16" y="11" width="1" height="1" fill="#0A5612"></rect><rect x="18" y="11" width="3" height="1" fill="#000000"></rect><rect x="21" y="11" width="1" height="1" fill="#022B07"></rect><rect x="22" y="11" width="1" height="1" fill="#0A5612"></rect><rect x="23" y="11" width="1" height="1" fill="#022B07"></rect><rect x="5" y="12" width="1" height="16" fill="#000000"></rect><rect x="6" y="12" width="1" height="15" fill="#95B4B7"></rect><rect x="7" y="12" width="1" height="1" fill="#000000"></rect><rect x="8" y="12" width="1" height="1" fill="#022B07"></rect><rect x="9" y="12" width="5" height="1" fill="#0A5612"></rect><rect x="14" y="12" width="3" height="1" fill="#000000"></rect><rect x="17" y="12" width="5" height="1" fill="#0A5612"></rect><rect x="22" y="12" width="1" height="1" fill="#022B07"></rect><rect x="23" y="12" width="1" height="1" fill="#000000"></rect><rect x="24" y="12" width="1" height="15" fill="#95B4B7"></rect><rect x="25" y="12" width="1" height="16" fill="#000000"></rect><rect x="7" y="13" width="1" height="14" fill="#EDEDED"></rect><rect x="8" y="13" width="7" height="1" fill="#000000"></rect><rect x="15" y="13" width="1" height="3" fill="#EDEDED"></rect><rect x="16" y="13" width="7" height="1" fill="#000000"></rect><rect x="23" y="13" width="1" height="5" fill="#EDEDED"></rect><rect x="8" y="14" width="3" height="1" fill="#EDEDED"></rect><rect x="11" y="14" width="1" height="1" fill="#000000"></rect><rect x="12" y="14" width="2" height="1" fill="#189726"></rect><rect x="14" y="14" width="1" height="1" fill="#000000"></rect><rect x="16" y="14" width="1" height="1" fill="#000000"></rect><rect x="17" y="14" width="2" height="1" fill="#189726"></rect><rect x="19" y="14" width="1" height="1" fill="#000000"></rect><rect x="20" y="14" width="3" height="2" fill="#EDEDED"></rect><rect x="8" y="15" width="1" height="7" fill="#EDEDED"></rect><rect x="9" y="15" width="1" height="1" fill="#95B4B7"></rect><rect x="10" y="15" width="1" height="8" fill="#EDEDED"></rect><rect x="11" y="15" width="1" height="1" fill="#95B4B7"></rect><rect x="12" y="15" width="2" height="1" fill="#000000"></rect><rect x="14" y="15" width="1" height="2" fill="#EDEDED"></rect><rect x="16" y="15" width="1" height="1" fill="#EDEDED"></rect><rect x="17" y="15" width="2" height="1" fill="#000000"></rect><rect x="19" y="15" width="1" height="2" fill="#EDEDED"></rect><rect x="9" y="16" width="1" height="1" fill="#EDEDED"></rect><rect x="11" y="16" width="3" height="1" fill="#EDEDED"></rect><rect x="15" y="16" width="2" height="4" fill="#FFD231"></rect><rect x="17" y="16" width="2" height="1" fill="#EDEDED"></rect><rect x="20" y="16" width="2" height="4" fill="#FFD231"></rect><rect x="22" y="16" width="1" height="1" fill="#EDEDED"></rect><rect x="9" y="17" width="1" height="1" fill="#95B4B7"></rect><rect x="11" y="17" width="1" height="1" fill="#95B4B7"></rect><rect x="12" y="17" width="2" height="1" fill="#EDEDED"></rect><rect x="14" y="17" width="1" height="3" fill="#FFD231"></rect><rect x="17" y="17" width="1" height="3" fill="#FFD231"></rect><rect x="18" y="17" width="1" height="1" fill="#EDEDED"></rect><rect x="19" y="17" width="1" height="3" fill="#FFD231"></rect><rect x="22" y="17" width="1" height="3" fill="#FFD231"></rect><rect x="9" y="18" width="1" height="1" fill="#EDEDED"></rect><rect x="11" y="18" width="2" height="1" fill="#EDEDED"></rect><rect x="13" y="18" width="1" height="2" fill="#FFD231"></rect><rect x="18" y="18" width="1" height="2" fill="#FFD231"></rect><rect x="23" y="18" width="1" height="2" fill="#FFD231"></rect><rect x="9" y="19" width="1" height="1" fill="#95B4B7"></rect><rect x="11" y="19" width="1" height="1" fill="#95B4B7"></rect><rect x="12" y="19" width="1" height="8" fill="#EDEDED"></rect><rect x="9" y="20" width="1" height="3" fill="#EDEDED"></rect><rect x="11" y="20" width="1" height="2" fill="#EDEDED"></rect><rect x="13" y="20" width="11" height="1" fill="#EEA60B"></rect><rect x="13" y="21" width="1" height="6" fill="#EDEDED"></rect><rect x="14" y="21" width="9" height="1" fill="#FFD231"></rect><rect x="23" y="21" width="1" height="6" fill="#EDEDED"></rect><rect x="8" y="22" width="1" height="2" fill="#95B4B7"></rect><rect x="11" y="22" width="1" height="2" fill="#95B4B7"></rect><rect x="14" y="22" width="1" height="5" fill="#EDEDED"></rect><rect x="15" y="22" width="7" height="1" fill="#EEA60B"></rect><rect x="22" y="22" width="1" height="5" fill="#EDEDED"></rect><rect x="9" y="23" width="2" height="2" fill="#95B4B7"></rect><rect x="15" y="23" width="1" height="4" fill="#EDEDED"></rect><rect x="16" y="23" width="5" height="1" fill="#EEA60B"></rect><rect x="21" y="23" width="1" height="4" fill="#EDEDED"></rect><rect x="8" y="24" width="1" height="3" fill="#EDEDED"></rect><rect x="11" y="24" width="1" height="3" fill="#EDEDED"></rect><rect x="16" y="24" width="1" height="3" fill="#EDEDED"></rect><rect x="17" y="24" width="3" height="1" fill="#EEA60B"></rect><rect x="20" y="24" width="1" height="3" fill="#EDEDED"></rect><rect x="9" y="25" width="2" height="2" fill="#EDEDED"></rect><rect x="17" y="25" width="1" height="2" fill="#EDEDED"></rect><rect x="18" y="25" width="1" height="1" fill="#EEA60B"></rect><rect x="19" y="25" width="1" height="2" fill="#EDEDED"></rect><rect x="18" y="26" width="1" height="1" fill="#EDEDED"></rect><rect x="6" y="27" width="1" height="1" fill="#4D6264"></rect><rect x="7" y="27" width="17" height="1" fill="#95B4B7"></rect><rect x="24" y="27" width="1" height="1" fill="#4D6264"></rect><rect x="6" y="28" width="19" height="1" fill="#000000"></rect></svg>
