<svg width="32" height="32" viewBox="0 0 32 32" fill="none" xmlns="http://www.w3.org/2000/svg" shape-rendering="crispEdges"><rect x="11" y="4" width="9" height="1" fill="#1A121F"></rect><rect x="9" y="5" width="2" height="1" fill="#1A121F"></rect><rect x="11" y="5" width="1" height="1" fill="#8B182C"></rect><rect x="12" y="5" width="7" height="1" fill="#D32A2A"></rect><rect x="19" y="5" width="1" height="1" fill="#8B182C"></rect><rect x="20" y="5" width="2" height="1" fill="#1A121F"></rect><rect x="8" y="6" width="1" height="1" fill="#1A121F"></rect><rect x="9" y="6" width="1" height="1" fill="#8B182C"></rect><rect x="10" y="6" width="2" height="1" fill="#D32A2A"></rect><rect x="12" y="6" width="7" height="5" fill="#F15656"></rect><rect x="19" y="6" width="2" height="1" fill="#D32A2A"></rect><rect x="21" y="6" width="1" height="1" fill="#8B182C"></rect><rect x="22" y="6" width="1" height="1" fill="#1A121F"></rect><rect x="7" y="7" width="1" height="1" fill="#1A121F"></rect><rect x="8" y="7" width="3" height="1" fill="#D32A2A"></rect><rect x="11" y="7" width="1" height="3" fill="#F15656"></rect><rect x="19" y="7" width="1" height="3" fill="#F15656"></rect><rect x="20" y="7" width="3" height="1" fill="#D32A2A"></rect><rect x="23" y="7" width="1" height="1" fill="#1A121F"></rect><rect x="6" y="8" width="1" height="8" fill="#1A121F"></rect><rect x="7" y="8" width="1" height="2" fill="#D32A2A"></rect><rect x="8" y="8" width="1" height="6" fill="#8B182C"></rect><rect x="9" y="8" width="2" height="4" fill="#D32A2A"></rect><rect x="20" y="8" width="2" height="4" fill="#D32A2A"></rect><rect x="22" y="8" width="1" height="6" fill="#8B182C"></rect><rect x="23" y="8" width="1" height="2" fill="#D32A2A"></rect><rect x="24" y="8" width="1" height="8" fill="#1A121F"></rect><rect x="7" y="10" width="1" height="5" fill="#8B182C"></rect><rect x="11" y="10" width="1" height="2" fill="#D32A2A"></rect><rect x="19" y="10" width="1" height="2" fill="#D32A2A"></rect><rect x="23" y="10" width="1" height="5" fill="#8B182C"></rect><rect x="12" y="11" width="7" height="1" fill="#D32A2A"></rect><rect x="9" y="12" width="2" height="1" fill="#500814"></rect><rect x="11" y="12" width="1" height="1" fill="#8B182C"></rect><rect x="12" y="12" width="2" height="1" fill="#D32A2A"></rect><rect x="14" y="12" width="1" height="1" fill="#8B182C"></rect><rect x="15" y="12" width="1" height="2" fill="#D32A2A"></rect><rect x="16" y="12" width="1" height="1" fill="#8B182C"></rect><rect x="17" y="12" width="2" height="1" fill="#D32A2A"></rect><rect x="19" y="12" width="1" height="1" fill="#8B182C"></rect><rect x="20" y="12" width="2" height="1" fill="#500814"></rect><rect x="9" y="13" width="3" height="1" fill="#1A121F"></rect><rect x="12" y="13" width="2" height="1" fill="#500814"></rect><rect x="14" y="13" width="1" height="1" fill="#D32A2A"></rect><rect x="16" y="13" width="1" height="1" fill="#D32A2A"></rect><rect x="17" y="13" width="2" height="1" fill="#500814"></rect><rect x="19" y="13" width="3" height="1" fill="#1A121F"></rect><rect x="8" y="14" width="2" height="2" fill="#1A121F"></rect><rect x="10" y="14" width="1" height="2" fill="#FFFFFF"></rect><rect x="11" y="14" width="2" height="2" fill="#1A121F"></rect><rect x="13" y="14" width="1" height="1" fill="#D32A2A"></rect><rect x="14" y="14" width="1" height="1" fill="#8B182C"></rect><rect x="15" y="14" width="1" height="2" fill="#1A121F"></rect><rect x="16" y="14" width="1" height="1" fill="#8B182C"></rect><rect x="17" y="14" width="1" height="1" fill="#D32A2A"></rect><rect x="18" y="14" width="2" height="2" fill="#1A121F"></rect><rect x="20" y="14" width="1" height="2" fill="#FFFFFF"></rect><rect x="21" y="14" width="2" height="2" fill="#1A121F"></rect><rect x="7" y="15" width="1" height="1" fill="#500814"></rect><rect x="13" y="15" width="1" height="4" fill="#8B182C"></rect><rect x="14" y="15" width="1" height="2" fill="#1A121F"></rect><rect x="16" y="15" width="1" height="2" fill="#1A121F"></rect><rect x="17" y="15" width="1" height="4" fill="#8B182C"></rect><rect x="23" y="15" width="1" height="1" fill="#500814"></rect><rect x="5" y="16" width="1" height="3" fill="#1A121F"></rect><rect x="6" y="16" width="2" height="2" fill="#8B182C"></rect><rect x="8" y="16" width="1" height="1" fill="#500814"></rect><rect x="9" y="16" width="3" height="1" fill="#1A121F"></rect><rect x="12" y="16" width="1" height="1" fill="#8B182C"></rect><rect x="15" y="16" width="1" height="1" fill="#8B182C"></rect><rect x="18" y="16" width="1" height="1" fill="#8B182C"></rect><rect x="19" y="16" width="3" height="1" fill="#1A121F"></rect><rect x="22" y="16" width="1" height="1" fill="#500814"></rect><rect x="23" y="16" width="2" height="2" fill="#8B182C"></rect><rect x="25" y="16" width="1" height="3" fill="#1A121F"></rect><rect x="8" y="17" width="4" height="1" fill="#8B182C"></rect><rect x="12" y="17" width="1" height="1" fill="#500814"></rect><rect x="14" y="17" width="1" height="1" fill="#8B182C"></rect><rect x="15" y="17" width="1" height="1" fill="#500814"></rect><rect x="16" y="17" width="1" height="1" fill="#8B182C"></rect><rect x="18" y="17" width="1" height="1" fill="#500814"></rect><rect x="19" y="17" width="4" height="1" fill="#8B182C"></rect><rect x="6" y="18" width="3" height="2" fill="#1A121F"></rect><rect x="9" y="18" width="1" height="1" fill="#8B182C"></rect><rect x="10" y="18" width="1" height="1" fill="#500814"></rect><rect x="11" y="18" width="1" height="2" fill="#8B182C"></rect><rect x="12" y="18" width="1" height="3" fill="#1A121F"></rect><rect x="14" y="18" width="3" height="2" fill="#1A121F"></rect><rect x="18" y="18" width="1" height="3" fill="#1A121F"></rect><rect x="19" y="18" width="1" height="2" fill="#8B182C"></rect><rect x="20" y="18" width="1" height="1" fill="#500814"></rect><rect x="21" y="18" width="1" height="1" fill="#8B182C"></rect><rect x="22" y="18" width="3" height="2" fill="#1A121F"></rect><rect x="9" y="19" width="2" height="2" fill="#1A121F"></rect><rect x="13" y="19" width="1" height="2" fill="#1A121F"></rect><rect x="17" y="19" width="1" height="2" fill="#1A121F"></rect><rect x="20" y="19" width="2" height="2" fill="#1A121F"></rect><rect x="8" y="20" width="1" height="3" fill="#1A121F"></rect><rect x="11" y="20" width="1" height="1" fill="#1A121F"></rect><rect x="14" y="20" width="1" height="3" fill="#8B182C"></rect><rect x="15" y="20" width="1" height="1" fill="#500814"></rect><rect x="16" y="20" width="1" height="3" fill="#8B182C"></rect><rect x="19" y="20" width="1" height="1" fill="#1A121F"></rect><rect x="22" y="20" width="1" height="3" fill="#1A121F"></rect><rect x="9" y="21" width="1" height="1" fill="#8B182C"></rect><rect x="10" y="21" width="1" height="1" fill="#1A121F"></rect><rect x="11" y="21" width="1" height="1" fill="#500814"></rect><rect x="12" y="21" width="1" height="3" fill="#8B182C"></rect><rect x="13" y="21" width="1" height="1" fill="#500814"></rect><rect x="15" y="21" width="1" height="1" fill="#8B182C"></rect><rect x="17" y="21" width="1" height="1" fill="#500814"></rect><rect x="18" y="21" width="1" height="3" fill="#8B182C"></rect><rect x="19" y="21" width="1" height="1" fill="#500814"></rect><rect x="20" y="21" width="1" height="1" fill="#1A121F"></rect><rect x="21" y="21" width="1" height="1" fill="#8B182C"></rect><rect x="9" y="22" width="1" height="2" fill="#1A121F"></rect><rect x="10" y="22" width="2" height="1" fill="#8B182C"></rect><rect x="13" y="22" width="1" height="1" fill="#8B182C"></rect><rect x="15" y="22" width="1" height="3" fill="#1A121F"></rect><rect x="17" y="22" width="1" height="1" fill="#8B182C"></rect><rect x="19" y="22" width="2" height="1" fill="#8B182C"></rect><rect x="21" y="22" width="1" height="2" fill="#1A121F"></rect><rect x="10" y="23" width="1" height="2" fill="#1A121F"></rect><rect x="11" y="23" width="1" height="1" fill="#8B182C"></rect><rect x="13" y="23" width="2" height="2" fill="#1A121F"></rect><rect x="16" y="23" width="2" height="2" fill="#1A121F"></rect><rect x="19" y="23" width="1" height="1" fill="#8B182C"></rect><rect x="20" y="23" width="1" height="2" fill="#1A121F"></rect><rect x="11" y="24" width="2" height="1" fill="#1A121F"></rect><rect x="18" y="24" width="2" height="1" fill="#1A121F"></rect></svg>
