<svg width="32" height="32" viewBox="0 0 32 32" fill="none" xmlns="http://www.w3.org/2000/svg" shape-rendering="crispEdges"><rect x="7" y="3" width="2" height="1" fill="#000000"></rect><rect x="7" y="4" width="1" height="15" fill="#000000"></rect><rect x="8" y="4" width="1" height="4" fill="#A4F9FF"></rect><rect x="9" y="4" width="1" height="2" fill="#000000"></rect><rect x="9" y="6" width="1" height="3" fill="#A4F9FF"></rect><rect x="10" y="6" width="1" height="2" fill="#000000"></rect><rect x="16" y="7" width="3" height="1" fill="#000000"></rect><rect x="8" y="8" width="1" height="10" fill="#00DCEC"></rect><rect x="10" y="8" width="1" height="2" fill="#A4F9FF"></rect><rect x="11" y="8" width="1" height="1" fill="#000000"></rect><rect x="15" y="8" width="1" height="1" fill="#000000"></rect><rect x="16" y="8" width="2" height="2" fill="#A4F9FF"></rect><rect x="18" y="8" width="1" height="3" fill="#000000"></rect><rect x="9" y="9" width="1" height="8" fill="#00DCEC"></rect><rect x="11" y="9" width="1" height="2" fill="#A4F9FF"></rect><rect x="12" y="9" width="1" height="1" fill="#000000"></rect><rect x="14" y="9" width="1" height="1" fill="#000000"></rect><rect x="15" y="9" width="1" height="2" fill="#A4F9FF"></rect><rect x="10" y="10" width="1" height="6" fill="#00DCEC"></rect><rect x="12" y="10" width="1" height="2" fill="#A4F9FF"></rect><rect x="13" y="10" width="1" height="1" fill="#000000"></rect><rect x="14" y="10" width="1" height="2" fill="#A4F9FF"></rect><rect x="16" y="10" width="1" height="8" fill="#00DCEC"></rect><rect x="17" y="10" width="1" height="2" fill="#A4F9FF"></rect><rect x="11" y="11" width="1" height="4" fill="#00DCEC"></rect><rect x="13" y="11" width="1" height="2" fill="#A4F9FF"></rect><rect x="15" y="11" width="1" height="8" fill="#00DCEC"></rect><rect x="18" y="11" width="1" height="3" fill="#A4F9FF"></rect><rect x="19" y="11" width="1" height="2" fill="#000000"></rect><rect x="12" y="12" width="1" height="4" fill="#00DCEC"></rect><rect x="14" y="12" width="1" height="8" fill="#00DCEC"></rect><rect x="17" y="12" width="1" height="5" fill="#00DCEC"></rect><rect x="22" y="12" width="2" height="1" fill="#000000"></rect><rect x="13" y="13" width="1" height="6" fill="#00DCEC"></rect><rect x="19" y="13" width="1" height="2" fill="#A4F9FF"></rect><rect x="20" y="13" width="2" height="1" fill="#000000"></rect><rect x="22" y="13" width="1" height="4" fill="#4A81E8"></rect><rect x="23" y="13" width="1" height="1" fill="#1E4FA6"></rect><rect x="24" y="13" width="1" height="3" fill="#000000"></rect><rect x="18" y="14" width="1" height="2" fill="#00DCEC"></rect><rect x="20" y="14" width="1" height="1" fill="#000000"></rect><rect x="21" y="14" width="1" height="1" fill="#4A81E8"></rect><rect x="23" y="14" width="1" height="2" fill="#4A81E8"></rect><rect x="11" y="15" width="1" height="1" fill="#000000"></rect><rect x="19" y="15" width="1" height="1" fill="#000000"></rect><rect x="20" y="15" width="2" height="2" fill="#87B0FD"></rect><rect x="10" y="16" width="1" height="1" fill="#000000"></rect><rect x="12" y="16" width="1" height="3" fill="#000000"></rect><rect x="18" y="16" width="1" height="1" fill="#000000"></rect><rect x="19" y="16" width="1" height="3" fill="#87B0FD"></rect><rect x="23" y="16" width="1" height="1" fill="#000000"></rect><rect x="9" y="17" width="1" height="1" fill="#000000"></rect><rect x="17" y="17" width="1" height="1" fill="#000000"></rect><rect x="18" y="17" width="1" height="3" fill="#87B0FD"></rect><rect x="20" y="17" width="1" height="1" fill="#87B0FD"></rect><rect x="21" y="17" width="1" height="1" fill="#4A81E8"></rect><rect x="22" y="17" width="1" height="1" fill="#000000"></rect><rect x="8" y="18" width="1" height="1" fill="#000000"></rect><rect x="16" y="18" width="1" height="1" fill="#000000"></rect><rect x="17" y="18" width="1" height="3" fill="#87B0FD"></rect><rect x="20" y="18" width="1" height="2" fill="#4A81E8"></rect><rect x="21" y="18" width="1" height="1" fill="#000000"></rect><rect x="13" y="19" width="1" height="3" fill="#000000"></rect><rect x="15" y="19" width="1" height="1" fill="#000000"></rect><rect x="16" y="19" width="1" height="3" fill="#87B0FD"></rect><rect x="19" y="19" width="1" height="2" fill="#4A81E8"></rect><rect x="21" y="19" width="1" height="2" fill="#4A81E8"></rect><rect x="22" y="19" width="1" height="1" fill="#000000"></rect><rect x="14" y="20" width="1" height="1" fill="#000000"></rect><rect x="15" y="20" width="1" height="2" fill="#87B0FD"></rect><rect x="18" y="20" width="1" height="1" fill="#4A81E8"></rect><rect x="20" y="20" width="1" height="3" fill="#87B0FD"></rect><rect x="22" y="20" width="1" height="2" fill="#4A81E8"></rect><rect x="23" y="20" width="1" height="1" fill="#000000"></rect><rect x="14" y="21" width="1" height="4" fill="#4A81E8"></rect><rect x="17" y="21" width="1" height="1" fill="#4A81E8"></rect><rect x="18" y="21" width="1" height="1" fill="#000000"></rect><rect x="19" y="21" width="1" height="1" fill="#87B0FD"></rect><rect x="21" y="21" width="1" height="2" fill="#87B0FD"></rect><rect x="23" y="21" width="1" height="1" fill="#1E4FA6"></rect><rect x="24" y="21" width="1" height="2" fill="#000000"></rect><rect x="12" y="22" width="1" height="3" fill="#000000"></rect><rect x="13" y="22" width="1" height="2" fill="#4A81E8"></rect><rect x="15" y="22" width="2" height="1" fill="#4A81E8"></rect><rect x="17" y="22" width="1" height="1" fill="#000000"></rect><rect x="19" y="22" width="1" height="1" fill="#000000"></rect><rect x="22" y="22" width="1" height="1" fill="#87B0FD"></rect><rect x="23" y="22" width="1" height="1" fill="#4A81E8"></rect><rect x="15" y="23" width="1" height="1" fill="#4A81E8"></rect><rect x="16" y="23" width="1" height="1" fill="#000000"></rect><rect x="20" y="23" width="1" height="1" fill="#000000"></rect><rect x="21" y="23" width="2" height="1" fill="#4A81E8"></rect><rect x="23" y="23" width="1" height="1" fill="#000000"></rect><rect x="13" y="24" width="1" height="1" fill="#1E4FA6"></rect><rect x="15" y="24" width="1" height="1" fill="#000000"></rect><rect x="21" y="24" width="2" height="1" fill="#000000"></rect><rect x="13" y="25" width="2" height="1" fill="#000000"></rect></svg>
