<svg width="32" height="32" viewBox="0 0 32 32" fill="none" xmlns="http://www.w3.org/2000/svg" shape-rendering="crispEdges"><rect x="15" y="6" width="10" height="1" fill="#000000"></rect><rect x="12" y="7" width="3" height="1" fill="#000000"></rect><rect x="15" y="7" width="1" height="1" fill="#225508"></rect><rect x="16" y="7" width="1" height="1" fill="#36860E"></rect><rect x="17" y="7" width="5" height="1" fill="#4FA623"></rect><rect x="22" y="7" width="2" height="2" fill="#72E438"></rect><rect x="24" y="7" width="1" height="8" fill="#4FA623"></rect><rect x="25" y="7" width="1" height="10" fill="#000000"></rect><rect x="10" y="8" width="2" height="1" fill="#000000"></rect><rect x="12" y="8" width="1" height="1" fill="#36860E"></rect><rect x="13" y="8" width="1" height="1" fill="#4FA623"></rect><rect x="14" y="8" width="4" height="2" fill="#72E438"></rect><rect x="18" y="8" width="2" height="4" fill="#4FA623"></rect><rect x="20" y="8" width="1" height="2" fill="#36860E"></rect><rect x="21" y="8" width="1" height="3" fill="#4FA623"></rect><rect x="9" y="9" width="1" height="1" fill="#000000"></rect><rect x="10" y="9" width="1" height="1" fill="#36860E"></rect><rect x="11" y="9" width="1" height="1" fill="#4FA623"></rect><rect x="12" y="9" width="2" height="3" fill="#72E438"></rect><rect x="22" y="9" width="2" height="2" fill="#4FA623"></rect><rect x="8" y="10" width="1" height="2" fill="#000000"></rect><rect x="9" y="10" width="1" height="1" fill="#36860E"></rect><rect x="10" y="10" width="1" height="10" fill="#4FA623"></rect><rect x="11" y="10" width="1" height="3" fill="#72E438"></rect><rect x="14" y="10" width="1" height="1" fill="#72E438"></rect><rect x="15" y="10" width="3" height="2" fill="#4FA623"></rect><rect x="20" y="10" width="1" height="2" fill="#225508"></rect><rect x="9" y="11" width="1" height="3" fill="#4FA623"></rect><rect x="14" y="11" width="1" height="6" fill="#4FA623"></rect><rect x="21" y="11" width="1" height="1" fill="#225508"></rect><rect x="22" y="11" width="2" height="1" fill="#36860E"></rect><rect x="7" y="12" width="1" height="9" fill="#000000"></rect><rect x="8" y="12" width="1" height="1" fill="#225508"></rect><rect x="12" y="12" width="1" height="1" fill="#72E438"></rect><rect x="13" y="12" width="1" height="6" fill="#4FA623"></rect><rect x="15" y="12" width="1" height="1" fill="#36860E"></rect><rect x="16" y="12" width="3" height="1" fill="#4FA623"></rect><rect x="19" y="12" width="1" height="1" fill="#36860E"></rect><rect x="20" y="12" width="4" height="7" fill="#4FA623"></rect><rect x="8" y="13" width="1" height="1" fill="#36860E"></rect><rect x="11" y="13" width="2" height="2" fill="#4FA623"></rect><rect x="15" y="13" width="1" height="4" fill="#225508"></rect><rect x="16" y="13" width="1" height="1" fill="#4FA623"></rect><rect x="17" y="13" width="1" height="1" fill="#36860E"></rect><rect x="18" y="13" width="1" height="1" fill="#225508"></rect><rect x="19" y="13" width="1" height="3" fill="#4FA623"></rect><rect x="8" y="14" width="1" height="7" fill="#4FA623"></rect><rect x="9" y="14" width="1" height="2" fill="#72E438"></rect><rect x="16" y="14" width="1" height="1" fill="#36860E"></rect><rect x="17" y="14" width="1" height="1" fill="#225508"></rect><rect x="18" y="14" width="1" height="1" fill="#36860E"></rect><rect x="11" y="15" width="1" height="3" fill="#36860E"></rect><rect x="12" y="15" width="1" height="3" fill="#4FA623"></rect><rect x="16" y="15" width="1" height="2" fill="#225508"></rect><rect x="17" y="15" width="1" height="1" fill="#36860E"></rect><rect x="18" y="15" width="1" height="1" fill="#4FA623"></rect><rect x="24" y="15" width="1" height="1" fill="#36860E"></rect><rect x="9" y="16" width="1" height="7" fill="#4FA623"></rect><rect x="17" y="16" width="2" height="1" fill="#225508"></rect><rect x="19" y="16" width="1" height="1" fill="#36860E"></rect><rect x="24" y="16" width="1" height="1" fill="#225508"></rect><rect x="14" y="17" width="1" height="1" fill="#36860E"></rect><rect x="15" y="17" width="5" height="3" fill="#4FA623"></rect><rect x="24" y="17" width="1" height="3" fill="#000000"></rect><rect x="11" y="18" width="1" height="2" fill="#225508"></rect><rect x="12" y="18" width="2" height="1" fill="#36860E"></rect><rect x="14" y="18" width="1" height="2" fill="#4FA623"></rect><rect x="12" y="19" width="1" height="2" fill="#225508"></rect><rect x="13" y="19" width="1" height="1" fill="#36860E"></rect><rect x="20" y="19" width="3" height="2" fill="#4FA623"></rect><rect x="23" y="19" width="1" height="1" fill="#36860E"></rect><rect x="10" y="20" width="2" height="2" fill="#36860E"></rect><rect x="13" y="20" width="1" height="1" fill="#225508"></rect><rect x="14" y="20" width="3" height="1" fill="#36860E"></rect><rect x="17" y="20" width="3" height="3" fill="#4FA623"></rect><rect x="23" y="20" width="1" height="2" fill="#000000"></rect><rect x="8" y="21" width="1" height="2" fill="#000000"></rect><rect x="12" y="21" width="5" height="3" fill="#4FA623"></rect><rect x="20" y="21" width="2" height="1" fill="#4FA623"></rect><rect x="22" y="21" width="1" height="1" fill="#36860E"></rect><rect x="10" y="22" width="2" height="1" fill="#4FA623"></rect><rect x="20" y="22" width="1" height="1" fill="#4FA623"></rect><rect x="21" y="22" width="1" height="1" fill="#36860E"></rect><rect x="22" y="22" width="1" height="1" fill="#000000"></rect><rect x="9" y="23" width="2" height="1" fill="#000000"></rect><rect x="11" y="23" width="1" height="1" fill="#4FA623"></rect><rect x="17" y="23" width="1" height="1" fill="#4FA623"></rect><rect x="18" y="23" width="1" height="1" fill="#36860E"></rect><rect x="19" y="23" width="1" height="1" fill="#225508"></rect><rect x="20" y="23" width="2" height="1" fill="#000000"></rect><rect x="11" y="24" width="9" height="1" fill="#000000"></rect></svg>
