<svg width="32" height="32" viewBox="0 0 32 32" fill="none" xmlns="http://www.w3.org/2000/svg" shape-rendering="crispEdges"><rect x="20" y="1" width="4" height="1" fill="#000000"></rect><rect x="17" y="2" width="3" height="1" fill="#000000"></rect><rect x="20" y="2" width="1" height="1" fill="#96563B"></rect><rect x="21" y="2" width="3" height="3" fill="#BF7632"></rect><rect x="24" y="2" width="1" height="5" fill="#000000"></rect><rect x="14" y="3" width="3" height="1" fill="#000000"></rect><rect x="17" y="3" width="1" height="1" fill="#96563B"></rect><rect x="18" y="3" width="3" height="3" fill="#BF7632"></rect><rect x="11" y="4" width="3" height="1" fill="#000000"></rect><rect x="14" y="4" width="1" height="1" fill="#96563B"></rect><rect x="15" y="4" width="3" height="3" fill="#BF7632"></rect><rect x="8" y="5" width="3" height="1" fill="#000000"></rect><rect x="11" y="5" width="1" height="1" fill="#96563B"></rect><rect x="12" y="5" width="3" height="3" fill="#BF7632"></rect><rect x="21" y="5" width="1" height="1" fill="#BF7632"></rect><rect x="22" y="5" width="2" height="1" fill="#96563B"></rect><rect x="5" y="6" width="3" height="1" fill="#000000"></rect><rect x="8" y="6" width="1" height="1" fill="#96563B"></rect><rect x="9" y="6" width="3" height="3" fill="#BF7632"></rect><rect x="18" y="6" width="1" height="1" fill="#BF7632"></rect><rect x="19" y="6" width="3" height="1" fill="#96563B"></rect><rect x="22" y="6" width="2" height="4" fill="#BF7632"></rect><rect x="25" y="6" width="1" height="1" fill="#000000"></rect><rect x="2" y="7" width="3" height="1" fill="#000000"></rect><rect x="5" y="7" width="1" height="1" fill="#96563B"></rect><rect x="6" y="7" width="3" height="3" fill="#BF7632"></rect><rect x="15" y="7" width="1" height="1" fill="#BF7632"></rect><rect x="16" y="7" width="3" height="1" fill="#96563B"></rect><rect x="19" y="7" width="3" height="2" fill="#BF7632"></rect><rect x="24" y="7" width="2" height="4" fill="#BF7632"></rect><rect x="26" y="7" width="2" height="1" fill="#000000"></rect><rect x="2" y="8" width="1" height="3" fill="#000000"></rect><rect x="3" y="8" width="3" height="3" fill="#BF7632"></rect><rect x="12" y="8" width="1" height="1" fill="#96563B"></rect><rect x="13" y="8" width="5" height="1" fill="#000000"></rect><rect x="18" y="8" width="1" height="1" fill="#BF7632"></rect><rect x="26" y="8" width="2" height="2" fill="#BF7632"></rect><rect x="28" y="8" width="2" height="1" fill="#000000"></rect><rect x="9" y="9" width="1" height="1" fill="#96563B"></rect><rect x="10" y="9" width="3" height="1" fill="#000000"></rect><rect x="13" y="9" width="1" height="1" fill="#058A36"></rect><rect x="14" y="9" width="5" height="3" fill="#06C023"></rect><rect x="19" y="9" width="2" height="1" fill="#000000"></rect><rect x="21" y="9" width="1" height="1" fill="#BF7632"></rect><rect x="28" y="9" width="2" height="2" fill="#BF7632"></rect><rect x="30" y="9" width="1" height="1" fill="#000000"></rect><rect x="6" y="10" width="1" height="1" fill="#96563B"></rect><rect x="7" y="10" width="3" height="1" fill="#000000"></rect><rect x="10" y="10" width="2" height="1" fill="#058A36"></rect><rect x="12" y="10" width="2" height="1" fill="#06C023"></rect><rect x="19" y="10" width="2" height="2" fill="#06C023"></rect><rect x="21" y="10" width="2" height="1" fill="#000000"></rect><rect x="23" y="10" width="1" height="1" fill="#BF7632"></rect><rect x="26" y="10" width="2" height="1" fill="#96563B"></rect><rect x="30" y="10" width="1" height="2" fill="#BF7632"></rect><rect x="31" y="10" width="1" height="2" fill="#000000"></rect><rect x="3" y="11" width="4" height="1" fill="#000000"></rect><rect x="7" y="11" width="1" height="4" fill="#BF7632"></rect><rect x="8" y="11" width="2" height="1" fill="#058A36"></rect><rect x="10" y="11" width="2" height="1" fill="#06C023"></rect><rect x="12" y="11" width="1" height="1" fill="#000000"></rect><rect x="13" y="11" width="1" height="1" fill="#06C023"></rect><rect x="21" y="11" width="2" height="3" fill="#06C023"></rect><rect x="23" y="11" width="2" height="1" fill="#000000"></rect><rect x="25" y="11" width="3" height="1" fill="#BF7632"></rect><rect x="28" y="11" width="2" height="1" fill="#96563B"></rect><rect x="3" y="12" width="1" height="3" fill="#000000"></rect><rect x="4" y="12" width="1" height="1" fill="#96563B"></rect><rect x="5" y="12" width="2" height="4" fill="#BF7632"></rect><rect x="8" y="12" width="1" height="2" fill="#058A36"></rect><rect x="9" y="12" width="2" height="1" fill="#06C023"></rect><rect x="11" y="12" width="1" height="1" fill="#000000"></rect><rect x="12" y="12" width="1" height="3" fill="#D32A2A"></rect><rect x="13" y="12" width="1" height="1" fill="#000000"></rect><rect x="14" y="12" width="2" height="1" fill="#06C023"></rect><rect x="16" y="12" width="1" height="1" fill="#052C33"></rect><rect x="17" y="12" width="3" height="1" fill="#058A36"></rect><rect x="20" y="12" width="1" height="1" fill="#06C023"></rect><rect x="23" y="12" width="1" height="10" fill="#058A36"></rect><rect x="24" y="12" width="1" height="3" fill="#BF7632"></rect><rect x="25" y="12" width="2" height="1" fill="#96563B"></rect><rect x="27" y="12" width="3" height="1" fill="#BF7632"></rect><rect x="30" y="12" width="1" height="1" fill="#000000"></rect><rect x="4" y="13" width="1" height="2" fill="#BF7632"></rect><rect x="9" y="13" width="1" height="1" fill="#06C023"></rect><rect x="10" y="13" width="1" height="1" fill="#000000"></rect><rect x="11" y="13" width="1" height="3" fill="#D32A2A"></rect><rect x="13" y="13" width="1" height="3" fill="#D32A2A"></rect><rect x="14" y="13" width="1" height="1" fill="#000000"></rect><rect x="15" y="13" width="2" height="1" fill="#058A36"></rect><rect x="17" y="13" width="4" height="1" fill="#052C33"></rect><rect x="25" y="13" width="1" height="11" fill="#BF7632"></rect><rect x="26" y="13" width="1" height="5" fill="#96563B"></rect><rect x="27" y="13" width="3" height="1" fill="#000000"></rect><rect x="2" y="14" width="1" height="1" fill="#000000"></rect><rect x="8" y="14" width="1" height="1" fill="#06C023"></rect><rect x="9" y="14" width="1" height="1" fill="#000000"></rect><rect x="10" y="14" width="1" height="3" fill="#D32A2A"></rect><rect x="14" y="14" width="1" height="3" fill="#D32A2A"></rect><rect x="15" y="14" width="1" height="1" fill="#000000"></rect><rect x="16" y="14" width="4" height="1" fill="#06C023"></rect><rect x="20" y="14" width="1" height="1" fill="#058A36"></rect><rect x="21" y="14" width="2" height="1" fill="#052C33"></rect><rect x="27" y="14" width="1" height="10" fill="#BF7632"></rect><rect x="28" y="14" width="1" height="1" fill="#000000"></rect><rect x="1" y="15" width="1" height="3" fill="#000000"></rect><rect x="2" y="15" width="2" height="3" fill="#D32A2A"></rect><rect x="4" y="15" width="1" height="1" fill="#000000"></rect><rect x="7" y="15" width="1" height="1" fill="#96563B"></rect><rect x="8" y="15" width="1" height="1" fill="#000000"></rect><rect x="9" y="15" width="1" height="3" fill="#D32A2A"></rect><rect x="12" y="15" width="1" height="1" fill="#000000"></rect><rect x="15" y="15" width="1" height="3" fill="#D32A2A"></rect><rect x="16" y="15" width="1" height="1" fill="#000000"></rect><rect x="17" y="15" width="5" height="1" fill="#06C023"></rect><rect x="22" y="15" width="1" height="1" fill="#058A36"></rect><rect x="24" y="15" width="1" height="2" fill="#96563B"></rect><rect x="28" y="15" width="1" height="8" fill="#BF7632"></rect><rect x="29" y="15" width="1" height="16" fill="#000000"></rect><rect x="4" y="16" width="1" height="4" fill="#D32A2A"></rect><rect x="5" y="16" width="1" height="1" fill="#000000"></rect><rect x="6" y="16" width="1" height="1" fill="#BF7632"></rect><rect x="7" y="16" width="1" height="1" fill="#000000"></rect><rect x="8" y="16" width="1" height="3" fill="#D32A2A"></rect><rect x="11" y="16" width="1" height="1" fill="#000000"></rect><rect x="12" y="16" width="1" height="7" fill="#058A36"></rect><rect x="13" y="16" width="1" height="1" fill="#000000"></rect><rect x="16" y="16" width="1" height="3" fill="#D32A2A"></rect><rect x="17" y="16" width="1" height="1" fill="#000000"></rect><rect x="18" y="16" width="5" height="1" fill="#06C023"></rect><rect x="5" y="17" width="1" height="4" fill="#D32A2A"></rect><rect x="6" y="17" width="1" height="1" fill="#000000"></rect><rect x="7" y="17" width="1" height="3" fill="#D32A2A"></rect><rect x="10" y="17" width="1" height="1" fill="#000000"></rect><rect x="11" y="17" width="1" height="5" fill="#058A36"></rect><rect x="13" y="17" width="1" height="4" fill="#06C023"></rect><rect x="14" y="17" width="1" height="1" fill="#000000"></rect><rect x="17" y="17" width="1" height="3" fill="#D32A2A"></rect><rect x="18" y="17" width="1" height="1" fill="#000000"></rect><rect x="19" y="17" width="4" height="1" fill="#06C023"></rect><rect x="24" y="17" width="1" height="4" fill="#058A36"></rect><rect x="2" y="18" width="1" height="7" fill="#000000"></rect><rect x="3" y="18" width="1" height="1" fill="#D32A2A"></rect><rect x="6" y="18" width="1" height="3" fill="#D32A2A"></rect><rect x="9" y="18" width="1" height="1" fill="#000000"></rect><rect x="10" y="18" width="1" height="10" fill="#06C023"></rect><rect x="14" y="18" width="1" height="3" fill="#06C023"></rect><rect x="15" y="18" width="1" height="1" fill="#000000"></rect><rect x="18" y="18" width="1" height="3" fill="#D32A2A"></rect><rect x="19" y="18" width="1" height="1" fill="#000000"></rect><rect x="20" y="18" width="3" height="1" fill="#06C023"></rect><rect x="26" y="18" width="1" height="1" fill="#BF7632"></rect><rect x="3" y="19" width="1" height="1" fill="#000000"></rect><rect x="8" y="19" width="1" height="1" fill="#000000"></rect><rect x="9" y="19" width="1" height="8" fill="#06C023"></rect><rect x="15" y="19" width="1" height="2" fill="#058A36"></rect><rect x="16" y="19" width="1" height="1" fill="#000000"></rect><rect x="19" y="19" width="1" height="3" fill="#D32A2A"></rect><rect x="20" y="19" width="1" height="1" fill="#000000"></rect><rect x="21" y="19" width="2" height="1" fill="#06C023"></rect><rect x="26" y="19" width="1" height="1" fill="#96563B"></rect><rect x="3" y="20" width="1" height="7" fill="#BF7632"></rect><rect x="4" y="20" width="1" height="1" fill="#000000"></rect><rect x="7" y="20" width="1" height="1" fill="#000000"></rect><rect x="8" y="20" width="1" height="6" fill="#06C023"></rect><rect x="16" y="20" width="1" height="1" fill="#06C023"></rect><rect x="17" y="20" width="1" height="1" fill="#000000"></rect><rect x="20" y="20" width="1" height="3" fill="#D32A2A"></rect><rect x="21" y="20" width="1" height="1" fill="#000000"></rect><rect x="22" y="20" width="1" height="1" fill="#06C023"></rect><rect x="26" y="20" width="1" height="5" fill="#BF7632"></rect><rect x="4" y="21" width="1" height="9" fill="#BF7632"></rect><rect x="5" y="21" width="2" height="1" fill="#000000"></rect><rect x="7" y="21" width="1" height="4" fill="#06C023"></rect><rect x="13" y="21" width="1" height="1" fill="#058A36"></rect><rect x="14" y="21" width="3" height="1" fill="#052C33"></rect><rect x="17" y="21" width="1" height="2" fill="#058A36"></rect><rect x="18" y="21" width="1" height="1" fill="#000000"></rect><rect x="21" y="21" width="1" height="3" fill="#D32A2A"></rect><rect x="22" y="21" width="1" height="1" fill="#000000"></rect><rect x="24" y="21" width="1" height="2" fill="#052C33"></rect><rect x="5" y="22" width="2" height="3" fill="#BF7632"></rect><rect x="11" y="22" width="1" height="6" fill="#06C023"></rect><rect x="13" y="22" width="3" height="1" fill="#052C33"></rect><rect x="16" y="22" width="1" height="1" fill="#058A36"></rect><rect x="18" y="22" width="1" height="4" fill="#06C023"></rect><rect x="19" y="22" width="1" height="1" fill="#000000"></rect><rect x="22" y="22" width="1" height="3" fill="#D32A2A"></rect><rect x="23" y="22" width="1" height="1" fill="#000000"></rect><rect x="12" y="23" width="6" height="3" fill="#06C023"></rect><rect x="19" y="23" width="1" height="3" fill="#06C023"></rect><rect x="20" y="23" width="1" height="1" fill="#000000"></rect><rect x="23" y="23" width="1" height="3" fill="#D32A2A"></rect><rect x="24" y="23" width="1" height="1" fill="#000000"></rect><rect x="28" y="23" width="1" height="1" fill="#000000"></rect><rect x="20" y="24" width="1" height="1" fill="#06C023"></rect><rect x="21" y="24" width="1" height="1" fill="#000000"></rect><rect x="24" y="24" width="1" height="3" fill="#D32A2A"></rect><rect x="25" y="24" width="1" height="1" fill="#000000"></rect><rect x="27" y="24" width="1" height="1" fill="#000000"></rect><rect x="28" y="24" width="1" height="6" fill="#D32A2A"></rect><rect x="1" y="25" width="1" height="4" fill="#000000"></rect><rect x="2" y="25" width="1" height="1" fill="#96563B"></rect><rect x="5" y="25" width="1" height="5" fill="#BF7632"></rect><rect x="6" y="25" width="1" height="2" fill="#96563B"></rect><rect x="7" y="25" width="1" height="4" fill="#058A36"></rect><rect x="20" y="25" width="1" height="1" fill="#052C33"></rect><rect x="21" y="25" width="1" height="1" fill="#058A36"></rect><rect x="22" y="25" width="1" height="1" fill="#000000"></rect><rect x="25" y="25" width="1" height="5" fill="#D32A2A"></rect><rect x="26" y="25" width="1" height="1" fill="#000000"></rect><rect x="27" y="25" width="1" height="5" fill="#D32A2A"></rect><rect x="30" y="25" width="1" height="4" fill="#000000"></rect><rect x="2" y="26" width="1" height="3" fill="#BF7632"></rect><rect x="8" y="26" width="1" height="3" fill="#058A36"></rect><rect x="12" y="26" width="5" height="1" fill="#06C023"></rect><rect x="17" y="26" width="1" height="1" fill="#058A36"></rect><rect x="18" y="26" width="2" height="1" fill="#052C33"></rect><rect x="20" y="26" width="1" height="1" fill="#058A36"></rect><rect x="21" y="26" width="2" height="1" fill="#06C023"></rect><rect x="23" y="26" width="1" height="1" fill="#000000"></rect><rect x="26" y="26" width="1" height="4" fill="#D32A2A"></rect><rect x="3" y="27" width="1" height="1" fill="#96563B"></rect><rect x="6" y="27" width="1" height="2" fill="#058A36"></rect><rect x="9" y="27" width="1" height="3" fill="#058A36"></rect><rect x="12" y="27" width="2" height="1" fill="#06C023"></rect><rect x="14" y="27" width="4" height="1" fill="#052C33"></rect><rect x="18" y="27" width="1" height="1" fill="#058A36"></rect><rect x="19" y="27" width="3" height="1" fill="#06C023"></rect><rect x="22" y="27" width="1" height="1" fill="#058A36"></rect><rect x="23" y="27" width="1" height="1" fill="#052C33"></rect><rect x="24" y="27" width="1" height="1" fill="#000000"></rect><rect x="3" y="28" width="1" height="1" fill="#BF7632"></rect><rect x="10" y="28" width="3" height="1" fill="#058A36"></rect><rect x="13" y="28" width="2" height="2" fill="#052C33"></rect><rect x="15" y="28" width="1" height="2" fill="#058A36"></rect><rect x="16" y="28" width="5" height="1" fill="#06C023"></rect><rect x="21" y="28" width="1" height="1" fill="#058A36"></rect><rect x="22" y="28" width="1" height="1" fill="#052C33"></rect><rect x="23" y="28" width="1" height="1" fill="#000000"></rect><rect x="24" y="28" width="1" height="2" fill="#D32A2A"></rect><rect x="2" y="29" width="1" height="1" fill="#000000"></rect><rect x="3" y="29" width="1" height="1" fill="#96563B"></rect><rect x="6" y="29" width="3" height="1" fill="#052C33"></rect><rect x="10" y="29" width="2" height="1" fill="#058A36"></rect><rect x="12" y="29" width="1" height="1" fill="#052C33"></rect><rect x="16" y="29" width="3" height="1" fill="#06C023"></rect><rect x="19" y="29" width="1" height="1" fill="#058A36"></rect><rect x="20" y="29" width="2" height="1" fill="#052C33"></rect><rect x="22" y="29" width="1" height="2" fill="#000000"></rect><rect x="23" y="29" width="1" height="1" fill="#D32A2A"></rect><rect x="3" y="30" width="19" height="1" fill="#000000"></rect><rect x="23" y="30" width="6" height="1" fill="#000000"></rect></svg>
