<svg width="32" height="32" viewBox="0 0 32 32" fill="none" xmlns="http://www.w3.org/2000/svg" shape-rendering="crispEdges"><rect x="22" y="0" width="4" height="1" fill="#000000"></rect><rect x="21" y="1" width="1" height="1" fill="#000000"></rect><rect x="22" y="1" width="1" height="4" fill="#FFB017"></rect><rect x="23" y="1" width="1" height="1" fill="#000000"></rect><rect x="24" y="1" width="2" height="2" fill="#FFB017"></rect><rect x="26" y="1" width="1" height="4" fill="#000000"></rect><rect x="20" y="2" width="1" height="1" fill="#000000"></rect><rect x="21" y="2" width="1" height="1" fill="#FFB017"></rect><rect x="23" y="2" width="1" height="3" fill="#FFB017"></rect><rect x="19" y="3" width="1" height="3" fill="#000000"></rect><rect x="20" y="3" width="2" height="1" fill="#DC7500"></rect><rect x="24" y="3" width="1" height="3" fill="#FFB017"></rect><rect x="25" y="3" width="1" height="1" fill="#000000"></rect><rect x="6" y="4" width="4" height="1" fill="#000000"></rect><rect x="20" y="4" width="1" height="2" fill="#FFB017"></rect><rect x="21" y="4" width="1" height="2" fill="#DC7500"></rect><rect x="25" y="4" width="1" height="1" fill="#FFB017"></rect><rect x="5" y="5" width="1" height="4" fill="#000000"></rect><rect x="6" y="5" width="2" height="2" fill="#FFB017"></rect><rect x="8" y="5" width="1" height="1" fill="#000000"></rect><rect x="9" y="5" width="1" height="4" fill="#FFB017"></rect><rect x="10" y="5" width="1" height="1" fill="#000000"></rect><rect x="22" y="5" width="2" height="1" fill="#DC7500"></rect><rect x="25" y="5" width="1" height="1" fill="#000000"></rect><rect x="8" y="6" width="1" height="3" fill="#FFB017"></rect><rect x="10" y="6" width="1" height="1" fill="#FFB017"></rect><rect x="11" y="6" width="1" height="1" fill="#000000"></rect><rect x="20" y="6" width="1" height="1" fill="#000000"></rect><rect x="21" y="6" width="2" height="1" fill="#FFB017"></rect><rect x="23" y="6" width="1" height="1" fill="#DC7500"></rect><rect x="24" y="6" width="1" height="1" fill="#000000"></rect><rect x="6" y="7" width="1" height="1" fill="#000000"></rect><rect x="7" y="7" width="1" height="3" fill="#FFB017"></rect><rect x="10" y="7" width="2" height="1" fill="#DC7500"></rect><rect x="12" y="7" width="1" height="3" fill="#000000"></rect><rect x="21" y="7" width="3" height="1" fill="#000000"></rect><rect x="6" y="8" width="1" height="1" fill="#FFB017"></rect><rect x="10" y="8" width="1" height="2" fill="#DC7500"></rect><rect x="11" y="8" width="1" height="2" fill="#FFB017"></rect><rect x="6" y="9" width="1" height="1" fill="#000000"></rect><rect x="8" y="9" width="2" height="1" fill="#DC7500"></rect><rect x="7" y="10" width="1" height="1" fill="#000000"></rect><rect x="8" y="10" width="1" height="1" fill="#DC7500"></rect><rect x="9" y="10" width="2" height="1" fill="#FFB017"></rect><rect x="11" y="10" width="1" height="1" fill="#000000"></rect><rect x="22" y="10" width="4" height="1" fill="#000000"></rect><rect x="8" y="11" width="3" height="1" fill="#000000"></rect><rect x="21" y="11" width="1" height="1" fill="#000000"></rect><rect x="22" y="11" width="1" height="4" fill="#FFB017"></rect><rect x="23" y="11" width="1" height="1" fill="#000000"></rect><rect x="24" y="11" width="2" height="2" fill="#FFB017"></rect><rect x="26" y="11" width="1" height="4" fill="#000000"></rect><rect x="20" y="12" width="1" height="1" fill="#000000"></rect><rect x="21" y="12" width="1" height="1" fill="#FFB017"></rect><rect x="23" y="12" width="1" height="3" fill="#FFB017"></rect><rect x="19" y="13" width="1" height="3" fill="#000000"></rect><rect x="20" y="13" width="2" height="1" fill="#DC7500"></rect><rect x="24" y="13" width="1" height="3" fill="#FFB017"></rect><rect x="25" y="13" width="1" height="1" fill="#000000"></rect><rect x="6" y="14" width="4" height="1" fill="#000000"></rect><rect x="20" y="14" width="1" height="2" fill="#FFB017"></rect><rect x="21" y="14" width="1" height="2" fill="#DC7500"></rect><rect x="25" y="14" width="1" height="1" fill="#FFB017"></rect><rect x="5" y="15" width="1" height="4" fill="#000000"></rect><rect x="6" y="15" width="2" height="2" fill="#FFB017"></rect><rect x="8" y="15" width="1" height="1" fill="#000000"></rect><rect x="9" y="15" width="1" height="4" fill="#FFB017"></rect><rect x="10" y="15" width="1" height="1" fill="#000000"></rect><rect x="22" y="15" width="2" height="1" fill="#DC7500"></rect><rect x="25" y="15" width="1" height="1" fill="#000000"></rect><rect x="8" y="16" width="1" height="3" fill="#FFB017"></rect><rect x="10" y="16" width="1" height="1" fill="#FFB017"></rect><rect x="11" y="16" width="1" height="1" fill="#000000"></rect><rect x="20" y="16" width="1" height="1" fill="#000000"></rect><rect x="21" y="16" width="2" height="1" fill="#FFB017"></rect><rect x="23" y="16" width="1" height="1" fill="#DC7500"></rect><rect x="24" y="16" width="1" height="1" fill="#000000"></rect><rect x="6" y="17" width="1" height="1" fill="#000000"></rect><rect x="7" y="17" width="1" height="3" fill="#FFB017"></rect><rect x="10" y="17" width="2" height="1" fill="#DC7500"></rect><rect x="12" y="17" width="1" height="3" fill="#000000"></rect><rect x="21" y="17" width="3" height="1" fill="#000000"></rect><rect x="6" y="18" width="1" height="1" fill="#FFB017"></rect><rect x="10" y="18" width="1" height="2" fill="#DC7500"></rect><rect x="11" y="18" width="1" height="2" fill="#FFB017"></rect><rect x="6" y="19" width="1" height="1" fill="#000000"></rect><rect x="8" y="19" width="2" height="1" fill="#DC7500"></rect><rect x="7" y="20" width="1" height="1" fill="#000000"></rect><rect x="8" y="20" width="1" height="1" fill="#DC7500"></rect><rect x="9" y="20" width="2" height="1" fill="#FFB017"></rect><rect x="11" y="20" width="1" height="1" fill="#000000"></rect><rect x="22" y="20" width="4" height="1" fill="#000000"></rect><rect x="8" y="21" width="3" height="1" fill="#000000"></rect><rect x="21" y="21" width="1" height="1" fill="#000000"></rect><rect x="22" y="21" width="1" height="4" fill="#FFB017"></rect><rect x="23" y="21" width="1" height="1" fill="#000000"></rect><rect x="24" y="21" width="2" height="2" fill="#FFB017"></rect><rect x="26" y="21" width="1" height="4" fill="#000000"></rect><rect x="20" y="22" width="1" height="1" fill="#000000"></rect><rect x="21" y="22" width="1" height="1" fill="#FFB017"></rect><rect x="23" y="22" width="1" height="3" fill="#FFB017"></rect><rect x="19" y="23" width="1" height="3" fill="#000000"></rect><rect x="20" y="23" width="2" height="1" fill="#DC7500"></rect><rect x="24" y="23" width="1" height="3" fill="#FFB017"></rect><rect x="25" y="23" width="1" height="1" fill="#000000"></rect><rect x="6" y="24" width="4" height="1" fill="#000000"></rect><rect x="20" y="24" width="1" height="2" fill="#FFB017"></rect><rect x="21" y="24" width="1" height="2" fill="#DC7500"></rect><rect x="25" y="24" width="1" height="1" fill="#FFB017"></rect><rect x="5" y="25" width="1" height="4" fill="#000000"></rect><rect x="6" y="25" width="2" height="2" fill="#FFB017"></rect><rect x="8" y="25" width="1" height="1" fill="#000000"></rect><rect x="9" y="25" width="1" height="4" fill="#FFB017"></rect><rect x="10" y="25" width="1" height="1" fill="#000000"></rect><rect x="22" y="25" width="2" height="1" fill="#DC7500"></rect><rect x="25" y="25" width="1" height="1" fill="#000000"></rect><rect x="8" y="26" width="1" height="3" fill="#FFB017"></rect><rect x="10" y="26" width="1" height="1" fill="#FFB017"></rect><rect x="11" y="26" width="1" height="1" fill="#000000"></rect><rect x="20" y="26" width="1" height="1" fill="#000000"></rect><rect x="21" y="26" width="2" height="1" fill="#FFB017"></rect><rect x="23" y="26" width="1" height="1" fill="#DC7500"></rect><rect x="24" y="26" width="1" height="1" fill="#000000"></rect><rect x="6" y="27" width="1" height="1" fill="#000000"></rect><rect x="7" y="27" width="1" height="3" fill="#FFB017"></rect><rect x="10" y="27" width="2" height="1" fill="#DC7500"></rect><rect x="12" y="27" width="1" height="3" fill="#000000"></rect><rect x="21" y="27" width="3" height="1" fill="#000000"></rect><rect x="6" y="28" width="1" height="1" fill="#FFB017"></rect><rect x="10" y="28" width="1" height="2" fill="#DC7500"></rect><rect x="11" y="28" width="1" height="2" fill="#FFB017"></rect><rect x="6" y="29" width="1" height="1" fill="#000000"></rect><rect x="8" y="29" width="2" height="1" fill="#DC7500"></rect><rect x="7" y="30" width="1" height="1" fill="#000000"></rect><rect x="8" y="30" width="1" height="1" fill="#DC7500"></rect><rect x="9" y="30" width="2" height="1" fill="#FFB017"></rect><rect x="11" y="30" width="1" height="1" fill="#000000"></rect><rect x="8" y="31" width="3" height="1" fill="#000000"></rect></svg>
