<svg width="32" height="32" viewBox="0 0 32 32" fill="none" xmlns="http://www.w3.org/2000/svg" shape-rendering="crispEdges"><rect x="15" y="0" width="2" height="1" fill="#000000"></rect><rect x="14" y="1" width="1" height="1" fill="#000000"></rect><rect x="15" y="1" width="2" height="1" fill="#33B1FF"></rect><rect x="17" y="1" width="1" height="1" fill="#000000"></rect><rect x="13" y="2" width="1" height="24" fill="#000000"></rect><rect x="14" y="2" width="1" height="1" fill="#33B1FF"></rect><rect x="15" y="2" width="2" height="23" fill="#FFFFFF"></rect><rect x="17" y="2" width="1" height="1" fill="#33B1FF"></rect><rect x="18" y="2" width="1" height="24" fill="#000000"></rect><rect x="19" y="2" width="1" height="1" fill="#E053AA"></rect><rect x="21" y="2" width="1" height="1" fill="#E053AA"></rect><rect x="23" y="2" width="1" height="1" fill="#E053AA"></rect><rect x="25" y="2" width="1" height="1" fill="#E053AA"></rect><rect x="27" y="2" width="1" height="1" fill="#E053AA"></rect><rect x="14" y="3" width="1" height="2" fill="#8DE8FB"></rect><rect x="17" y="3" width="1" height="2" fill="#8DE8FB"></rect><rect x="27" y="4" width="1" height="1" fill="#E053AA"></rect><rect x="14" y="5" width="1" height="1" fill="#FFFFFF"></rect><rect x="17" y="5" width="1" height="1" fill="#FFFFFF"></rect><rect x="14" y="6" width="1" height="1" fill="#8DE8FB"></rect><rect x="17" y="6" width="1" height="1" fill="#8DE8FB"></rect><rect x="27" y="6" width="1" height="1" fill="#E053AA"></rect><rect x="14" y="7" width="1" height="12" fill="#FFFFFF"></rect><rect x="17" y="7" width="1" height="12" fill="#FFFFFF"></rect><rect x="27" y="8" width="1" height="1" fill="#E053AA"></rect><rect x="27" y="10" width="1" height="1" fill="#E053AA"></rect><rect x="19" y="12" width="1" height="1" fill="#E053AA"></rect><rect x="21" y="12" width="1" height="1" fill="#E053AA"></rect><rect x="23" y="12" width="1" height="1" fill="#E053AA"></rect><rect x="25" y="12" width="1" height="1" fill="#E053AA"></rect><rect x="27" y="12" width="1" height="1" fill="#E053AA"></rect><rect x="27" y="14" width="1" height="1" fill="#E053AA"></rect><rect x="27" y="16" width="1" height="1" fill="#E053AA"></rect><rect x="27" y="18" width="1" height="1" fill="#E053AA"></rect><rect x="14" y="19" width="1" height="3" fill="#8DE8FB"></rect><rect x="17" y="19" width="1" height="3" fill="#8DE8FB"></rect><rect x="27" y="20" width="1" height="1" fill="#E053AA"></rect><rect x="14" y="22" width="1" height="3" fill="#33B1FF"></rect><rect x="17" y="22" width="1" height="3" fill="#33B1FF"></rect><rect x="19" y="22" width="1" height="1" fill="#E053AA"></rect><rect x="21" y="22" width="1" height="1" fill="#E053AA"></rect><rect x="23" y="22" width="1" height="1" fill="#E053AA"></rect><rect x="25" y="22" width="1" height="1" fill="#E053AA"></rect><rect x="27" y="22" width="1" height="1" fill="#E053AA"></rect><rect x="11" y="25" width="2" height="1" fill="#000000"></rect><rect x="14" y="25" width="4" height="1" fill="#000000"></rect><rect x="19" y="25" width="2" height="1" fill="#000000"></rect><rect x="11" y="26" width="1" height="2" fill="#000000"></rect><rect x="12" y="26" width="1" height="1" fill="#522E12"></rect><rect x="13" y="26" width="1" height="2" fill="#7F4F2B"></rect><rect x="14" y="26" width="4" height="2" fill="#BD6F22"></rect><rect x="18" y="26" width="1" height="2" fill="#7F4F2B"></rect><rect x="19" y="26" width="1" height="1" fill="#522E12"></rect><rect x="20" y="26" width="1" height="2" fill="#000000"></rect><rect x="12" y="27" width="1" height="1" fill="#7F4F2B"></rect><rect x="19" y="27" width="1" height="1" fill="#7F4F2B"></rect><rect x="12" y="28" width="3" height="1" fill="#000000"></rect><rect x="15" y="28" width="2" height="1" fill="#7F4F2B"></rect><rect x="17" y="28" width="3" height="1" fill="#000000"></rect><rect x="14" y="29" width="1" height="3" fill="#000000"></rect><rect x="15" y="29" width="2" height="2" fill="#BD6F22"></rect><rect x="17" y="29" width="1" height="3" fill="#000000"></rect><rect x="15" y="31" width="2" height="1" fill="#000000"></rect></svg>
