<svg width="32" height="32" viewBox="0 0 32 32" fill="none" xmlns="http://www.w3.org/2000/svg" shape-rendering="crispEdges"><rect x="16" y="6" width="3" height="1" fill="#000000"></rect><rect x="16" y="7" width="1" height="12" fill="#000000"></rect><rect x="17" y="7" width="1" height="2" fill="#7F4F2B"></rect><rect x="18" y="7" width="1" height="2" fill="#522E12"></rect><rect x="19" y="7" width="1" height="1" fill="#000000"></rect><rect x="6" y="8" width="7" height="1" fill="#000000"></rect><rect x="19" y="8" width="1" height="1" fill="#522E12"></rect><rect x="20" y="8" width="1" height="10" fill="#000000"></rect><rect x="25" y="8" width="3" height="1" fill="#000000"></rect><rect x="4" y="9" width="2" height="1" fill="#000000"></rect><rect x="6" y="9" width="2" height="1" fill="#95B4B7"></rect><rect x="8" y="9" width="3" height="4" fill="#FFFFFF"></rect><rect x="11" y="9" width="2" height="1" fill="#95B4B7"></rect><rect x="13" y="9" width="3" height="1" fill="#000000"></rect><rect x="17" y="9" width="2" height="7" fill="#BD6F22"></rect><rect x="19" y="9" width="1" height="7" fill="#7F4F2B"></rect><rect x="24" y="9" width="1" height="1" fill="#000000"></rect><rect x="25" y="9" width="3" height="2" fill="#FFB017"></rect><rect x="28" y="9" width="1" height="2" fill="#000000"></rect><rect x="3" y="10" width="1" height="1" fill="#000000"></rect><rect x="4" y="10" width="4" height="3" fill="#FFFFFF"></rect><rect x="11" y="10" width="5" height="3" fill="#FFFFFF"></rect><rect x="21" y="10" width="3" height="1" fill="#000000"></rect><rect x="24" y="10" width="1" height="3" fill="#DC7500"></rect><rect x="29" y="10" width="1" height="1" fill="#000000"></rect><rect x="2" y="11" width="1" height="1" fill="#000000"></rect><rect x="3" y="11" width="1" height="1" fill="#FFFFFF"></rect><rect x="21" y="11" width="2" height="1" fill="#BD6F22"></rect><rect x="23" y="11" width="1" height="2" fill="#000000"></rect><rect x="25" y="11" width="2" height="2" fill="#DC7500"></rect><rect x="27" y="11" width="1" height="3" fill="#000000"></rect><rect x="28" y="11" width="1" height="2" fill="#BD6F22"></rect><rect x="29" y="11" width="1" height="1" fill="#522E12"></rect><rect x="30" y="11" width="1" height="3" fill="#000000"></rect><rect x="1" y="12" width="1" height="1" fill="#000000"></rect><rect x="2" y="12" width="2" height="1" fill="#95B4B7"></rect><rect x="21" y="12" width="2" height="1" fill="#000000"></rect><rect x="29" y="12" width="1" height="1" fill="#7F4F2B"></rect><rect x="2" y="13" width="1" height="1" fill="#000000"></rect><rect x="3" y="13" width="13" height="1" fill="#95B4B7"></rect><rect x="21" y="13" width="3" height="1" fill="#DC7500"></rect><rect x="24" y="13" width="3" height="1" fill="#000000"></rect><rect x="28" y="13" width="1" height="1" fill="#7F4F2B"></rect><rect x="29" y="13" width="1" height="1" fill="#522E12"></rect><rect x="3" y="14" width="1" height="1" fill="#000000"></rect><rect x="4" y="14" width="12" height="1" fill="#95B4B7"></rect><rect x="21" y="14" width="2" height="2" fill="#DC7500"></rect><rect x="23" y="14" width="5" height="2" fill="#FFB017"></rect><rect x="28" y="14" width="2" height="1" fill="#000000"></rect><rect x="4" y="15" width="2" height="1" fill="#000000"></rect><rect x="6" y="15" width="7" height="1" fill="#95B4B7"></rect><rect x="13" y="15" width="3" height="1" fill="#000000"></rect><rect x="28" y="15" width="1" height="1" fill="#000000"></rect><rect x="6" y="16" width="7" height="1" fill="#000000"></rect><rect x="13" y="16" width="1" height="2" fill="#522E12"></rect><rect x="14" y="16" width="1" height="2" fill="#7F4F2B"></rect><rect x="15" y="16" width="1" height="12" fill="#000000"></rect><rect x="17" y="16" width="1" height="2" fill="#7F4F2B"></rect><rect x="18" y="16" width="2" height="1" fill="#522E12"></rect><rect x="21" y="16" width="1" height="2" fill="#000000"></rect><rect x="22" y="16" width="5" height="1" fill="#FFB017"></rect><rect x="27" y="16" width="1" height="1" fill="#000000"></rect><rect x="4" y="17" width="3" height="1" fill="#000000"></rect><rect x="11" y="17" width="1" height="9" fill="#000000"></rect><rect x="12" y="17" width="1" height="1" fill="#522E12"></rect><rect x="18" y="17" width="1" height="1" fill="#522E12"></rect><rect x="19" y="17" width="1" height="1" fill="#000000"></rect><rect x="22" y="17" width="5" height="1" fill="#000000"></rect><rect x="3" y="18" width="1" height="2" fill="#000000"></rect><rect x="4" y="18" width="3" height="2" fill="#FFB017"></rect><rect x="7" y="18" width="1" height="1" fill="#000000"></rect><rect x="12" y="18" width="1" height="7" fill="#7F4F2B"></rect><rect x="13" y="18" width="2" height="7" fill="#BD6F22"></rect><rect x="17" y="18" width="2" height="1" fill="#000000"></rect><rect x="19" y="18" width="2" height="1" fill="#95B4B7"></rect><rect x="21" y="18" width="3" height="4" fill="#FFFFFF"></rect><rect x="24" y="18" width="2" height="1" fill="#95B4B7"></rect><rect x="26" y="18" width="2" height="1" fill="#000000"></rect><rect x="2" y="19" width="1" height="1" fill="#000000"></rect><rect x="7" y="19" width="1" height="3" fill="#DC7500"></rect><rect x="8" y="19" width="3" height="1" fill="#000000"></rect><rect x="16" y="19" width="5" height="3" fill="#FFFFFF"></rect><rect x="24" y="19" width="4" height="3" fill="#FFFFFF"></rect><rect x="28" y="19" width="1" height="1" fill="#000000"></rect><rect x="1" y="20" width="1" height="3" fill="#000000"></rect><rect x="2" y="20" width="1" height="1" fill="#522E12"></rect><rect x="3" y="20" width="1" height="2" fill="#BD6F22"></rect><rect x="4" y="20" width="1" height="3" fill="#000000"></rect><rect x="5" y="20" width="2" height="2" fill="#DC7500"></rect><rect x="8" y="20" width="1" height="2" fill="#000000"></rect><rect x="9" y="20" width="2" height="1" fill="#BD6F22"></rect><rect x="28" y="20" width="1" height="1" fill="#FFFFFF"></rect><rect x="29" y="20" width="1" height="1" fill="#000000"></rect><rect x="2" y="21" width="1" height="1" fill="#7F4F2B"></rect><rect x="9" y="21" width="2" height="1" fill="#000000"></rect><rect x="28" y="21" width="2" height="1" fill="#95B4B7"></rect><rect x="30" y="21" width="1" height="1" fill="#000000"></rect><rect x="2" y="22" width="1" height="1" fill="#522E12"></rect><rect x="3" y="22" width="1" height="1" fill="#7F4F2B"></rect><rect x="5" y="22" width="3" height="1" fill="#000000"></rect><rect x="8" y="22" width="3" height="1" fill="#DC7500"></rect><rect x="16" y="22" width="13" height="1" fill="#95B4B7"></rect><rect x="29" y="22" width="1" height="1" fill="#000000"></rect><rect x="2" y="23" width="2" height="1" fill="#000000"></rect><rect x="4" y="23" width="5" height="2" fill="#FFB017"></rect><rect x="9" y="23" width="2" height="2" fill="#DC7500"></rect><rect x="16" y="23" width="12" height="1" fill="#95B4B7"></rect><rect x="28" y="23" width="1" height="1" fill="#000000"></rect><rect x="3" y="24" width="1" height="1" fill="#000000"></rect><rect x="16" y="24" width="3" height="1" fill="#000000"></rect><rect x="19" y="24" width="7" height="1" fill="#95B4B7"></rect><rect x="26" y="24" width="2" height="1" fill="#000000"></rect><rect x="4" y="25" width="1" height="1" fill="#000000"></rect><rect x="5" y="25" width="5" height="1" fill="#FFB017"></rect><rect x="10" y="25" width="1" height="1" fill="#000000"></rect><rect x="12" y="25" width="2" height="1" fill="#522E12"></rect><rect x="14" y="25" width="1" height="2" fill="#7F4F2B"></rect><rect x="19" y="25" width="7" height="1" fill="#000000"></rect><rect x="5" y="26" width="5" height="1" fill="#000000"></rect><rect x="12" y="26" width="1" height="1" fill="#000000"></rect><rect x="13" y="26" width="1" height="1" fill="#522E12"></rect><rect x="13" y="27" width="2" height="1" fill="#000000"></rect></svg>
