<svg width="32" height="32" viewBox="0 0 32 32" fill="none" xmlns="http://www.w3.org/2000/svg" shape-rendering="crispEdges"><rect x="7" y="2" width="1" height="1" fill="#33B1FF"></rect><rect x="7" y="3" width="1" height="2" fill="#FFFFFF"></rect><rect x="11" y="3" width="5" height="1" fill="#FFFFFF"></rect><rect x="16" y="3" width="1" height="1" fill="#F5D547"></rect><rect x="17" y="3" width="1" height="1" fill="#FFFFFF"></rect><rect x="18" y="3" width="1" height="1" fill="#F5D547"></rect><rect x="9" y="4" width="2" height="1" fill="#FFFFFF"></rect><rect x="11" y="4" width="8" height="1" fill="#000000"></rect><rect x="19" y="4" width="2" height="1" fill="#F5D547"></rect><rect x="5" y="5" width="1" height="1" fill="#33B1FF"></rect><rect x="6" y="5" width="1" height="1" fill="#FFFFFF"></rect><rect x="8" y="5" width="1" height="1" fill="#FFFFFF"></rect><rect x="9" y="5" width="1" height="1" fill="#33B1FF"></rect><rect x="10" y="5" width="1" height="1" fill="#000000"></rect><rect x="11" y="5" width="8" height="1" fill="#BF7632"></rect><rect x="19" y="5" width="2" height="1" fill="#000000"></rect><rect x="21" y="5" width="1" height="1" fill="#F5D547"></rect><rect x="7" y="6" width="1" height="2" fill="#FFFFFF"></rect><rect x="8" y="6" width="1" height="1" fill="#000000"></rect><rect x="9" y="6" width="2" height="1" fill="#BF7632"></rect><rect x="11" y="6" width="1" height="1" fill="#96563B"></rect><rect x="12" y="6" width="6" height="4" fill="#141013"></rect><rect x="18" y="6" width="1" height="1" fill="#96563B"></rect><rect x="19" y="6" width="2" height="1" fill="#BF7632"></rect><rect x="21" y="6" width="1" height="1" fill="#000000"></rect><rect x="22" y="6" width="1" height="1" fill="#F5D547"></rect><rect x="6" y="7" width="1" height="5" fill="#FFFFFF"></rect><rect x="8" y="7" width="2" height="2" fill="#BF7632"></rect><rect x="10" y="7" width="2" height="2" fill="#141013"></rect><rect x="18" y="7" width="2" height="2" fill="#141013"></rect><rect x="20" y="7" width="2" height="3" fill="#BF7632"></rect><rect x="22" y="7" width="1" height="5" fill="#000000"></rect><rect x="23" y="7" width="1" height="5" fill="#F5D547"></rect><rect x="7" y="8" width="1" height="1" fill="#33B1FF"></rect><rect x="7" y="9" width="1" height="3" fill="#000000"></rect><rect x="8" y="9" width="1" height="1" fill="#BF7632"></rect><rect x="9" y="9" width="2" height="2" fill="#E69D67"></rect><rect x="11" y="9" width="1" height="1" fill="#96563B"></rect><rect x="18" y="9" width="1" height="1" fill="#96563B"></rect><rect x="19" y="9" width="1" height="2" fill="#BF7632"></rect><rect x="8" y="10" width="1" height="1" fill="#96563B"></rect><rect x="11" y="10" width="4" height="2" fill="#E69D67"></rect><rect x="15" y="10" width="4" height="2" fill="#BF7632"></rect><rect x="20" y="10" width="1" height="1" fill="#BF7632"></rect><rect x="21" y="10" width="1" height="1" fill="#96563B"></rect><rect x="8" y="11" width="1" height="1" fill="#000000"></rect><rect x="9" y="11" width="2" height="1" fill="#96563B"></rect><rect x="19" y="11" width="2" height="1" fill="#96563B"></rect><rect x="21" y="11" width="1" height="1" fill="#000000"></rect><rect x="5" y="12" width="1" height="2" fill="#F5D547"></rect><rect x="6" y="12" width="1" height="2" fill="#000000"></rect><rect x="7" y="12" width="1" height="1" fill="#96563B"></rect><rect x="8" y="12" width="3" height="1" fill="#BF7632"></rect><rect x="11" y="12" width="8" height="1" fill="#96563B"></rect><rect x="19" y="12" width="3" height="6" fill="#BF7632"></rect><rect x="22" y="12" width="1" height="1" fill="#96563B"></rect><rect x="23" y="12" width="1" height="2" fill="#000000"></rect><rect x="24" y="12" width="1" height="2" fill="#F5D547"></rect><rect x="7" y="13" width="2" height="1" fill="#BF7632"></rect><rect x="9" y="13" width="2" height="5" fill="#E69D67"></rect><rect x="11" y="13" width="8" height="3" fill="#BF7632"></rect><rect x="22" y="13" width="1" height="4" fill="#BF7632"></rect><rect x="4" y="14" width="1" height="5" fill="#F5D547"></rect><rect x="5" y="14" width="1" height="3" fill="#000000"></rect><rect x="6" y="14" width="1" height="4" fill="#96563B"></rect><rect x="7" y="14" width="1" height="3" fill="#BF7632"></rect><rect x="8" y="14" width="1" height="3" fill="#E69D67"></rect><rect x="23" y="14" width="1" height="4" fill="#96563B"></rect><rect x="24" y="14" width="1" height="5" fill="#000000"></rect><rect x="25" y="14" width="1" height="5" fill="#F5D547"></rect><rect x="11" y="16" width="1" height="3" fill="#E69D67"></rect><rect x="12" y="16" width="7" height="1" fill="#BF7632"></rect><rect x="5" y="17" width="1" height="1" fill="#33B1FF"></rect><rect x="7" y="17" width="1" height="2" fill="#96563B"></rect><rect x="8" y="17" width="1" height="1" fill="#BF7632"></rect><rect x="12" y="17" width="3" height="2" fill="#E69D67"></rect><rect x="15" y="17" width="4" height="1" fill="#BF7632"></rect><rect x="22" y="17" width="1" height="1" fill="#96563B"></rect><rect x="5" y="18" width="1" height="3" fill="#FFFFFF"></rect><rect x="6" y="18" width="1" height="1" fill="#79361B"></rect><rect x="8" y="18" width="1" height="1" fill="#96563B"></rect><rect x="9" y="18" width="1" height="1" fill="#BF7632"></rect><rect x="10" y="18" width="1" height="1" fill="#E69D67"></rect><rect x="15" y="18" width="1" height="1" fill="#E69D67"></rect><rect x="16" y="18" width="5" height="1" fill="#BF7632"></rect><rect x="21" y="18" width="1" height="2" fill="#96563B"></rect><rect x="22" y="18" width="1" height="1" fill="#33B1FF"></rect><rect x="23" y="18" width="1" height="1" fill="#79361B"></rect><rect x="1" y="19" width="1" height="1" fill="#FFFFFF"></rect><rect x="3" y="19" width="2" height="1" fill="#FFFFFF"></rect><rect x="6" y="19" width="2" height="1" fill="#FFFFFF"></rect><rect x="8" y="19" width="1" height="1" fill="#33B1FF"></rect><rect x="9" y="19" width="1" height="1" fill="#FFFFFF"></rect><rect x="10" y="19" width="1" height="3" fill="#96563B"></rect><rect x="11" y="19" width="8" height="1" fill="#BF7632"></rect><rect x="19" y="19" width="2" height="2" fill="#96563B"></rect><rect x="22" y="19" width="1" height="5" fill="#FFFFFF"></rect><rect x="23" y="19" width="1" height="1" fill="#000000"></rect><rect x="24" y="19" width="1" height="2" fill="#F5D547"></rect><rect x="6" y="20" width="1" height="1" fill="#000000"></rect><rect x="7" y="20" width="1" height="1" fill="#79361B"></rect><rect x="8" y="20" width="2" height="1" fill="#96563B"></rect><rect x="11" y="20" width="8" height="2" fill="#96563B"></rect><rect x="21" y="20" width="1" height="1" fill="#33B1FF"></rect><rect x="23" y="20" width="1" height="1" fill="#33B1FF"></rect><rect x="5" y="21" width="1" height="1" fill="#33B1FF"></rect><rect x="6" y="21" width="1" height="1" fill="#F5D547"></rect><rect x="7" y="21" width="1" height="1" fill="#000000"></rect><rect x="8" y="21" width="1" height="1" fill="#79361B"></rect><rect x="9" y="21" width="1" height="1" fill="#96563B"></rect><rect x="19" y="21" width="1" height="1" fill="#33B1FF"></rect><rect x="20" y="21" width="2" height="1" fill="#FFFFFF"></rect><rect x="23" y="21" width="2" height="1" fill="#FFFFFF"></rect><rect x="25" y="21" width="1" height="1" fill="#33B1FF"></rect><rect x="7" y="22" width="1" height="1" fill="#F5D547"></rect><rect x="8" y="22" width="2" height="1" fill="#000000"></rect><rect x="10" y="22" width="2" height="1" fill="#79361B"></rect><rect x="12" y="22" width="6" height="1" fill="#96563B"></rect><rect x="18" y="22" width="2" height="1" fill="#79361B"></rect><rect x="20" y="22" width="1" height="1" fill="#000000"></rect><rect x="21" y="22" width="1" height="1" fill="#33B1FF"></rect><rect x="23" y="22" width="1" height="1" fill="#33B1FF"></rect><rect x="8" y="23" width="2" height="1" fill="#F5D547"></rect><rect x="10" y="23" width="10" height="1" fill="#000000"></rect><rect x="20" y="23" width="2" height="1" fill="#F5D547"></rect><rect x="10" y="24" width="10" height="1" fill="#F5D547"></rect><rect x="22" y="24" width="1" height="1" fill="#33B1FF"></rect></svg>
