<svg width="32" height="32" viewBox="0 0 32 32" fill="none" xmlns="http://www.w3.org/2000/svg" shape-rendering="crispEdges"><rect x="8" y="9" width="7" height="1" fill="#000000"></rect><rect x="18" y="9" width="7" height="1" fill="#000000"></rect><rect x="7" y="10" width="1" height="1" fill="#000000"></rect><rect x="8" y="10" width="7" height="1" fill="#7C7DB2"></rect><rect x="15" y="10" width="1" height="1" fill="#000000"></rect><rect x="17" y="10" width="1" height="1" fill="#000000"></rect><rect x="18" y="10" width="7" height="1" fill="#7C7DB2"></rect><rect x="25" y="10" width="1" height="1" fill="#000000"></rect><rect x="6" y="11" width="1" height="1" fill="#000000"></rect><rect x="7" y="11" width="1" height="1" fill="#7C7DB2"></rect><rect x="8" y="11" width="1" height="1" fill="#393A6F"></rect><rect x="9" y="11" width="5" height="1" fill="#000000"></rect><rect x="14" y="11" width="1" height="1" fill="#393A6F"></rect><rect x="15" y="11" width="1" height="1" fill="#7C7DB2"></rect><rect x="16" y="11" width="1" height="1" fill="#000000"></rect><rect x="17" y="11" width="1" height="1" fill="#7C7DB2"></rect><rect x="18" y="11" width="1" height="1" fill="#393A6F"></rect><rect x="19" y="11" width="5" height="1" fill="#000000"></rect><rect x="24" y="11" width="1" height="1" fill="#393A6F"></rect><rect x="25" y="11" width="1" height="1" fill="#7C7DB2"></rect><rect x="26" y="11" width="1" height="1" fill="#000000"></rect><rect x="5" y="12" width="1" height="7" fill="#000000"></rect><rect x="6" y="12" width="1" height="7" fill="#7C7DB2"></rect><rect x="7" y="12" width="1" height="1" fill="#393A6F"></rect><rect x="8" y="12" width="2" height="1" fill="#000000"></rect><rect x="10" y="12" width="3" height="2" fill="#FFFFFF"></rect><rect x="13" y="12" width="2" height="1" fill="#000000"></rect><rect x="15" y="12" width="1" height="1" fill="#393A6F"></rect><rect x="16" y="12" width="1" height="1" fill="#7C7DB2"></rect><rect x="17" y="12" width="1" height="1" fill="#393A6F"></rect><rect x="18" y="12" width="2" height="1" fill="#000000"></rect><rect x="20" y="12" width="3" height="2" fill="#FFFFFF"></rect><rect x="23" y="12" width="2" height="1" fill="#000000"></rect><rect x="25" y="12" width="1" height="1" fill="#393A6F"></rect><rect x="26" y="12" width="1" height="7" fill="#7C7DB2"></rect><rect x="27" y="12" width="1" height="7" fill="#000000"></rect><rect x="7" y="13" width="2" height="5" fill="#000000"></rect><rect x="9" y="13" width="1" height="5" fill="#FFFFFF"></rect><rect x="13" y="13" width="1" height="2" fill="#FFFFFF"></rect><rect x="14" y="13" width="5" height="4" fill="#000000"></rect><rect x="19" y="13" width="1" height="2" fill="#FFFFFF"></rect><rect x="23" y="13" width="1" height="5" fill="#FFFFFF"></rect><rect x="24" y="13" width="2" height="5" fill="#000000"></rect><rect x="10" y="14" width="1" height="5" fill="#FFFFFF"></rect><rect x="11" y="14" width="2" height="4" fill="#000000"></rect><rect x="20" y="14" width="2" height="4" fill="#000000"></rect><rect x="22" y="14" width="1" height="5" fill="#FFFFFF"></rect><rect x="13" y="15" width="1" height="2" fill="#000000"></rect><rect x="19" y="15" width="1" height="2" fill="#000000"></rect><rect x="13" y="17" width="1" height="1" fill="#C8E9F8"></rect><rect x="14" y="17" width="2" height="1" fill="#000000"></rect><rect x="16" y="17" width="1" height="2" fill="#7C7DB2"></rect><rect x="17" y="17" width="2" height="1" fill="#000000"></rect><rect x="19" y="17" width="1" height="1" fill="#C8E9F8"></rect><rect x="7" y="18" width="1" height="1" fill="#393A6F"></rect><rect x="8" y="18" width="2" height="1" fill="#000000"></rect><rect x="11" y="18" width="2" height="1" fill="#FFFFFF"></rect><rect x="13" y="18" width="2" height="1" fill="#000000"></rect><rect x="15" y="18" width="1" height="1" fill="#393A6F"></rect><rect x="17" y="18" width="1" height="1" fill="#393A6F"></rect><rect x="18" y="18" width="2" height="1" fill="#000000"></rect><rect x="20" y="18" width="2" height="1" fill="#FFFFFF"></rect><rect x="23" y="18" width="2" height="1" fill="#000000"></rect><rect x="25" y="18" width="1" height="1" fill="#393A6F"></rect><rect x="6" y="19" width="1" height="1" fill="#000000"></rect><rect x="7" y="19" width="1" height="1" fill="#7C7DB2"></rect><rect x="8" y="19" width="1" height="1" fill="#393A6F"></rect><rect x="9" y="19" width="5" height="1" fill="#000000"></rect><rect x="14" y="19" width="1" height="1" fill="#393A6F"></rect><rect x="15" y="19" width="1" height="1" fill="#7C7DB2"></rect><rect x="16" y="19" width="1" height="1" fill="#000000"></rect><rect x="17" y="19" width="1" height="1" fill="#7C7DB2"></rect><rect x="18" y="19" width="1" height="1" fill="#393A6F"></rect><rect x="19" y="19" width="5" height="1" fill="#000000"></rect><rect x="24" y="19" width="1" height="1" fill="#393A6F"></rect><rect x="25" y="19" width="1" height="1" fill="#7C7DB2"></rect><rect x="26" y="19" width="1" height="1" fill="#000000"></rect><rect x="7" y="20" width="1" height="1" fill="#000000"></rect><rect x="8" y="20" width="7" height="1" fill="#7C7DB2"></rect><rect x="15" y="20" width="1" height="1" fill="#000000"></rect><rect x="17" y="20" width="1" height="1" fill="#000000"></rect><rect x="18" y="20" width="7" height="1" fill="#7C7DB2"></rect><rect x="25" y="20" width="1" height="1" fill="#000000"></rect><rect x="8" y="21" width="7" height="1" fill="#000000"></rect><rect x="18" y="21" width="7" height="1" fill="#000000"></rect></svg>
