<svg width="32" height="32" viewBox="0 0 32 32" fill="none" xmlns="http://www.w3.org/2000/svg" shape-rendering="crispEdges"><rect x="12" y="5" width="7" height="1" fill="#000000"></rect><rect x="10" y="6" width="2" height="1" fill="#000000"></rect><rect x="12" y="6" width="4" height="1" fill="#63DDF0"></rect><rect x="16" y="6" width="3" height="1" fill="#47C9DD"></rect><rect x="19" y="6" width="2" height="1" fill="#000000"></rect><rect x="9" y="7" width="1" height="1" fill="#000000"></rect><rect x="10" y="7" width="1" height="1" fill="#47C9DD"></rect><rect x="11" y="7" width="4" height="7" fill="#F9FEFF"></rect><rect x="15" y="7" width="2" height="1" fill="#63DDF0"></rect><rect x="17" y="7" width="4" height="1" fill="#47C9DD"></rect><rect x="21" y="7" width="1" height="1" fill="#000000"></rect><rect x="8" y="8" width="1" height="1" fill="#000000"></rect><rect x="9" y="8" width="1" height="1" fill="#63DDF0"></rect><rect x="10" y="8" width="1" height="7" fill="#F9FEFF"></rect><rect x="15" y="8" width="1" height="5" fill="#F9FEFF"></rect><rect x="16" y="8" width="2" height="6" fill="#63DDF0"></rect><rect x="18" y="8" width="4" height="2" fill="#47C9DD"></rect><rect x="22" y="8" width="1" height="1" fill="#000000"></rect><rect x="7" y="9" width="1" height="1" fill="#000000"></rect><rect x="8" y="9" width="1" height="1" fill="#63DDF0"></rect><rect x="9" y="9" width="1" height="6" fill="#F9FEFF"></rect><rect x="22" y="9" width="1" height="1" fill="#47C9DD"></rect><rect x="23" y="9" width="1" height="1" fill="#000000"></rect><rect x="6" y="10" width="1" height="2" fill="#000000"></rect><rect x="7" y="10" width="1" height="6" fill="#63DDF0"></rect><rect x="8" y="10" width="1" height="4" fill="#F9FEFF"></rect><rect x="18" y="10" width="3" height="1" fill="#47C9DD"></rect><rect x="21" y="10" width="3" height="11" fill="#E2A3EA"></rect><rect x="24" y="10" width="1" height="2" fill="#000000"></rect><rect x="18" y="11" width="1" height="1" fill="#47C9DD"></rect><rect x="19" y="11" width="2" height="10" fill="#E2A3EA"></rect><rect x="5" y="12" width="1" height="7" fill="#000000"></rect><rect x="6" y="12" width="1" height="3" fill="#63DDF0"></rect><rect x="18" y="12" width="1" height="8" fill="#E2A3EA"></rect><rect x="24" y="12" width="1" height="7" fill="#E2A3EA"></rect><rect x="25" y="12" width="1" height="7" fill="#000000"></rect><rect x="15" y="13" width="1" height="4" fill="#63DDF0"></rect><rect x="8" y="14" width="1" height="3" fill="#63DDF0"></rect><rect x="11" y="14" width="3" height="1" fill="#F9FEFF"></rect><rect x="14" y="14" width="1" height="3" fill="#63DDF0"></rect><rect x="16" y="14" width="1" height="2" fill="#63DDF0"></rect><rect x="17" y="14" width="1" height="4" fill="#E2A3EA"></rect><rect x="6" y="15" width="1" height="4" fill="#47C9DD"></rect><rect x="9" y="15" width="5" height="3" fill="#63DDF0"></rect><rect x="7" y="16" width="1" height="4" fill="#47C9DD"></rect><rect x="16" y="16" width="1" height="5" fill="#47C9DD"></rect><rect x="8" y="17" width="1" height="4" fill="#47C9DD"></rect><rect x="14" y="17" width="2" height="5" fill="#47C9DD"></rect><rect x="9" y="18" width="5" height="3" fill="#47C9DD"></rect><rect x="17" y="18" width="1" height="3" fill="#47C9DD"></rect><rect x="6" y="19" width="1" height="2" fill="#000000"></rect><rect x="24" y="19" width="1" height="2" fill="#000000"></rect><rect x="7" y="20" width="1" height="1" fill="#A175F5"></rect><rect x="18" y="20" width="1" height="5" fill="#A175F5"></rect><rect x="7" y="21" width="1" height="1" fill="#000000"></rect><rect x="8" y="21" width="2" height="1" fill="#A175F5"></rect><rect x="10" y="21" width="4" height="1" fill="#47C9DD"></rect><rect x="16" y="21" width="2" height="4" fill="#A175F5"></rect><rect x="19" y="21" width="2" height="3" fill="#A175F5"></rect><rect x="21" y="21" width="2" height="1" fill="#E2A3EA"></rect><rect x="23" y="21" width="1" height="1" fill="#000000"></rect><rect x="8" y="22" width="1" height="1" fill="#000000"></rect><rect x="9" y="22" width="7" height="1" fill="#A175F5"></rect><rect x="21" y="22" width="1" height="1" fill="#A175F5"></rect><rect x="22" y="22" width="1" height="1" fill="#000000"></rect><rect x="9" y="23" width="1" height="1" fill="#000000"></rect><rect x="10" y="23" width="6" height="1" fill="#A175F5"></rect><rect x="21" y="23" width="1" height="1" fill="#000000"></rect><rect x="10" y="24" width="2" height="1" fill="#000000"></rect><rect x="12" y="24" width="4" height="1" fill="#A175F5"></rect><rect x="19" y="24" width="2" height="1" fill="#000000"></rect><rect x="12" y="25" width="7" height="1" fill="#000000"></rect></svg>
