<svg width="32" height="32" viewBox="0 0 32 32" fill="none" xmlns="http://www.w3.org/2000/svg" shape-rendering="crispEdges"><rect x="7" y="2" width="3" height="1" fill="#000000"></rect><rect x="22" y="2" width="3" height="1" fill="#000000"></rect><rect x="6" y="3" width="1" height="1" fill="#000000"></rect><rect x="7" y="3" width="3" height="8" fill="#E69D67"></rect><rect x="10" y="3" width="1" height="1" fill="#000000"></rect><rect x="21" y="3" width="1" height="1" fill="#000000"></rect><rect x="22" y="3" width="3" height="8" fill="#E69D67"></rect><rect x="25" y="3" width="1" height="1" fill="#000000"></rect><rect x="5" y="4" width="1" height="21" fill="#000000"></rect><rect x="6" y="4" width="1" height="8" fill="#E69D67"></rect><rect x="10" y="4" width="1" height="1" fill="#96563B"></rect><rect x="11" y="4" width="1" height="21" fill="#000000"></rect><rect x="20" y="4" width="1" height="21" fill="#000000"></rect><rect x="21" y="4" width="1" height="8" fill="#E69D67"></rect><rect x="25" y="4" width="1" height="1" fill="#96563B"></rect><rect x="26" y="4" width="1" height="21" fill="#000000"></rect><rect x="10" y="5" width="1" height="7" fill="#BF7632"></rect><rect x="25" y="5" width="1" height="7" fill="#BF7632"></rect><rect x="7" y="11" width="3" height="1" fill="#000000"></rect><rect x="22" y="11" width="3" height="1" fill="#000000"></rect><rect x="6" y="12" width="1" height="1" fill="#000000"></rect><rect x="7" y="12" width="3" height="10" fill="#E69D67"></rect><rect x="10" y="12" width="1" height="1" fill="#000000"></rect><rect x="21" y="12" width="1" height="1" fill="#000000"></rect><rect x="22" y="12" width="3" height="10" fill="#E69D67"></rect><rect x="25" y="12" width="1" height="1" fill="#000000"></rect><rect x="6" y="13" width="1" height="10" fill="#E69D67"></rect><rect x="10" y="13" width="1" height="1" fill="#96563B"></rect><rect x="21" y="13" width="1" height="10" fill="#E69D67"></rect><rect x="25" y="13" width="1" height="1" fill="#96563B"></rect><rect x="4" y="14" width="1" height="1" fill="#000000"></rect><rect x="10" y="14" width="1" height="10" fill="#BF7632"></rect><rect x="12" y="14" width="1" height="1" fill="#000000"></rect><rect x="19" y="14" width="1" height="1" fill="#000000"></rect><rect x="25" y="14" width="1" height="10" fill="#BF7632"></rect><rect x="27" y="14" width="1" height="1" fill="#000000"></rect><rect x="3" y="15" width="1" height="2" fill="#000000"></rect><rect x="4" y="15" width="1" height="2" fill="#76B623"></rect><rect x="12" y="15" width="1" height="2" fill="#76B623"></rect><rect x="13" y="15" width="1" height="2" fill="#000000"></rect><rect x="18" y="15" width="1" height="2" fill="#000000"></rect><rect x="19" y="15" width="1" height="2" fill="#76B623"></rect><rect x="27" y="15" width="1" height="2" fill="#76B623"></rect><rect x="28" y="15" width="1" height="2" fill="#000000"></rect><rect x="4" y="17" width="1" height="1" fill="#000000"></rect><rect x="12" y="17" width="1" height="1" fill="#000000"></rect><rect x="19" y="17" width="1" height="1" fill="#000000"></rect><rect x="27" y="17" width="1" height="1" fill="#000000"></rect><rect x="7" y="22" width="2" height="1" fill="#E69D67"></rect><rect x="9" y="22" width="1" height="3" fill="#BF7632"></rect><rect x="22" y="22" width="2" height="1" fill="#E69D67"></rect><rect x="24" y="22" width="1" height="3" fill="#BF7632"></rect><rect x="4" y="23" width="1" height="1" fill="#000000"></rect><rect x="6" y="23" width="3" height="1" fill="#BF7632"></rect><rect x="12" y="23" width="1" height="1" fill="#000000"></rect><rect x="19" y="23" width="1" height="1" fill="#000000"></rect><rect x="21" y="23" width="3" height="1" fill="#BF7632"></rect><rect x="27" y="23" width="1" height="1" fill="#000000"></rect><rect x="3" y="24" width="1" height="2" fill="#000000"></rect><rect x="4" y="24" width="1" height="2" fill="#76B623"></rect><rect x="6" y="24" width="1" height="1" fill="#96563B"></rect><rect x="7" y="24" width="2" height="1" fill="#BF7632"></rect><rect x="10" y="24" width="1" height="1" fill="#96563B"></rect><rect x="12" y="24" width="1" height="2" fill="#76B623"></rect><rect x="13" y="24" width="1" height="2" fill="#000000"></rect><rect x="18" y="24" width="1" height="2" fill="#000000"></rect><rect x="19" y="24" width="1" height="2" fill="#76B623"></rect><rect x="21" y="24" width="1" height="1" fill="#96563B"></rect><rect x="22" y="24" width="2" height="1" fill="#BF7632"></rect><rect x="25" y="24" width="1" height="1" fill="#96563B"></rect><rect x="27" y="24" width="1" height="2" fill="#76B623"></rect><rect x="28" y="24" width="1" height="2" fill="#000000"></rect><rect x="5" y="25" width="7" height="2" fill="#76B623"></rect><rect x="20" y="25" width="7" height="2" fill="#76B623"></rect><rect x="4" y="26" width="1" height="1" fill="#000000"></rect><rect x="12" y="26" width="1" height="1" fill="#000000"></rect><rect x="19" y="26" width="1" height="1" fill="#000000"></rect><rect x="27" y="26" width="1" height="1" fill="#000000"></rect><rect x="5" y="27" width="7" height="1" fill="#000000"></rect><rect x="20" y="27" width="7" height="1" fill="#000000"></rect></svg>
