<svg width="32" height="32" viewBox="0 0 32 32" fill="none" xmlns="http://www.w3.org/2000/svg" shape-rendering="crispEdges"><rect x="14" y="0" width="4" height="1" fill="#000000"></rect><rect x="5" y="1" width="2" height="1" fill="#000000"></rect><rect x="11" y="1" width="3" height="1" fill="#000000"></rect><rect x="14" y="1" width="4" height="1" fill="#C4C4C4" opacity="0.792157"></rect><rect x="18" y="1" width="3" height="1" fill="#000000"></rect><rect x="25" y="1" width="2" height="1" fill="#000000"></rect><rect x="4" y="2" width="1" height="3" fill="#000000"></rect><rect x="5" y="2" width="2" height="3" fill="#C4C4C4" opacity="0.792157"></rect><rect x="7" y="2" width="1" height="1" fill="#000000"></rect><rect x="9" y="2" width="2" height="1" fill="#000000"></rect><rect x="11" y="2" width="1" height="1" fill="#C4C4C4" opacity="0.792157"></rect><rect x="12" y="2" width="4" height="3" fill="#F7E5F4" opacity="0.905882"></rect><rect x="16" y="2" width="5" height="1" fill="#C4C4C4" opacity="0.792157"></rect><rect x="21" y="2" width="2" height="1" fill="#000000"></rect><rect x="24" y="2" width="1" height="1" fill="#000000"></rect><rect x="25" y="2" width="2" height="3" fill="#C4C4C4" opacity="0.792157"></rect><rect x="27" y="2" width="1" height="3" fill="#000000"></rect><rect x="7" y="3" width="1" height="1" fill="#C4C4C4" opacity="0.792157"></rect><rect x="8" y="3" width="1" height="1" fill="#000000"></rect><rect x="9" y="3" width="2" height="3" fill="#C4C4C4" opacity="0.792157"></rect><rect x="11" y="3" width="1" height="2" fill="#F7E5F4" opacity="0.905882"></rect><rect x="16" y="3" width="1" height="1" fill="#F7E5F4" opacity="0.905882"></rect><rect x="17" y="3" width="6" height="3" fill="#C4C4C4" opacity="0.792157"></rect><rect x="23" y="3" width="1" height="1" fill="#000000"></rect><rect x="24" y="3" width="1" height="1" fill="#C4C4C4" opacity="0.792157"></rect><rect x="7" y="4" width="1" height="1" fill="#000000"></rect><rect x="8" y="4" width="1" height="2" fill="#C4C4C4" opacity="0.792157"></rect><rect x="16" y="4" width="1" height="5" fill="#C4C4C4" opacity="0.792157"></rect><rect x="23" y="4" width="1" height="2" fill="#C4C4C4" opacity="0.792157"></rect><rect x="24" y="4" width="1" height="1" fill="#000000"></rect><rect x="5" y="5" width="1" height="3" fill="#000000"></rect><rect x="6" y="5" width="2" height="2" fill="#C4C4C4" opacity="0.792157"></rect><rect x="11" y="5" width="1" height="2" fill="#C4C4C4" opacity="0.792157"></rect><rect x="12" y="5" width="3" height="1" fill="#F7E5F4" opacity="0.905882"></rect><rect x="15" y="5" width="1" height="4" fill="#C4C4C4" opacity="0.792157"></rect><rect x="24" y="5" width="2" height="2" fill="#C4C4C4" opacity="0.792157"></rect><rect x="26" y="5" width="1" height="2" fill="#000000"></rect><rect x="8" y="6" width="3" height="1" fill="#B3721E"></rect><rect x="12" y="6" width="3" height="1" fill="#C4C4C4" opacity="0.792157"></rect><rect x="17" y="6" width="4" height="1" fill="#C4C4C4" opacity="0.792157"></rect><rect x="21" y="6" width="3" height="1" fill="#B3721E"></rect><rect x="6" y="7" width="1" height="1" fill="#C4C4C4" opacity="0.792157"></rect><rect x="7" y="7" width="1" height="1" fill="#B3721E"></rect><rect x="8" y="7" width="2" height="1" fill="#E6C27A"></rect><rect x="10" y="7" width="1" height="1" fill="#4D4D4D"></rect><rect x="11" y="7" width="3" height="1" fill="#B3721E"></rect><rect x="14" y="7" width="1" height="3" fill="#C4C4C4" opacity="0.792157"></rect><rect x="17" y="7" width="1" height="3" fill="#C4C4C4" opacity="0.792157"></rect><rect x="18" y="7" width="3" height="1" fill="#B3721E"></rect><rect x="21" y="7" width="1" height="1" fill="#4D4D4D"></rect><rect x="22" y="7" width="2" height="1" fill="#E6C27A"></rect><rect x="24" y="7" width="1" height="1" fill="#B3721E"></rect><rect x="25" y="7" width="1" height="1" fill="#C4C4C4" opacity="0.792157"></rect><rect x="26" y="7" width="1" height="1" fill="#5A5A5A"></rect><rect x="4" y="8" width="1" height="2" fill="#000000"></rect><rect x="5" y="8" width="1" height="4" fill="#C4C4C4" opacity="0.792157"></rect><rect x="6" y="8" width="1" height="4" fill="#B3721E"></rect><rect x="7" y="8" width="1" height="3" fill="#E6C27A"></rect><rect x="8" y="8" width="2" height="3" fill="#4D4D4D"></rect><rect x="10" y="8" width="1" height="3" fill="#E6C27A"></rect><rect x="11" y="8" width="1" height="3" fill="#4D4D4D"></rect><rect x="12" y="8" width="1" height="4" fill="#B3721E"></rect><rect x="13" y="8" width="1" height="8" fill="#C4C4C4" opacity="0.792157"></rect><rect x="18" y="8" width="1" height="8" fill="#C4C4C4" opacity="0.792157"></rect><rect x="19" y="8" width="1" height="4" fill="#B3721E"></rect><rect x="20" y="8" width="1" height="3" fill="#4D4D4D"></rect><rect x="21" y="8" width="1" height="3" fill="#E6C27A"></rect><rect x="22" y="8" width="2" height="3" fill="#4D4D4D"></rect><rect x="24" y="8" width="1" height="3" fill="#E6C27A"></rect><rect x="25" y="8" width="1" height="4" fill="#B3721E"></rect><rect x="26" y="8" width="1" height="4" fill="#C4C4C4" opacity="0.792157"></rect><rect x="27" y="8" width="1" height="1" fill="#000000"></rect><rect x="15" y="9" width="2" height="1" fill="#5A5A5A"></rect><rect x="27" y="9" width="1" height="1" fill="#5A5A5A"></rect><rect x="3" y="10" width="1" height="3" fill="#000000"></rect><rect x="4" y="10" width="1" height="2" fill="#C4C4C4" opacity="0.792157"></rect><rect x="14" y="10" width="1" height="5" fill="#5A5A5A"></rect><rect x="15" y="10" width="2" height="4" fill="#D2D2D2"></rect><rect x="17" y="10" width="1" height="5" fill="#5A5A5A"></rect><rect x="27" y="10" width="1" height="2" fill="#C4C4C4" opacity="0.792157"></rect><rect x="28" y="10" width="1" height="3" fill="#000000"></rect><rect x="7" y="11" width="1" height="1" fill="#4D4D4D"></rect><rect x="8" y="11" width="2" height="1" fill="#E6C27A"></rect><rect x="10" y="11" width="1" height="1" fill="#4D4D4D"></rect><rect x="11" y="11" width="1" height="2" fill="#E6C27A"></rect><rect x="20" y="11" width="1" height="2" fill="#E6C27A"></rect><rect x="21" y="11" width="1" height="1" fill="#4D4D4D"></rect><rect x="22" y="11" width="2" height="1" fill="#E6C27A"></rect><rect x="24" y="11" width="1" height="1" fill="#4D4D4D"></rect><rect x="4" y="12" width="6" height="1" fill="#000000"></rect><rect x="10" y="12" width="1" height="2" fill="#E6C27A"></rect><rect x="12" y="12" width="1" height="1" fill="#AB520E"></rect><rect x="19" y="12" width="1" height="1" fill="#AB520E"></rect><rect x="21" y="12" width="1" height="2" fill="#E6C27A"></rect><rect x="22" y="12" width="6" height="1" fill="#000000"></rect><rect x="1" y="13" width="2" height="1" fill="#000000"></rect><rect x="3" y="13" width="1" height="2" fill="#939393"></rect><rect x="4" y="13" width="1" height="2" fill="#C4C4C4" opacity="0.792157"></rect><rect x="5" y="13" width="1" height="2" fill="#A5A5A5" opacity="0.792157"></rect><rect x="6" y="13" width="1" height="2" fill="#C4C4C4" opacity="0.792157"></rect><rect x="7" y="13" width="1" height="1" fill="#B89071"></rect><rect x="8" y="13" width="1" height="1" fill="#D4C3A2"></rect><rect x="9" y="13" width="1" height="4" fill="#5A5A5A"></rect><rect x="11" y="13" width="1" height="1" fill="#AB520E"></rect><rect x="12" y="13" width="1" height="2" fill="#C4C4C4" opacity="0.792157"></rect><rect x="19" y="13" width="1" height="2" fill="#C4C4C4" opacity="0.792157"></rect><rect x="20" y="13" width="1" height="1" fill="#AB520E"></rect><rect x="22" y="13" width="1" height="4" fill="#5A5A5A"></rect><rect x="23" y="13" width="1" height="1" fill="#D4C3A2"></rect><rect x="24" y="13" width="1" height="1" fill="#B89071"></rect><rect x="25" y="13" width="1" height="2" fill="#C4C4C4" opacity="0.792157"></rect><rect x="26" y="13" width="1" height="2" fill="#A5A5A5" opacity="0.792157"></rect><rect x="27" y="13" width="1" height="2" fill="#C4C4C4" opacity="0.792157"></rect><rect x="28" y="13" width="1" height="2" fill="#939393"></rect><rect x="29" y="13" width="2" height="1" fill="#000000"></rect><rect x="0" y="14" width="1" height="2" fill="#000000"></rect><rect x="1" y="14" width="1" height="1" fill="#C4C4C4" opacity="0.792157"></rect><rect x="2" y="14" width="1" height="1" fill="#A5A5A5" opacity="0.792157"></rect><rect x="7" y="14" width="1" height="1" fill="#C4C4C4" opacity="0.792157"></rect><rect x="8" y="14" width="1" height="1" fill="#B89071"></rect><rect x="10" y="14" width="1" height="1" fill="#AB520E"></rect><rect x="11" y="14" width="1" height="9" fill="#C4C4C4" opacity="0.792157"></rect><rect x="15" y="14" width="2" height="2" fill="#5A5A5A"></rect><rect x="20" y="14" width="1" height="9" fill="#C4C4C4" opacity="0.792157"></rect><rect x="21" y="14" width="1" height="1" fill="#AB520E"></rect><rect x="23" y="14" width="1" height="1" fill="#B89071"></rect><rect x="24" y="14" width="1" height="1" fill="#C4C4C4" opacity="0.792157"></rect><rect x="29" y="14" width="1" height="1" fill="#A5A5A5" opacity="0.792157"></rect><rect x="30" y="14" width="1" height="1" fill="#C4C4C4" opacity="0.792157"></rect><rect x="31" y="14" width="1" height="2" fill="#000000"></rect><rect x="1" y="15" width="1" height="1" fill="#A5A5A5" opacity="0.792157"></rect><rect x="2" y="15" width="1" height="2" fill="#000000"></rect><rect x="3" y="15" width="1" height="1" fill="#A5A5A5" opacity="0.792157"></rect><rect x="4" y="15" width="1" height="1" fill="#6D6565"></rect><rect x="5" y="15" width="1" height="2" fill="#000000"></rect><rect x="6" y="15" width="3" height="2" fill="#A5A5A5" opacity="0.792157"></rect><rect x="10" y="15" width="1" height="3" fill="#C4C4C4" opacity="0.792157"></rect><rect x="12" y="15" width="1" height="1" fill="#5A5A5A"></rect><rect x="14" y="15" width="1" height="9" fill="#C4C4C4" opacity="0.792157"></rect><rect x="17" y="15" width="1" height="9" fill="#C4C4C4" opacity="0.792157"></rect><rect x="19" y="15" width="1" height="1" fill="#5A5A5A"></rect><rect x="21" y="15" width="1" height="3" fill="#C4C4C4" opacity="0.792157"></rect><rect x="23" y="15" width="3" height="2" fill="#A5A5A5" opacity="0.792157"></rect><rect x="26" y="15" width="1" height="2" fill="#000000"></rect><rect x="27" y="15" width="1" height="1" fill="#6D6565"></rect><rect x="28" y="15" width="1" height="1" fill="#A5A5A5" opacity="0.792157"></rect><rect x="29" y="15" width="1" height="2" fill="#000000"></rect><rect x="30" y="15" width="1" height="1" fill="#A5A5A5" opacity="0.792157"></rect><rect x="1" y="16" width="1" height="4" fill="#000000"></rect><rect x="3" y="16" width="2" height="1" fill="#000000"></rect><rect x="12" y="16" width="1" height="7" fill="#C4C4C4" opacity="0.792157"></rect><rect x="13" y="16" width="1" height="1" fill="#5A5A5A"></rect><rect x="15" y="16" width="2" height="8" fill="#C4C4C4" opacity="0.792157"></rect><rect x="18" y="16" width="1" height="1" fill="#5A5A5A"></rect><rect x="19" y="16" width="1" height="7" fill="#C4C4C4" opacity="0.792157"></rect><rect x="27" y="16" width="2" height="1" fill="#000000"></rect><rect x="30" y="16" width="1" height="4" fill="#000000"></rect><rect x="2" y="17" width="1" height="2" fill="#7E7676"></rect><rect x="3" y="17" width="2" height="1" fill="#C1A081"></rect><rect x="5" y="17" width="1" height="2" fill="#7E7676"></rect><rect x="6" y="17" width="4" height="1" fill="#000000"></rect><rect x="13" y="17" width="1" height="7" fill="#C4C4C4" opacity="0.792157"></rect><rect x="18" y="17" width="1" height="7" fill="#C4C4C4" opacity="0.792157"></rect><rect x="22" y="17" width="4" height="1" fill="#000000"></rect><rect x="26" y="17" width="1" height="2" fill="#7E7676"></rect><rect x="27" y="17" width="2" height="1" fill="#C1A081"></rect><rect x="29" y="17" width="1" height="2" fill="#7E7676"></rect><rect x="3" y="18" width="2" height="1" fill="#7E7676"></rect><rect x="6" y="18" width="1" height="1" fill="#A5A5A5" opacity="0.792157"></rect><rect x="7" y="18" width="2" height="2" fill="#C4C4C4" opacity="0.792157"></rect><rect x="9" y="18" width="2" height="1" fill="#5A5A5A"></rect><rect x="21" y="18" width="2" height="1" fill="#5A5A5A"></rect><rect x="23" y="18" width="2" height="2" fill="#C4C4C4" opacity="0.792157"></rect><rect x="25" y="18" width="1" height="1" fill="#A5A5A5" opacity="0.792157"></rect><rect x="27" y="18" width="2" height="1" fill="#7E7676"></rect><rect x="2" y="19" width="1" height="1" fill="#A5A5A5" opacity="0.792157"></rect><rect x="3" y="19" width="1" height="1" fill="#7E7676"></rect><rect x="4" y="19" width="2" height="1" fill="#C1A081"></rect><rect x="6" y="19" width="1" height="1" fill="#6D6565"></rect><rect x="9" y="19" width="1" height="2" fill="#A5A5A5" opacity="0.792157"></rect><rect x="10" y="19" width="1" height="2" fill="#5A5A5A"></rect><rect x="21" y="19" width="1" height="2" fill="#5A5A5A"></rect><rect x="22" y="19" width="1" height="2" fill="#A5A5A5" opacity="0.792157"></rect><rect x="25" y="19" width="1" height="1" fill="#6D6565"></rect><rect x="26" y="19" width="2" height="1" fill="#C1A081"></rect><rect x="28" y="19" width="1" height="1" fill="#7E7676"></rect><rect x="29" y="19" width="1" height="1" fill="#A5A5A5" opacity="0.792157"></rect><rect x="2" y="20" width="2" height="2" fill="#000000"></rect><rect x="4" y="20" width="1" height="1" fill="#B18F70"></rect><rect x="5" y="20" width="1" height="1" fill="#C1A081"></rect><rect x="6" y="20" width="1" height="1" fill="#5A5A5A"></rect><rect x="7" y="20" width="1" height="1" fill="#6D6565"></rect><rect x="8" y="20" width="1" height="1" fill="#A5A5A5" opacity="0.792157"></rect><rect x="23" y="20" width="1" height="1" fill="#A5A5A5" opacity="0.792157"></rect><rect x="24" y="20" width="1" height="1" fill="#6D6565"></rect><rect x="25" y="20" width="1" height="1" fill="#000000"></rect><rect x="26" y="20" width="1" height="1" fill="#C1A081"></rect><rect x="27" y="20" width="1" height="1" fill="#B18F70"></rect><rect x="28" y="20" width="2" height="2" fill="#000000"></rect><rect x="4" y="21" width="2" height="2" fill="#000000"></rect><rect x="6" y="21" width="1" height="1" fill="#7E7676"></rect><rect x="7" y="21" width="3" height="1" fill="#5A5A5A"></rect><rect x="10" y="21" width="1" height="1" fill="#C4C4C4" opacity="0.792157"></rect><rect x="21" y="21" width="1" height="1" fill="#C4C4C4" opacity="0.792157"></rect><rect x="22" y="21" width="3" height="1" fill="#5A5A5A"></rect><rect x="25" y="21" width="1" height="1" fill="#7E7676"></rect><rect x="26" y="21" width="2" height="2" fill="#000000"></rect><rect x="3" y="22" width="1" height="1" fill="#000000"></rect><rect x="8" y="22" width="1" height="2" fill="#000000"></rect><rect x="9" y="22" width="2" height="1" fill="#2B1A1A"></rect><rect x="21" y="22" width="3" height="1" fill="#2B1A1A"></rect><rect x="28" y="22" width="1" height="1" fill="#000000"></rect><rect x="9" y="23" width="2" height="2" fill="#BF7632"></rect><rect x="11" y="23" width="1" height="2" fill="#000000"></rect><rect x="12" y="23" width="1" height="1" fill="#2B1A1A"></rect><rect x="19" y="23" width="2" height="1" fill="#000000"></rect><rect x="21" y="23" width="2" height="2" fill="#BF7632"></rect><rect x="23" y="23" width="1" height="1" fill="#000000"></rect><rect x="7" y="24" width="1" height="3" fill="#000000"></rect><rect x="8" y="24" width="1" height="3" fill="#BF7632"></rect><rect x="13" y="24" width="6" height="1" fill="#000000"></rect><rect x="20" y="24" width="1" height="1" fill="#000000"></rect><rect x="23" y="24" width="1" height="3" fill="#BF7632"></rect><rect x="24" y="24" width="1" height="3" fill="#000000"></rect><rect x="9" y="25" width="1" height="2" fill="#BF7632"></rect><rect x="10" y="25" width="1" height="2" fill="#000000"></rect><rect x="13" y="25" width="1" height="2" fill="#000000"></rect><rect x="14" y="25" width="4" height="2" fill="#BF7632"></rect><rect x="18" y="25" width="1" height="2" fill="#000000"></rect><rect x="21" y="25" width="1" height="2" fill="#000000"></rect><rect x="22" y="25" width="1" height="2" fill="#BF7632"></rect><rect x="8" y="27" width="2" height="1" fill="#000000"></rect><rect x="14" y="27" width="1" height="1" fill="#000000"></rect><rect x="15" y="27" width="2" height="1" fill="#BF7632"></rect><rect x="17" y="27" width="1" height="1" fill="#000000"></rect><rect x="22" y="27" width="2" height="1" fill="#000000"></rect><rect x="15" y="28" width="2" height="1" fill="#000000"></rect></svg>
