<svg width="32" height="32" viewBox="0 0 32 32" fill="none" xmlns="http://www.w3.org/2000/svg" shape-rendering="crispEdges"><rect x="21" y="2" width="2" height="1" fill="#000000"></rect><rect x="21" y="3" width="1" height="1" fill="#000000"></rect><rect x="22" y="3" width="1" height="1" fill="#929819"></rect><rect x="23" y="3" width="1" height="1" fill="#000000"></rect><rect x="17" y="4" width="3" height="1" fill="#000000"></rect><rect x="22" y="4" width="1" height="3" fill="#000000"></rect><rect x="23" y="4" width="1" height="2" fill="#929819"></rect><rect x="24" y="4" width="1" height="3" fill="#000000"></rect><rect x="10" y="5" width="7" height="1" fill="#000000"></rect><rect x="17" y="5" width="1" height="1" fill="#FDBB64"></rect><rect x="18" y="5" width="1" height="3" fill="#000000"></rect><rect x="19" y="5" width="1" height="1" fill="#929819"></rect><rect x="20" y="5" width="1" height="1" fill="#000000"></rect><rect x="7" y="6" width="2" height="1" fill="#996A3A"></rect><rect x="10" y="6" width="5" height="1" fill="#996A3A"></rect><rect x="15" y="6" width="1" height="1" fill="#000000"></rect><rect x="16" y="6" width="1" height="1" fill="#FDBB64"></rect><rect x="17" y="6" width="1" height="2" fill="#000000"></rect><rect x="19" y="6" width="1" height="2" fill="#000000"></rect><rect x="20" y="6" width="1" height="1" fill="#929819"></rect><rect x="21" y="6" width="1" height="3" fill="#000000"></rect><rect x="23" y="6" width="1" height="1" fill="#000000"></rect><rect x="27" y="6" width="2" height="1" fill="#000000"></rect><rect x="2" y="7" width="1" height="1" fill="#000000"></rect><rect x="5" y="7" width="9" height="1" fill="#000000"></rect><rect x="14" y="7" width="1" height="2" fill="#996A3A"></rect><rect x="15" y="7" width="1" height="1" fill="#FDBB64"></rect><rect x="16" y="7" width="1" height="1" fill="#000000"></rect><rect x="20" y="7" width="1" height="1" fill="#000000"></rect><rect x="22" y="7" width="3" height="9" fill="#FFB017"></rect><rect x="25" y="7" width="1" height="2" fill="#000000"></rect><rect x="27" y="7" width="1" height="3" fill="#000000"></rect><rect x="28" y="7" width="1" height="1" fill="#929819"></rect><rect x="29" y="7" width="1" height="1" fill="#000000"></rect><rect x="7" y="8" width="1" height="1" fill="#000000"></rect><rect x="8" y="8" width="5" height="1" fill="#F99400"></rect><rect x="13" y="8" width="1" height="2" fill="#996A3A"></rect><rect x="15" y="8" width="3" height="2" fill="#996A3A"></rect><rect x="18" y="8" width="1" height="1" fill="#A56011"></rect><rect x="19" y="8" width="2" height="1" fill="#F99400"></rect><rect x="28" y="8" width="1" height="1" fill="#000000"></rect><rect x="29" y="8" width="1" height="3" fill="#929819"></rect><rect x="30" y="8" width="1" height="3" fill="#000000"></rect><rect x="8" y="9" width="3" height="1" fill="#000000"></rect><rect x="11" y="9" width="1" height="1" fill="#F99400"></rect><rect x="12" y="9" width="1" height="3" fill="#FDBB64"></rect><rect x="14" y="9" width="1" height="1" fill="#FDBB64"></rect><rect x="18" y="9" width="2" height="1" fill="#F99400"></rect><rect x="20" y="9" width="1" height="1" fill="#FFB017"></rect><rect x="21" y="9" width="1" height="1" fill="#A56011"></rect><rect x="25" y="9" width="1" height="1" fill="#A56011"></rect><rect x="26" y="9" width="1" height="2" fill="#000000"></rect><rect x="28" y="9" width="1" height="3" fill="#929819"></rect><rect x="8" y="10" width="1" height="1" fill="#000000"></rect><rect x="9" y="10" width="2" height="1" fill="#996A3A"></rect><rect x="11" y="10" width="1" height="2" fill="#000000"></rect><rect x="13" y="10" width="1" height="2" fill="#FDBB64"></rect><rect x="14" y="10" width="1" height="1" fill="#000000"></rect><rect x="15" y="10" width="2" height="1" fill="#996A3A"></rect><rect x="17" y="10" width="1" height="1" fill="#A56011"></rect><rect x="18" y="10" width="1" height="1" fill="#F99400"></rect><rect x="19" y="10" width="1" height="11" fill="#FFB017"></rect><rect x="20" y="10" width="1" height="1" fill="#A56011"></rect><rect x="21" y="10" width="1" height="7" fill="#FFB017"></rect><rect x="25" y="10" width="1" height="6" fill="#FFB017"></rect><rect x="27" y="10" width="1" height="1" fill="#929819"></rect><rect x="4" y="11" width="3" height="1" fill="#000000"></rect><rect x="14" y="11" width="1" height="1" fill="#FDBB64"></rect><rect x="15" y="11" width="1" height="1" fill="#996A3A"></rect><rect x="16" y="11" width="1" height="1" fill="#A56011"></rect><rect x="17" y="11" width="1" height="4" fill="#F99400"></rect><rect x="18" y="11" width="1" height="6" fill="#FFB017"></rect><rect x="20" y="11" width="1" height="6" fill="#FFB017"></rect><rect x="26" y="11" width="1" height="6" fill="#FFB017"></rect><rect x="27" y="11" width="1" height="1" fill="#000000"></rect><rect x="29" y="11" width="1" height="2" fill="#000000"></rect><rect x="0" y="12" width="4" height="1" fill="#000000"></rect><rect x="4" y="12" width="3" height="5" fill="#F2E6DA"></rect><rect x="7" y="12" width="2" height="1" fill="#000000"></rect><rect x="10" y="12" width="1" height="3" fill="#000000"></rect><rect x="11" y="12" width="1" height="1" fill="#FDBB64"></rect><rect x="12" y="12" width="3" height="1" fill="#000000"></rect><rect x="15" y="12" width="1" height="1" fill="#A56011"></rect><rect x="16" y="12" width="1" height="3" fill="#F99400"></rect><rect x="27" y="12" width="1" height="1" fill="#A56011"></rect><rect x="28" y="12" width="1" height="2" fill="#000000"></rect><rect x="0" y="13" width="1" height="3" fill="#000000"></rect><rect x="1" y="13" width="2" height="2" fill="#EC8900"></rect><rect x="3" y="13" width="1" height="5" fill="#F2E6DA"></rect><rect x="7" y="13" width="1" height="4" fill="#F2E6DA"></rect><rect x="8" y="13" width="2" height="2" fill="#000000"></rect><rect x="11" y="13" width="1" height="1" fill="#000000"></rect><rect x="12" y="13" width="1" height="1" fill="#A56011"></rect><rect x="13" y="13" width="3" height="2" fill="#F99400"></rect><rect x="27" y="13" width="1" height="4" fill="#FFB017"></rect><rect x="11" y="14" width="2" height="5" fill="#F99400"></rect><rect x="28" y="14" width="1" height="1" fill="#A56011"></rect><rect x="29" y="14" width="1" height="2" fill="#000000"></rect><rect x="1" y="15" width="2" height="1" fill="#F2E6DA"></rect><rect x="8" y="15" width="2" height="2" fill="#996A3A"></rect><rect x="10" y="15" width="1" height="1" fill="#F99400"></rect><rect x="13" y="15" width="1" height="1" fill="#FFB017"></rect><rect x="14" y="15" width="1" height="5" fill="#F99400"></rect><rect x="15" y="15" width="3" height="1" fill="#FFB017"></rect><rect x="28" y="15" width="1" height="7" fill="#FFB017"></rect><rect x="1" y="16" width="1" height="1" fill="#000000"></rect><rect x="2" y="16" width="1" height="1" fill="#F2E6DA"></rect><rect x="10" y="16" width="1" height="1" fill="#996A3A"></rect><rect x="13" y="16" width="1" height="7" fill="#F99400"></rect><rect x="15" y="16" width="2" height="4" fill="#F99400"></rect><rect x="17" y="16" width="1" height="1" fill="#FFB017"></rect><rect x="22" y="16" width="2" height="1" fill="#FFB017"></rect><rect x="24" y="16" width="2" height="1" fill="#080029"></rect><rect x="29" y="16" width="1" height="5" fill="#FFB017"></rect><rect x="30" y="16" width="1" height="1" fill="#000000"></rect><rect x="2" y="17" width="1" height="1" fill="#000000"></rect><rect x="4" y="17" width="2" height="1" fill="#F2E6DA"></rect><rect x="6" y="17" width="4" height="1" fill="#000000"></rect><rect x="10" y="17" width="1" height="1" fill="#F99400"></rect><rect x="17" y="17" width="2" height="1" fill="#FFFFFF"></rect><rect x="20" y="17" width="5" height="1" fill="#FFFFFF"></rect><rect x="25" y="17" width="3" height="1" fill="#080029"></rect><rect x="30" y="17" width="1" height="1" fill="#996A3A"></rect><rect x="31" y="17" width="1" height="3" fill="#000000"></rect><rect x="3" y="18" width="3" height="1" fill="#000000"></rect><rect x="9" y="18" width="1" height="1" fill="#000000"></rect><rect x="10" y="18" width="1" height="1" fill="#A56011"></rect><rect x="17" y="18" width="1" height="2" fill="#F99400"></rect><rect x="18" y="18" width="1" height="1" fill="#FFB017"></rect><rect x="20" y="18" width="3" height="3" fill="#FFB017"></rect><rect x="23" y="18" width="3" height="1" fill="#FFFFFF"></rect><rect x="26" y="18" width="1" height="1" fill="#080029"></rect><rect x="27" y="18" width="1" height="5" fill="#FFB017"></rect><rect x="30" y="18" width="1" height="2" fill="#FFB017"></rect><rect x="10" y="19" width="1" height="2" fill="#000000"></rect><rect x="11" y="19" width="1" height="1" fill="#592603"></rect><rect x="12" y="19" width="1" height="1" fill="#A56011"></rect><rect x="18" y="19" width="1" height="1" fill="#F99400"></rect><rect x="23" y="19" width="1" height="4" fill="#FFB017"></rect><rect x="24" y="19" width="3" height="1" fill="#FFFFFF"></rect><rect x="9" y="20" width="1" height="1" fill="#000000"></rect><rect x="11" y="20" width="1" height="1" fill="#FFB017"></rect><rect x="12" y="20" width="1" height="3" fill="#F99400"></rect><rect x="14" y="20" width="5" height="1" fill="#FFB017"></rect><rect x="24" y="20" width="3" height="3" fill="#FFB017"></rect><rect x="30" y="20" width="1" height="1" fill="#000000"></rect><rect x="2" y="21" width="1" height="1" fill="#000000"></rect><rect x="4" y="21" width="5" height="1" fill="#000000"></rect><rect x="9" y="21" width="3" height="1" fill="#F99400"></rect><rect x="14" y="21" width="7" height="1" fill="#F99400"></rect><rect x="21" y="21" width="2" height="2" fill="#FFB017"></rect><rect x="29" y="21" width="1" height="1" fill="#000000"></rect><rect x="8" y="22" width="2" height="1" fill="#000000"></rect><rect x="10" y="22" width="2" height="1" fill="#F99400"></rect><rect x="14" y="22" width="3" height="2" fill="#F99400"></rect><rect x="17" y="22" width="1" height="1" fill="#FFB017"></rect><rect x="18" y="22" width="1" height="2" fill="#F99400"></rect><rect x="19" y="22" width="2" height="1" fill="#FFB017"></rect><rect x="28" y="22" width="1" height="1" fill="#000000"></rect><rect x="10" y="23" width="1" height="1" fill="#000000"></rect><rect x="11" y="23" width="1" height="1" fill="#F99400"></rect><rect x="12" y="23" width="1" height="1" fill="#000000"></rect><rect x="13" y="23" width="1" height="1" fill="#A56011"></rect><rect x="17" y="23" width="1" height="1" fill="#F99400"></rect><rect x="19" y="23" width="7" height="1" fill="#F99400"></rect><rect x="26" y="23" width="1" height="1" fill="#A56011"></rect><rect x="27" y="23" width="1" height="1" fill="#000000"></rect><rect x="11" y="24" width="1" height="2" fill="#000000"></rect><rect x="12" y="24" width="1" height="1" fill="#A56011"></rect><rect x="13" y="24" width="2" height="1" fill="#F99400"></rect><rect x="15" y="24" width="5" height="1" fill="#000000"></rect><rect x="20" y="24" width="1" height="1" fill="#592603"></rect><rect x="21" y="24" width="1" height="1" fill="#A56011"></rect><rect x="22" y="24" width="2" height="1" fill="#F99400"></rect><rect x="24" y="24" width="1" height="1" fill="#A56011"></rect><rect x="25" y="24" width="2" height="1" fill="#000000"></rect><rect x="12" y="25" width="3" height="1" fill="#000000"></rect><rect x="19" y="25" width="1" height="1" fill="#000000"></rect><rect x="20" y="25" width="1" height="1" fill="#A56011"></rect><rect x="21" y="25" width="2" height="1" fill="#F99400"></rect><rect x="23" y="25" width="2" height="1" fill="#000000"></rect><rect x="20" y="26" width="3" height="1" fill="#000000"></rect></svg>
