<svg width="32" height="32" viewBox="0 0 32 32" fill="none" xmlns="http://www.w3.org/2000/svg" shape-rendering="crispEdges"><rect x="17" y="4" width="1" height="1" fill="#000000"></rect><rect x="14" y="5" width="3" height="1" fill="#000000"></rect><rect x="17" y="5" width="1" height="2" fill="#78CA4D"></rect><rect x="18" y="5" width="3" height="1" fill="#000000"></rect><rect x="13" y="6" width="1" height="1" fill="#000000"></rect><rect x="14" y="6" width="1" height="1" fill="#4FA623"></rect><rect x="15" y="6" width="1" height="1" fill="#2F6911"></rect><rect x="16" y="6" width="1" height="12" fill="#4FA623"></rect><rect x="18" y="6" width="1" height="12" fill="#4FA623"></rect><rect x="19" y="6" width="1" height="1" fill="#2F6911"></rect><rect x="20" y="6" width="1" height="1" fill="#4FA623"></rect><rect x="21" y="6" width="1" height="1" fill="#000000"></rect><rect x="12" y="7" width="1" height="2" fill="#000000"></rect><rect x="13" y="7" width="1" height="2" fill="#4FA623"></rect><rect x="14" y="7" width="1" height="2" fill="#2F6911"></rect><rect x="15" y="7" width="1" height="2" fill="#4FA623"></rect><rect x="17" y="7" width="1" height="5" fill="#2F6911"></rect><rect x="19" y="7" width="1" height="9" fill="#4FA623"></rect><rect x="20" y="7" width="1" height="2" fill="#2F6911"></rect><rect x="21" y="7" width="1" height="2" fill="#4FA623"></rect><rect x="22" y="7" width="1" height="2" fill="#000000"></rect><rect x="8" y="8" width="1" height="1" fill="#000000"></rect><rect x="7" y="9" width="1" height="1" fill="#000000"></rect><rect x="8" y="9" width="1" height="2" fill="#78CA4D"></rect><rect x="9" y="9" width="3" height="1" fill="#000000"></rect><rect x="12" y="9" width="1" height="3" fill="#4FA623"></rect><rect x="13" y="9" width="1" height="3" fill="#2F6911"></rect><rect x="14" y="9" width="1" height="3" fill="#4FA623"></rect><rect x="15" y="9" width="1" height="1" fill="#78CA4D"></rect><rect x="20" y="9" width="1" height="1" fill="#4FA623"></rect><rect x="21" y="9" width="1" height="5" fill="#2F6911"></rect><rect x="22" y="9" width="1" height="1" fill="#4FA623"></rect><rect x="23" y="9" width="1" height="1" fill="#000000"></rect><rect x="6" y="10" width="1" height="1" fill="#000000"></rect><rect x="7" y="10" width="1" height="7" fill="#2F6911"></rect><rect x="9" y="10" width="1" height="1" fill="#2F6911"></rect><rect x="10" y="10" width="1" height="4" fill="#4FA623"></rect><rect x="11" y="10" width="1" height="2" fill="#000000"></rect><rect x="15" y="10" width="1" height="8" fill="#4FA623"></rect><rect x="20" y="10" width="1" height="1" fill="#78CA4D"></rect><rect x="22" y="10" width="2" height="1" fill="#78CA4D"></rect><rect x="24" y="10" width="1" height="1" fill="#000000"></rect><rect x="5" y="11" width="1" height="5" fill="#000000"></rect><rect x="6" y="11" width="1" height="2" fill="#4FA623"></rect><rect x="8" y="11" width="1" height="4" fill="#4FA623"></rect><rect x="9" y="11" width="1" height="1" fill="#78CA4D"></rect><rect x="20" y="11" width="1" height="3" fill="#4FA623"></rect><rect x="22" y="11" width="1" height="3" fill="#4FA623"></rect><rect x="23" y="11" width="1" height="3" fill="#000000"></rect><rect x="9" y="12" width="1" height="2" fill="#2F6911"></rect><rect x="11" y="12" width="1" height="2" fill="#4FA623"></rect><rect x="12" y="12" width="1" height="4" fill="#000000"></rect><rect x="13" y="12" width="1" height="5" fill="#4FA623"></rect><rect x="14" y="12" width="1" height="5" fill="#2F6911"></rect><rect x="17" y="12" width="1" height="3" fill="#4FA623"></rect><rect x="6" y="13" width="1" height="1" fill="#78CA4D"></rect><rect x="6" y="14" width="1" height="1" fill="#4FA623"></rect><rect x="9" y="14" width="1" height="1" fill="#4FA623"></rect><rect x="10" y="14" width="1" height="2" fill="#2F6911"></rect><rect x="11" y="14" width="1" height="1" fill="#1C4109"></rect><rect x="20" y="14" width="1" height="3" fill="#2F6911"></rect><rect x="21" y="14" width="1" height="3" fill="#4FA623"></rect><rect x="22" y="14" width="1" height="4" fill="#000000"></rect><rect x="6" y="15" width="1" height="1" fill="#2F6911"></rect><rect x="8" y="15" width="1" height="1" fill="#1C4109"></rect><rect x="9" y="15" width="1" height="1" fill="#2F6911"></rect><rect x="11" y="15" width="1" height="1" fill="#2F6911"></rect><rect x="17" y="15" width="1" height="2" fill="#2F6911"></rect><rect x="6" y="16" width="1" height="1" fill="#000000"></rect><rect x="8" y="16" width="1" height="1" fill="#2F6911"></rect><rect x="9" y="16" width="3" height="1" fill="#1C4109"></rect><rect x="12" y="16" width="1" height="2" fill="#2F6911"></rect><rect x="19" y="16" width="1" height="1" fill="#78CA4D"></rect><rect x="7" y="17" width="2" height="1" fill="#000000"></rect><rect x="9" y="17" width="3" height="1" fill="#2F6911"></rect><rect x="13" y="17" width="1" height="1" fill="#2F6911"></rect><rect x="14" y="17" width="1" height="1" fill="#1C4109"></rect><rect x="17" y="17" width="1" height="1" fill="#4FA623"></rect><rect x="19" y="17" width="1" height="1" fill="#4FA623"></rect><rect x="20" y="17" width="1" height="1" fill="#1C4109"></rect><rect x="21" y="17" width="1" height="1" fill="#2F6911"></rect><rect x="9" y="18" width="1" height="1" fill="#000000"></rect><rect x="10" y="18" width="1" height="1" fill="#2F6911"></rect><rect x="11" y="18" width="3" height="1" fill="#000000"></rect><rect x="14" y="18" width="1" height="3" fill="#2F6911"></rect><rect x="15" y="18" width="1" height="3" fill="#1C4109"></rect><rect x="16" y="18" width="3" height="3" fill="#2F6911"></rect><rect x="19" y="18" width="1" height="3" fill="#1C4109"></rect><rect x="20" y="18" width="1" height="3" fill="#2F6911"></rect><rect x="21" y="18" width="1" height="1" fill="#000000"></rect><rect x="10" y="19" width="1" height="1" fill="#000000"></rect><rect x="13" y="19" width="1" height="1" fill="#000000"></rect><rect x="21" y="19" width="1" height="1" fill="#2F6911"></rect><rect x="22" y="19" width="1" height="1" fill="#000000"></rect><rect x="12" y="20" width="1" height="1" fill="#000000"></rect><rect x="13" y="20" width="1" height="1" fill="#2F6911"></rect><rect x="21" y="20" width="1" height="1" fill="#000000"></rect><rect x="14" y="21" width="1" height="2" fill="#000000"></rect><rect x="15" y="21" width="1" height="2" fill="#2F6911"></rect><rect x="16" y="21" width="1" height="2" fill="#1C4109"></rect><rect x="17" y="21" width="1" height="2" fill="#2F6911"></rect><rect x="18" y="21" width="1" height="2" fill="#1C4109"></rect><rect x="19" y="21" width="1" height="2" fill="#2F6911"></rect><rect x="20" y="21" width="1" height="2" fill="#000000"></rect><rect x="15" y="23" width="5" height="1" fill="#000000"></rect></svg>
