<svg width="32" height="32" viewBox="0 0 32 32" fill="none" xmlns="http://www.w3.org/2000/svg" shape-rendering="crispEdges"><rect x="18" y="1" width="2" height="1" fill="#000000"></rect><rect x="17" y="2" width="2" height="1" fill="#000000"></rect><rect x="19" y="2" width="1" height="7" fill="#FFB017"></rect><rect x="20" y="2" width="2" height="1" fill="#000000"></rect><rect x="9" y="3" width="2" height="1" fill="#000000"></rect><rect x="12" y="3" width="3" height="1" fill="#000000"></rect><rect x="16" y="3" width="1" height="1" fill="#000000"></rect><rect x="17" y="3" width="1" height="1" fill="#DC7500"></rect><rect x="18" y="3" width="1" height="8" fill="#FFB017"></rect><rect x="20" y="3" width="2" height="3" fill="#FFB017"></rect><rect x="22" y="3" width="1" height="1" fill="#000000"></rect><rect x="9" y="4" width="1" height="3" fill="#000000"></rect><rect x="10" y="4" width="1" height="2" fill="#FFB017"></rect><rect x="11" y="4" width="1" height="1" fill="#000000"></rect><rect x="12" y="4" width="2" height="4" fill="#FFB017"></rect><rect x="14" y="4" width="1" height="1" fill="#DC7500"></rect><rect x="15" y="4" width="1" height="2" fill="#000000"></rect><rect x="16" y="4" width="1" height="1" fill="#DC7500"></rect><rect x="17" y="4" width="1" height="7" fill="#FFB017"></rect><rect x="22" y="4" width="1" height="4" fill="#DC7500"></rect><rect x="23" y="4" width="1" height="3" fill="#000000"></rect><rect x="11" y="5" width="1" height="4" fill="#FFB017"></rect><rect x="14" y="5" width="1" height="1" fill="#FFB017"></rect><rect x="16" y="5" width="1" height="5" fill="#FFB017"></rect><rect x="5" y="6" width="3" height="1" fill="#000000"></rect><rect x="10" y="6" width="1" height="1" fill="#DC7500"></rect><rect x="14" y="6" width="1" height="1" fill="#DC7500"></rect><rect x="15" y="6" width="1" height="3" fill="#FFB017"></rect><rect x="20" y="6" width="1" height="1" fill="#FFB017"></rect><rect x="21" y="6" width="1" height="3" fill="#DC7500"></rect><rect x="24" y="6" width="4" height="1" fill="#000000"></rect><rect x="4" y="7" width="1" height="1" fill="#000000"></rect><rect x="5" y="7" width="3" height="2" fill="#FFB017"></rect><rect x="8" y="7" width="1" height="1" fill="#000000"></rect><rect x="9" y="7" width="1" height="1" fill="#DC7500"></rect><rect x="10" y="7" width="1" height="3" fill="#FFB017"></rect><rect x="14" y="7" width="1" height="1" fill="#FFB017"></rect><rect x="20" y="7" width="1" height="2" fill="#DC7500"></rect><rect x="23" y="7" width="4" height="2" fill="#FFB017"></rect><rect x="27" y="7" width="1" height="1" fill="#DC7500"></rect><rect x="28" y="7" width="1" height="1" fill="#000000"></rect><rect x="3" y="8" width="1" height="2" fill="#000000"></rect><rect x="4" y="8" width="1" height="1" fill="#FFB017"></rect><rect x="8" y="8" width="1" height="1" fill="#DC7500"></rect><rect x="9" y="8" width="1" height="6" fill="#FFB017"></rect><rect x="12" y="8" width="3" height="1" fill="#592603"></rect><rect x="22" y="8" width="1" height="18" fill="#FFB017"></rect><rect x="27" y="8" width="1" height="3" fill="#FFB017"></rect><rect x="28" y="8" width="1" height="1" fill="#DC7500"></rect><rect x="29" y="8" width="1" height="1" fill="#000000"></rect><rect x="2" y="9" width="1" height="2" fill="#000000"></rect><rect x="4" y="9" width="1" height="1" fill="#592603"></rect><rect x="5" y="9" width="1" height="1" fill="#DC7500"></rect><rect x="6" y="9" width="3" height="1" fill="#FFB017"></rect><rect x="11" y="9" width="1" height="1" fill="#DC7500"></rect><rect x="12" y="9" width="3" height="4" fill="#FFB017"></rect><rect x="15" y="9" width="1" height="1" fill="#DC7500"></rect><rect x="19" y="9" width="1" height="1" fill="#DC7500"></rect><rect x="20" y="9" width="2" height="4" fill="#FFB017"></rect><rect x="23" y="9" width="2" height="1" fill="#DC7500"></rect><rect x="25" y="9" width="2" height="1" fill="#FFB017"></rect><rect x="28" y="9" width="1" height="1" fill="#FFB017"></rect><rect x="29" y="9" width="1" height="1" fill="#DC7500"></rect><rect x="30" y="9" width="1" height="2" fill="#000000"></rect><rect x="3" y="10" width="3" height="1" fill="#FFB017"></rect><rect x="6" y="10" width="1" height="1" fill="#DC7500"></rect><rect x="7" y="10" width="2" height="2" fill="#FFB017"></rect><rect x="10" y="10" width="1" height="1" fill="#DC7500"></rect><rect x="11" y="10" width="1" height="6" fill="#FFB017"></rect><rect x="15" y="10" width="1" height="2" fill="#FFB017"></rect><rect x="16" y="10" width="1" height="1" fill="#DC7500"></rect><rect x="19" y="10" width="1" height="2" fill="#FFB017"></rect><rect x="23" y="10" width="1" height="6" fill="#FFB017"></rect><rect x="24" y="10" width="2" height="1" fill="#DC7500"></rect><rect x="26" y="10" width="1" height="4" fill="#FFB017"></rect><rect x="28" y="10" width="1" height="1" fill="#DC7500"></rect><rect x="29" y="10" width="1" height="1" fill="#592603"></rect><rect x="31" y="10" width="1" height="2" fill="#000000"></rect><rect x="3" y="11" width="1" height="2" fill="#000000"></rect><rect x="4" y="11" width="1" height="1" fill="#592603"></rect><rect x="5" y="11" width="2" height="1" fill="#FFB017"></rect><rect x="10" y="11" width="1" height="5" fill="#FFB017"></rect><rect x="16" y="11" width="3" height="1" fill="#592603"></rect><rect x="24" y="11" width="1" height="5" fill="#FFB017"></rect><rect x="25" y="11" width="1" height="1" fill="#DC7500"></rect><rect x="27" y="11" width="1" height="1" fill="#DC7500"></rect><rect x="28" y="11" width="3" height="1" fill="#FFB017"></rect><rect x="4" y="12" width="2" height="1" fill="#FFB017"></rect><rect x="6" y="12" width="2" height="1" fill="#592603"></rect><rect x="8" y="12" width="1" height="1" fill="#FFB017"></rect><rect x="15" y="12" width="1" height="1" fill="#592603"></rect><rect x="16" y="12" width="3" height="4" fill="#FFB017"></rect><rect x="19" y="12" width="1" height="1" fill="#592603"></rect><rect x="25" y="12" width="1" height="3" fill="#FFB017"></rect><rect x="27" y="12" width="3" height="1" fill="#FFB017"></rect><rect x="30" y="12" width="1" height="1" fill="#000000"></rect><rect x="2" y="13" width="1" height="1" fill="#000000"></rect><rect x="3" y="13" width="2" height="8" fill="#FFB017"></rect><rect x="5" y="13" width="1" height="1" fill="#DC7500"></rect><rect x="6" y="13" width="2" height="10" fill="#FFB017"></rect><rect x="8" y="13" width="1" height="1" fill="#592603"></rect><rect x="12" y="13" width="2" height="1" fill="#FFB017"></rect><rect x="14" y="13" width="1" height="1" fill="#592603"></rect><rect x="15" y="13" width="1" height="16" fill="#FFB017"></rect><rect x="19" y="13" width="1" height="1" fill="#FFB017"></rect><rect x="20" y="13" width="1" height="4" fill="#592603"></rect><rect x="21" y="13" width="1" height="9" fill="#FFB017"></rect><rect x="27" y="13" width="1" height="1" fill="#FFB017"></rect><rect x="28" y="13" width="1" height="1" fill="#592603"></rect><rect x="29" y="13" width="1" height="2" fill="#000000"></rect><rect x="1" y="14" width="1" height="5" fill="#000000"></rect><rect x="2" y="14" width="1" height="5" fill="#FFB017"></rect><rect x="5" y="14" width="1" height="9" fill="#FFB017"></rect><rect x="8" y="14" width="1" height="4" fill="#FFB017"></rect><rect x="9" y="14" width="1" height="3" fill="#592603"></rect><rect x="12" y="14" width="2" height="1" fill="#DC7500"></rect><rect x="14" y="14" width="1" height="4" fill="#FFB017"></rect><rect x="19" y="14" width="1" height="3" fill="#DC7500"></rect><rect x="26" y="14" width="3" height="1" fill="#DC7500"></rect><rect x="12" y="15" width="2" height="1" fill="#FFB017"></rect><rect x="25" y="15" width="1" height="3" fill="#DC7500"></rect><rect x="26" y="15" width="2" height="1" fill="#FFB017"></rect><rect x="28" y="15" width="1" height="2" fill="#000000"></rect><rect x="10" y="16" width="3" height="1" fill="#592603"></rect><rect x="13" y="16" width="1" height="1" fill="#FFB017"></rect><rect x="16" y="16" width="2" height="1" fill="#FFB017"></rect><rect x="18" y="16" width="1" height="2" fill="#DC7500"></rect><rect x="23" y="16" width="2" height="1" fill="#DC7500"></rect><rect x="26" y="16" width="2" height="1" fill="#DC7500"></rect><rect x="9" y="17" width="1" height="1" fill="#DC7500"></rect><rect x="10" y="17" width="3" height="2" fill="#FFB017"></rect><rect x="13" y="17" width="1" height="1" fill="#592603"></rect><rect x="16" y="17" width="1" height="4" fill="#FFB017"></rect><rect x="17" y="17" width="1" height="1" fill="#DC7500"></rect><rect x="19" y="17" width="2" height="3" fill="#FFB017"></rect><rect x="23" y="17" width="1" height="8" fill="#FFB017"></rect><rect x="24" y="17" width="1" height="1" fill="#DC7500"></rect><rect x="26" y="17" width="1" height="1" fill="#DC7500"></rect><rect x="27" y="17" width="1" height="2" fill="#000000"></rect><rect x="8" y="18" width="1" height="1" fill="#DC7500"></rect><rect x="9" y="18" width="1" height="7" fill="#FFB017"></rect><rect x="13" y="18" width="1" height="2" fill="#DC7500"></rect><rect x="14" y="18" width="1" height="2" fill="#592603"></rect><rect x="17" y="18" width="2" height="2" fill="#FFB017"></rect><rect x="24" y="18" width="1" height="1" fill="#FFB017"></rect><rect x="25" y="18" width="2" height="1" fill="#000000"></rect><rect x="2" y="19" width="1" height="2" fill="#000000"></rect><rect x="8" y="19" width="1" height="5" fill="#FFB017"></rect><rect x="10" y="19" width="2" height="1" fill="#FFB017"></rect><rect x="12" y="19" width="1" height="1" fill="#DC7500"></rect><rect x="24" y="19" width="1" height="1" fill="#000000"></rect><rect x="25" y="19" width="2" height="4" fill="#FFB017"></rect><rect x="27" y="19" width="1" height="1" fill="#DC7500"></rect><rect x="28" y="19" width="1" height="1" fill="#000000"></rect><rect x="10" y="20" width="1" height="1" fill="#FFB017"></rect><rect x="11" y="20" width="1" height="1" fill="#DC7500"></rect><rect x="12" y="20" width="2" height="3" fill="#FFB017"></rect><rect x="14" y="20" width="1" height="3" fill="#DC7500"></rect><rect x="17" y="20" width="3" height="1" fill="#592603"></rect><rect x="20" y="20" width="1" height="1" fill="#FFB017"></rect><rect x="24" y="20" width="1" height="4" fill="#FFB017"></rect><rect x="27" y="20" width="1" height="2" fill="#FFB017"></rect><rect x="28" y="20" width="1" height="2" fill="#DC7500"></rect><rect x="29" y="20" width="1" height="2" fill="#000000"></rect><rect x="3" y="21" width="1" height="1" fill="#000000"></rect><rect x="4" y="21" width="1" height="1" fill="#FFB017"></rect><rect x="10" y="21" width="1" height="1" fill="#DC7500"></rect><rect x="11" y="21" width="1" height="4" fill="#FFB017"></rect><rect x="16" y="21" width="1" height="1" fill="#592603"></rect><rect x="17" y="21" width="3" height="3" fill="#FFB017"></rect><rect x="20" y="21" width="1" height="1" fill="#592603"></rect><rect x="4" y="22" width="1" height="1" fill="#000000"></rect><rect x="10" y="22" width="1" height="3" fill="#FFB017"></rect><rect x="16" y="22" width="1" height="7" fill="#FFB017"></rect><rect x="20" y="22" width="1" height="3" fill="#DC7500"></rect><rect x="21" y="22" width="1" height="3" fill="#592603"></rect><rect x="27" y="22" width="1" height="2" fill="#DC7500"></rect><rect x="28" y="22" width="1" height="2" fill="#000000"></rect><rect x="5" y="23" width="2" height="1" fill="#000000"></rect><rect x="7" y="23" width="1" height="1" fill="#FFB017"></rect><rect x="12" y="23" width="1" height="3" fill="#FFB017"></rect><rect x="13" y="23" width="1" height="1" fill="#DC7500"></rect><rect x="14" y="23" width="1" height="6" fill="#FFB017"></rect><rect x="25" y="23" width="1" height="1" fill="#FFB017"></rect><rect x="26" y="23" width="1" height="2" fill="#DC7500"></rect><rect x="7" y="24" width="2" height="1" fill="#000000"></rect><rect x="13" y="24" width="1" height="4" fill="#FFB017"></rect><rect x="17" y="24" width="2" height="1" fill="#FFB017"></rect><rect x="19" y="24" width="1" height="2" fill="#DC7500"></rect><rect x="24" y="24" width="2" height="1" fill="#DC7500"></rect><rect x="27" y="24" width="1" height="1" fill="#000000"></rect><rect x="9" y="25" width="3" height="1" fill="#000000"></rect><rect x="17" y="25" width="2" height="1" fill="#DC7500"></rect><rect x="20" y="25" width="1" height="1" fill="#592603"></rect><rect x="21" y="25" width="1" height="2" fill="#FFB017"></rect><rect x="23" y="25" width="1" height="1" fill="#DC7500"></rect><rect x="24" y="25" width="3" height="1" fill="#000000"></rect><rect x="12" y="26" width="1" height="2" fill="#000000"></rect><rect x="17" y="26" width="4" height="2" fill="#FFB017"></rect><rect x="22" y="26" width="1" height="1" fill="#DC7500"></rect><rect x="23" y="26" width="1" height="1" fill="#000000"></rect><rect x="21" y="27" width="1" height="1" fill="#DC7500"></rect><rect x="22" y="27" width="1" height="1" fill="#000000"></rect><rect x="13" y="28" width="1" height="1" fill="#000000"></rect><rect x="17" y="28" width="2" height="1" fill="#FFB017"></rect><rect x="19" y="28" width="1" height="1" fill="#DC7500"></rect><rect x="20" y="28" width="2" height="1" fill="#000000"></rect><rect x="14" y="29" width="6" height="1" fill="#000000"></rect></svg>
