<svg width="32" height="32" viewBox="0 0 32 32" fill="none" xmlns="http://www.w3.org/2000/svg" shape-rendering="crispEdges"><rect x="8" y="2" width="1" height="1" fill="#000000"></rect><rect x="22" y="2" width="1" height="1" fill="#000000"></rect><rect x="7" y="3" width="1" height="4" fill="#000000"></rect><rect x="8" y="3" width="1" height="1" fill="#96563B"></rect><rect x="9" y="3" width="1" height="4" fill="#000000"></rect><rect x="21" y="3" width="1" height="4" fill="#000000"></rect><rect x="22" y="3" width="1" height="1" fill="#96563B"></rect><rect x="23" y="3" width="1" height="4" fill="#000000"></rect><rect x="8" y="4" width="1" height="1" fill="#BF7632"></rect><rect x="22" y="4" width="1" height="1" fill="#BF7632"></rect><rect x="8" y="5" width="1" height="4" fill="#E69D67"></rect><rect x="13" y="5" width="5" height="1" fill="#000000"></rect><rect x="22" y="5" width="1" height="4" fill="#E69D67"></rect><rect x="11" y="6" width="2" height="1" fill="#000000"></rect><rect x="13" y="6" width="5" height="3" fill="#FFFFFF"></rect><rect x="18" y="6" width="2" height="1" fill="#000000"></rect><rect x="6" y="7" width="1" height="6" fill="#000000"></rect><rect x="7" y="7" width="1" height="1" fill="#96563B"></rect><rect x="9" y="7" width="1" height="1" fill="#96563B"></rect><rect x="10" y="7" width="1" height="1" fill="#000000"></rect><rect x="11" y="7" width="2" height="2" fill="#FFFFFF"></rect><rect x="18" y="7" width="1" height="1" fill="#FFFFFF"></rect><rect x="19" y="7" width="1" height="4" fill="#C8E9F8"></rect><rect x="20" y="7" width="1" height="1" fill="#000000"></rect><rect x="21" y="7" width="1" height="1" fill="#96563B"></rect><rect x="23" y="7" width="1" height="1" fill="#96563B"></rect><rect x="24" y="7" width="1" height="6" fill="#000000"></rect><rect x="7" y="8" width="1" height="1" fill="#BF7632"></rect><rect x="9" y="8" width="1" height="1" fill="#000000"></rect><rect x="10" y="8" width="1" height="6" fill="#C8E9F8"></rect><rect x="18" y="8" width="1" height="2" fill="#C8E9F8"></rect><rect x="20" y="8" width="1" height="6" fill="#C8E9F8"></rect><rect x="21" y="8" width="1" height="1" fill="#000000"></rect><rect x="23" y="8" width="1" height="3" fill="#BF7632"></rect><rect x="7" y="9" width="1" height="2" fill="#E69D67"></rect><rect x="8" y="9" width="1" height="2" fill="#000000"></rect><rect x="9" y="9" width="1" height="5" fill="#C8E9F8"></rect><rect x="11" y="9" width="1" height="2" fill="#C8E9F8"></rect><rect x="12" y="9" width="1" height="1" fill="#FFFFFF"></rect><rect x="13" y="9" width="5" height="1" fill="#000000"></rect><rect x="21" y="9" width="1" height="5" fill="#C8E9F8"></rect><rect x="22" y="9" width="1" height="2" fill="#000000"></rect><rect x="12" y="10" width="1" height="1" fill="#000000"></rect><rect x="14" y="10" width="1" height="2" fill="#000000"></rect><rect x="15" y="10" width="1" height="7" fill="#E69D67"></rect><rect x="16" y="10" width="1" height="2" fill="#000000"></rect><rect x="18" y="10" width="1" height="1" fill="#000000"></rect><rect x="7" y="11" width="1" height="5" fill="#000000"></rect><rect x="8" y="11" width="1" height="3" fill="#C8E9F8"></rect><rect x="11" y="11" width="1" height="5" fill="#000000"></rect><rect x="19" y="11" width="1" height="5" fill="#000000"></rect><rect x="22" y="11" width="1" height="2" fill="#C8E9F8"></rect><rect x="23" y="11" width="1" height="5" fill="#000000"></rect><rect x="13" y="12" width="1" height="6" fill="#000000"></rect><rect x="14" y="12" width="1" height="1" fill="#96563B"></rect><rect x="16" y="12" width="1" height="1" fill="#96563B"></rect><rect x="17" y="12" width="1" height="6" fill="#000000"></rect><rect x="5" y="13" width="1" height="3" fill="#000000"></rect><rect x="6" y="13" width="1" height="1" fill="#96563B"></rect><rect x="14" y="13" width="1" height="1" fill="#BF7632"></rect><rect x="16" y="13" width="1" height="4" fill="#BF7632"></rect><rect x="22" y="13" width="1" height="3" fill="#5C9EBA"></rect><rect x="24" y="13" width="1" height="1" fill="#96563B"></rect><rect x="25" y="13" width="1" height="3" fill="#000000"></rect><rect x="6" y="14" width="1" height="1" fill="#BF7632"></rect><rect x="8" y="14" width="3" height="2" fill="#5C9EBA"></rect><rect x="14" y="14" width="1" height="3" fill="#E69D67"></rect><rect x="20" y="14" width="2" height="4" fill="#5C9EBA"></rect><rect x="24" y="14" width="1" height="1" fill="#BF7632"></rect><rect x="6" y="15" width="1" height="1" fill="#96563B"></rect><rect x="12" y="15" width="1" height="2" fill="#000000"></rect><rect x="18" y="15" width="1" height="2" fill="#000000"></rect><rect x="24" y="15" width="1" height="1" fill="#96563B"></rect><rect x="6" y="16" width="1" height="1" fill="#000000"></rect><rect x="7" y="16" width="1" height="1" fill="#96563B"></rect><rect x="8" y="16" width="1" height="2" fill="#000000"></rect><rect x="9" y="16" width="3" height="2" fill="#5C9EBA"></rect><rect x="19" y="16" width="1" height="4" fill="#5C9EBA"></rect><rect x="22" y="16" width="1" height="2" fill="#000000"></rect><rect x="23" y="16" width="1" height="1" fill="#96563B"></rect><rect x="24" y="16" width="1" height="1" fill="#000000"></rect><rect x="7" y="17" width="1" height="1" fill="#000000"></rect><rect x="12" y="17" width="1" height="3" fill="#5C9EBA"></rect><rect x="14" y="17" width="3" height="1" fill="#000000"></rect><rect x="18" y="17" width="1" height="3" fill="#5C9EBA"></rect><rect x="23" y="17" width="1" height="2" fill="#000000"></rect><rect x="9" y="18" width="1" height="2" fill="#000000"></rect><rect x="10" y="18" width="2" height="1" fill="#5C9EBA"></rect><rect x="13" y="18" width="5" height="3" fill="#5C9EBA"></rect><rect x="20" y="18" width="1" height="1" fill="#5C9EBA"></rect><rect x="21" y="18" width="1" height="2" fill="#2F5B6E"></rect><rect x="22" y="18" width="1" height="2" fill="#BD6F22"></rect><rect x="10" y="19" width="1" height="1" fill="#000000"></rect><rect x="11" y="19" width="1" height="1" fill="#5C9EBA"></rect><rect x="20" y="19" width="1" height="1" fill="#2F5B6E"></rect><rect x="23" y="19" width="1" height="2" fill="#BD6F22"></rect><rect x="24" y="19" width="1" height="1" fill="#000000"></rect><rect x="11" y="20" width="2" height="1" fill="#000000"></rect><rect x="18" y="20" width="2" height="1" fill="#000000"></rect><rect x="20" y="20" width="3" height="1" fill="#693C1D"></rect><rect x="24" y="20" width="1" height="2" fill="#BD6F22"></rect><rect x="25" y="20" width="1" height="1" fill="#000000"></rect><rect x="13" y="21" width="5" height="1" fill="#000000"></rect><rect x="20" y="21" width="1" height="1" fill="#000000"></rect><rect x="21" y="21" width="3" height="1" fill="#693C1D"></rect><rect x="25" y="21" width="1" height="2" fill="#BD6F22"></rect><rect x="26" y="21" width="1" height="1" fill="#000000"></rect><rect x="21" y="22" width="1" height="1" fill="#000000"></rect><rect x="22" y="22" width="3" height="1" fill="#693C1D"></rect><rect x="26" y="22" width="1" height="2" fill="#BD6F22"></rect><rect x="27" y="22" width="1" height="1" fill="#000000"></rect><rect x="22" y="23" width="1" height="1" fill="#000000"></rect><rect x="23" y="23" width="3" height="1" fill="#693C1D"></rect><rect x="27" y="23" width="1" height="2" fill="#BD6F22"></rect><rect x="28" y="23" width="1" height="1" fill="#000000"></rect><rect x="23" y="24" width="1" height="1" fill="#000000"></rect><rect x="24" y="24" width="3" height="1" fill="#693C1D"></rect><rect x="28" y="24" width="1" height="2" fill="#BD6F22"></rect><rect x="29" y="24" width="1" height="2" fill="#000000"></rect><rect x="24" y="25" width="1" height="1" fill="#000000"></rect><rect x="25" y="25" width="3" height="1" fill="#693C1D"></rect><rect x="25" y="26" width="1" height="1" fill="#000000"></rect><rect x="26" y="26" width="2" height="1" fill="#693C1D"></rect><rect x="28" y="26" width="1" height="1" fill="#000000"></rect><rect x="26" y="27" width="2" height="1" fill="#000000"></rect></svg>
