<svg width="32" height="32" viewBox="0 0 32 32" fill="none" xmlns="http://www.w3.org/2000/svg" shape-rendering="crispEdges"><rect x="13" y="6" width="1" height="3" fill="#FFFFFF"></rect><rect x="15" y="6" width="3" height="1" fill="#000000"></rect><rect x="10" y="7" width="2" height="1" fill="#000000"></rect><rect x="12" y="7" width="1" height="1" fill="#FFFFFF"></rect><rect x="14" y="7" width="1" height="1" fill="#FFFFFF"></rect><rect x="15" y="7" width="3" height="3" fill="#FFD231"></rect><rect x="18" y="7" width="1" height="1" fill="#000000"></rect><rect x="10" y="8" width="1" height="1" fill="#000000"></rect><rect x="11" y="8" width="2" height="5" fill="#FFD231"></rect><rect x="14" y="8" width="1" height="5" fill="#FFD231"></rect><rect x="18" y="8" width="1" height="1" fill="#FFD231"></rect><rect x="19" y="8" width="1" height="2" fill="#000000"></rect><rect x="9" y="9" width="1" height="2" fill="#000000"></rect><rect x="10" y="9" width="1" height="3" fill="#FFD231"></rect><rect x="13" y="9" width="1" height="5" fill="#FFD231"></rect><rect x="18" y="9" width="1" height="4" fill="#EEA60B"></rect><rect x="15" y="10" width="2" height="1" fill="#FFD231"></rect><rect x="17" y="10" width="1" height="4" fill="#EEA60B"></rect><rect x="19" y="10" width="1" height="2" fill="#BD6F22"></rect><rect x="20" y="10" width="1" height="1" fill="#000000"></rect><rect x="22" y="10" width="1" height="1" fill="#FFFFFF"></rect><rect x="8" y="11" width="1" height="2" fill="#000000"></rect><rect x="9" y="11" width="1" height="1" fill="#FFD231"></rect><rect x="15" y="11" width="1" height="1" fill="#FFD231"></rect><rect x="16" y="11" width="1" height="4" fill="#EEA60B"></rect><rect x="20" y="11" width="1" height="1" fill="#BD6F22"></rect><rect x="21" y="11" width="1" height="1" fill="#000000"></rect><rect x="9" y="12" width="2" height="2" fill="#FFFFFF"></rect><rect x="15" y="12" width="1" height="5" fill="#EEA60B"></rect><rect x="19" y="12" width="3" height="1" fill="#EEA60B"></rect><rect x="22" y="12" width="1" height="3" fill="#FFFFFF"></rect><rect x="7" y="13" width="1" height="4" fill="#000000"></rect><rect x="8" y="13" width="1" height="1" fill="#FFD231"></rect><rect x="11" y="13" width="2" height="2" fill="#FFFFFF"></rect><rect x="14" y="13" width="1" height="3" fill="#EEA60B"></rect><rect x="18" y="13" width="1" height="1" fill="#FFFFFF"></rect><rect x="19" y="13" width="1" height="3" fill="#BD6F22"></rect><rect x="20" y="13" width="2" height="1" fill="#FFFFFF"></rect><rect x="23" y="13" width="2" height="1" fill="#FFFFFF"></rect><rect x="26" y="13" width="1" height="1" fill="#FFFFFF"></rect><rect x="8" y="14" width="3" height="3" fill="#BD6F22"></rect><rect x="13" y="14" width="1" height="1" fill="#EEA60B"></rect><rect x="17" y="14" width="2" height="5" fill="#BD6F22"></rect><rect x="20" y="14" width="2" height="1" fill="#BD6F22"></rect><rect x="23" y="14" width="1" height="1" fill="#000000"></rect><rect x="11" y="15" width="1" height="2" fill="#BD6F22"></rect><rect x="12" y="15" width="1" height="1" fill="#EEA60B"></rect><rect x="13" y="15" width="1" height="1" fill="#FFD231"></rect><rect x="16" y="15" width="1" height="7" fill="#BD6F22"></rect><rect x="20" y="15" width="4" height="1" fill="#7F4F2B"></rect><rect x="24" y="15" width="1" height="4" fill="#000000"></rect><rect x="12" y="16" width="1" height="5" fill="#7F4F2B"></rect><rect x="13" y="16" width="1" height="1" fill="#EEA60B"></rect><rect x="14" y="16" width="1" height="2" fill="#FFD231"></rect><rect x="19" y="16" width="3" height="5" fill="#7F4F2B"></rect><rect x="22" y="16" width="1" height="1" fill="#FFFFFF"></rect><rect x="23" y="16" width="1" height="3" fill="#7F4F2B"></rect><rect x="8" y="17" width="1" height="2" fill="#000000"></rect><rect x="9" y="17" width="2" height="2" fill="#BD6F22"></rect><rect x="11" y="17" width="1" height="4" fill="#7F4F2B"></rect><rect x="13" y="17" width="1" height="5" fill="#7F4F2B"></rect><rect x="15" y="17" width="1" height="5" fill="#BD6F22"></rect><rect x="22" y="17" width="1" height="4" fill="#7F4F2B"></rect><rect x="14" y="18" width="1" height="1" fill="#EEA60B"></rect><rect x="9" y="19" width="1" height="1" fill="#000000"></rect><rect x="10" y="19" width="1" height="1" fill="#7F4F2B"></rect><rect x="14" y="19" width="1" height="3" fill="#7F4F2B"></rect><rect x="17" y="19" width="1" height="2" fill="#BD6F22"></rect><rect x="18" y="19" width="1" height="2" fill="#7F4F2B"></rect><rect x="23" y="19" width="1" height="2" fill="#000000"></rect><rect x="10" y="20" width="1" height="1" fill="#000000"></rect><rect x="11" y="21" width="2" height="1" fill="#000000"></rect><rect x="17" y="21" width="1" height="1" fill="#7F4F2B"></rect><rect x="18" y="21" width="5" height="1" fill="#000000"></rect><rect x="13" y="22" width="5" height="1" fill="#000000"></rect></svg>
