<svg width="32" height="32" viewBox="0 0 32 32" fill="none" xmlns="http://www.w3.org/2000/svg" shape-rendering="crispEdges"><rect x="4" y="0" width="1" height="1" fill="#FFFFFF"></rect><rect x="4" y="1" width="1" height="1" fill="#33B1FF"></rect><rect x="4" y="2" width="4" height="1" fill="#FFFFFF"></rect><rect x="24" y="2" width="3" height="1" fill="#F5D547"></rect><rect x="3" y="3" width="1" height="1" fill="#33B1FF"></rect><rect x="4" y="3" width="1" height="6" fill="#FFFFFF"></rect><rect x="5" y="3" width="1" height="1" fill="#33B1FF"></rect><rect x="6" y="3" width="2" height="1" fill="#000000"></rect><rect x="8" y="3" width="1" height="1" fill="#F5D547"></rect><rect x="9" y="3" width="1" height="1" fill="#FFFFFF"></rect><rect x="10" y="3" width="14" height="1" fill="#F5D547"></rect><rect x="24" y="3" width="3" height="1" fill="#000000"></rect><rect x="27" y="3" width="1" height="1" fill="#F5D547"></rect><rect x="2" y="4" width="1" height="1" fill="#33B1FF"></rect><rect x="3" y="4" width="1" height="3" fill="#FFFFFF"></rect><rect x="5" y="4" width="1" height="3" fill="#FFFFFF"></rect><rect x="6" y="4" width="1" height="1" fill="#33B1FF"></rect><rect x="7" y="4" width="1" height="1" fill="#C2D1D4"></rect><rect x="8" y="4" width="16" height="1" fill="#000000"></rect><rect x="24" y="4" width="2" height="1" fill="#C2D1D4"></rect><rect x="26" y="4" width="2" height="2" fill="#000000"></rect><rect x="28" y="4" width="1" height="1" fill="#F5D547"></rect><rect x="0" y="5" width="1" height="1" fill="#33B1FF"></rect><rect x="1" y="5" width="2" height="1" fill="#FFFFFF"></rect><rect x="6" y="5" width="2" height="1" fill="#FFFFFF"></rect><rect x="8" y="5" width="1" height="1" fill="#33B1FF"></rect><rect x="9" y="5" width="14" height="1" fill="#BF7632"></rect><rect x="23" y="5" width="1" height="14" fill="#42575C"></rect><rect x="24" y="5" width="2" height="2" fill="#98ADB2"></rect><rect x="28" y="5" width="1" height="1" fill="#000000"></rect><rect x="29" y="5" width="1" height="1" fill="#F5D547"></rect><rect x="1" y="6" width="1" height="2" fill="#FFFFFF"></rect><rect x="2" y="6" width="1" height="1" fill="#33B1FF"></rect><rect x="6" y="6" width="1" height="1" fill="#33B1FF"></rect><rect x="7" y="6" width="1" height="1" fill="#98ADB2"></rect><rect x="8" y="6" width="1" height="13" fill="#42575C"></rect><rect x="9" y="6" width="14" height="1" fill="#96563B"></rect><rect x="26" y="6" width="1" height="4" fill="#42575C"></rect><rect x="27" y="6" width="2" height="1" fill="#96563B"></rect><rect x="29" y="6" width="1" height="1" fill="#000000"></rect><rect x="30" y="6" width="1" height="3" fill="#F5D547"></rect><rect x="2" y="7" width="1" height="10" fill="#000000"></rect><rect x="3" y="7" width="1" height="3" fill="#BF7632"></rect><rect x="5" y="7" width="1" height="1" fill="#33B1FF"></rect><rect x="6" y="7" width="2" height="3" fill="#FFFFFF"></rect><rect x="9" y="7" width="2" height="3" fill="#E69D67"></rect><rect x="11" y="7" width="10" height="3" fill="#FFD7B9"></rect><rect x="21" y="7" width="2" height="3" fill="#E69D67"></rect><rect x="24" y="7" width="2" height="3" fill="#FFFFFF"></rect><rect x="27" y="7" width="2" height="2" fill="#BF7632"></rect><rect x="29" y="7" width="1" height="1" fill="#33B1FF"></rect><rect x="1" y="8" width="1" height="1" fill="#F5D547"></rect><rect x="5" y="8" width="1" height="11" fill="#42575C"></rect><rect x="29" y="8" width="1" height="5" fill="#FFFFFF"></rect><rect x="1" y="9" width="1" height="1" fill="#FFFFFF"></rect><rect x="4" y="9" width="1" height="1" fill="#33B1FF"></rect><rect x="27" y="9" width="1" height="1" fill="#BF7632"></rect><rect x="28" y="9" width="1" height="1" fill="#33B1FF"></rect><rect x="30" y="9" width="1" height="1" fill="#33B1FF"></rect><rect x="1" y="10" width="1" height="7" fill="#F5D547"></rect><rect x="3" y="10" width="1" height="1" fill="#79361B"></rect><rect x="4" y="10" width="1" height="1" fill="#FFFFFF"></rect><rect x="6" y="10" width="2" height="1" fill="#C2D1D4"></rect><rect x="9" y="10" width="1" height="1" fill="#79361B"></rect><rect x="10" y="10" width="12" height="1" fill="#BF7632"></rect><rect x="22" y="10" width="1" height="1" fill="#79361B"></rect><rect x="24" y="10" width="2" height="1" fill="#C2D1D4"></rect><rect x="26" y="10" width="1" height="1" fill="#33B1FF"></rect><rect x="27" y="10" width="2" height="1" fill="#FFFFFF"></rect><rect x="30" y="10" width="2" height="1" fill="#FFFFFF"></rect><rect x="3" y="11" width="1" height="4" fill="#BF7632"></rect><rect x="4" y="11" width="1" height="1" fill="#33B1FF"></rect><rect x="6" y="11" width="2" height="1" fill="#98ADB2"></rect><rect x="9" y="11" width="2" height="4" fill="#E69D67"></rect><rect x="11" y="11" width="10" height="2" fill="#FFD7B9"></rect><rect x="21" y="11" width="2" height="4" fill="#E69D67"></rect><rect x="24" y="11" width="2" height="1" fill="#98ADB2"></rect><rect x="26" y="11" width="1" height="8" fill="#42575C"></rect><rect x="27" y="11" width="1" height="4" fill="#BF7632"></rect><rect x="28" y="11" width="1" height="1" fill="#33B1FF"></rect><rect x="30" y="11" width="1" height="1" fill="#33B1FF"></rect><rect x="4" y="12" width="1" height="3" fill="#BF7632"></rect><rect x="6" y="12" width="2" height="1" fill="#C2D1D4"></rect><rect x="24" y="12" width="2" height="1" fill="#C2D1D4"></rect><rect x="28" y="12" width="1" height="3" fill="#BF7632"></rect><rect x="30" y="12" width="1" height="5" fill="#F5D547"></rect><rect x="6" y="13" width="2" height="5" fill="#98ADB2"></rect><rect x="11" y="13" width="3" height="1" fill="#E69D67"></rect><rect x="14" y="13" width="4" height="1" fill="#98ADB2"></rect><rect x="18" y="13" width="3" height="1" fill="#E69D67"></rect><rect x="24" y="13" width="2" height="5" fill="#98ADB2"></rect><rect x="29" y="13" width="1" height="1" fill="#33B1FF"></rect><rect x="11" y="14" width="2" height="1" fill="#E69D67"></rect><rect x="13" y="14" width="1" height="1" fill="#98ADB2"></rect><rect x="14" y="14" width="4" height="2" fill="#FFFFFF"></rect><rect x="18" y="14" width="1" height="1" fill="#98ADB2"></rect><rect x="19" y="14" width="2" height="1" fill="#E69D67"></rect><rect x="29" y="14" width="1" height="3" fill="#000000"></rect><rect x="3" y="15" width="2" height="1" fill="#79361B"></rect><rect x="9" y="15" width="1" height="1" fill="#79361B"></rect><rect x="10" y="15" width="2" height="1" fill="#96563B"></rect><rect x="12" y="15" width="1" height="3" fill="#42575C"></rect><rect x="13" y="15" width="1" height="1" fill="#FFFFFF"></rect><rect x="18" y="15" width="1" height="1" fill="#FFFFFF"></rect><rect x="19" y="15" width="1" height="3" fill="#42575C"></rect><rect x="20" y="15" width="2" height="1" fill="#96563B"></rect><rect x="22" y="15" width="1" height="1" fill="#79361B"></rect><rect x="27" y="15" width="2" height="1" fill="#79361B"></rect><rect x="3" y="16" width="2" height="1" fill="#BF7632"></rect><rect x="9" y="16" width="3" height="1" fill="#BF7632"></rect><rect x="13" y="16" width="2" height="1" fill="#C2D1D4"></rect><rect x="15" y="16" width="2" height="1" fill="#000000"></rect><rect x="17" y="16" width="2" height="1" fill="#C2D1D4"></rect><rect x="20" y="16" width="3" height="1" fill="#BF7632"></rect><rect x="27" y="16" width="2" height="1" fill="#BF7632"></rect><rect x="0" y="17" width="1" height="3" fill="#F5D547"></rect><rect x="1" y="17" width="1" height="3" fill="#000000"></rect><rect x="2" y="17" width="3" height="1" fill="#79361B"></rect><rect x="9" y="17" width="2" height="2" fill="#BF7632"></rect><rect x="11" y="17" width="1" height="6" fill="#000000"></rect><rect x="13" y="17" width="2" height="1" fill="#42575C"></rect><rect x="15" y="17" width="2" height="1" fill="#98ADB2"></rect><rect x="17" y="17" width="2" height="1" fill="#42575C"></rect><rect x="20" y="17" width="1" height="6" fill="#000000"></rect><rect x="21" y="17" width="2" height="2" fill="#BF7632"></rect><rect x="27" y="17" width="3" height="1" fill="#79361B"></rect><rect x="30" y="17" width="1" height="3" fill="#000000"></rect><rect x="31" y="17" width="1" height="3" fill="#F5D547"></rect><rect x="2" y="18" width="3" height="1" fill="#BF7632"></rect><rect x="6" y="18" width="2" height="1" fill="#C2D1D4"></rect><rect x="12" y="18" width="8" height="1" fill="#FFFFFF"></rect><rect x="24" y="18" width="2" height="1" fill="#C2D1D4"></rect><rect x="27" y="18" width="3" height="1" fill="#BF7632"></rect><rect x="2" y="19" width="3" height="1" fill="#000000"></rect><rect x="5" y="19" width="1" height="2" fill="#98ADB2"></rect><rect x="6" y="19" width="2" height="1" fill="#FFFFFF"></rect><rect x="8" y="19" width="1" height="2" fill="#98ADB2"></rect><rect x="9" y="19" width="2" height="1" fill="#000000"></rect><rect x="12" y="19" width="3" height="1" fill="#FFFFFF"></rect><rect x="15" y="19" width="2" height="1" fill="#98ADB2"></rect><rect x="17" y="19" width="3" height="1" fill="#FFFFFF"></rect><rect x="21" y="19" width="2" height="1" fill="#000000"></rect><rect x="23" y="19" width="1" height="2" fill="#98ADB2"></rect><rect x="24" y="19" width="2" height="1" fill="#FFFFFF"></rect><rect x="26" y="19" width="1" height="2" fill="#98ADB2"></rect><rect x="27" y="19" width="3" height="1" fill="#000000"></rect><rect x="1" y="20" width="1" height="1" fill="#F5D547"></rect><rect x="2" y="20" width="2" height="1" fill="#000000"></rect><rect x="4" y="20" width="1" height="5" fill="#96563B"></rect><rect x="6" y="20" width="2" height="1" fill="#C2D1D4"></rect><rect x="9" y="20" width="2" height="5" fill="#96563B"></rect><rect x="12" y="20" width="3" height="3" fill="#C2D1D4"></rect><rect x="15" y="20" width="2" height="2" fill="#141013"></rect><rect x="17" y="20" width="3" height="3" fill="#C2D1D4"></rect><rect x="21" y="20" width="2" height="5" fill="#96563B"></rect><rect x="24" y="20" width="2" height="1" fill="#C2D1D4"></rect><rect x="27" y="20" width="1" height="5" fill="#96563B"></rect><rect x="28" y="20" width="2" height="1" fill="#000000"></rect><rect x="30" y="20" width="1" height="1" fill="#F5D547"></rect><rect x="2" y="21" width="1" height="5" fill="#F5D547"></rect><rect x="3" y="21" width="1" height="5" fill="#000000"></rect><rect x="5" y="21" width="1" height="1" fill="#42575C"></rect><rect x="6" y="21" width="2" height="1" fill="#98ADB2"></rect><rect x="8" y="21" width="1" height="1" fill="#42575C"></rect><rect x="23" y="21" width="1" height="1" fill="#42575C"></rect><rect x="24" y="21" width="2" height="1" fill="#98ADB2"></rect><rect x="26" y="21" width="1" height="1" fill="#42575C"></rect><rect x="28" y="21" width="1" height="5" fill="#000000"></rect><rect x="29" y="21" width="1" height="5" fill="#F5D547"></rect><rect x="5" y="22" width="4" height="1" fill="#000000"></rect><rect x="15" y="22" width="2" height="1" fill="#C2D1D4"></rect><rect x="23" y="22" width="4" height="1" fill="#000000"></rect><rect x="5" y="23" width="2" height="2" fill="#96563B"></rect><rect x="7" y="23" width="1" height="2" fill="#79361B"></rect><rect x="8" y="23" width="1" height="2" fill="#96563B"></rect><rect x="11" y="23" width="1" height="1" fill="#33B1FF"></rect><rect x="12" y="23" width="8" height="1" fill="#000000"></rect><rect x="20" y="23" width="1" height="2" fill="#79361B"></rect><rect x="23" y="23" width="4" height="2" fill="#96563B"></rect><rect x="11" y="24" width="1" height="3" fill="#FFFFFF"></rect><rect x="12" y="24" width="8" height="1" fill="#96563B"></rect><rect x="4" y="25" width="3" height="1" fill="#000000"></rect><rect x="7" y="25" width="1" height="1" fill="#FFFFFF"></rect><rect x="8" y="25" width="1" height="1" fill="#000000"></rect><rect x="9" y="25" width="2" height="1" fill="#FFFFFF"></rect><rect x="12" y="25" width="2" height="1" fill="#FFFFFF"></rect><rect x="14" y="25" width="1" height="1" fill="#33B1FF"></rect><rect x="15" y="25" width="1" height="1" fill="#FFFFFF"></rect><rect x="16" y="25" width="12" height="1" fill="#000000"></rect><rect x="3" y="26" width="8" height="1" fill="#F5D547"></rect><rect x="12" y="26" width="17" height="1" fill="#F5D547"></rect><rect x="11" y="27" width="1" height="1" fill="#33B1FF"></rect><rect x="15" y="31" width="2" height="1" fill="#000000"></rect></svg>
