<svg width="32" height="32" viewBox="0 0 32 32" fill="none" xmlns="http://www.w3.org/2000/svg" shape-rendering="crispEdges"><rect x="11" y="7" width="4" height="1" fill="#000000"></rect><rect x="20" y="7" width="4" height="1" fill="#000000"></rect><rect x="10" y="8" width="1" height="1" fill="#000000"></rect><rect x="11" y="8" width="4" height="1" fill="#D32A2A"></rect><rect x="15" y="8" width="1" height="1" fill="#000000"></rect><rect x="19" y="8" width="1" height="1" fill="#000000"></rect><rect x="20" y="8" width="4" height="1" fill="#D32A2A"></rect><rect x="24" y="8" width="1" height="1" fill="#000000"></rect><rect x="9" y="9" width="1" height="6" fill="#000000"></rect><rect x="10" y="9" width="1" height="1" fill="#D32A2A"></rect><rect x="11" y="9" width="2" height="2" fill="#F95252"></rect><rect x="13" y="9" width="3" height="4" fill="#D32A2A"></rect><rect x="16" y="9" width="1" height="1" fill="#000000"></rect><rect x="18" y="9" width="1" height="1" fill="#000000"></rect><rect x="19" y="9" width="1" height="1" fill="#D32A2A"></rect><rect x="20" y="9" width="2" height="2" fill="#F95252"></rect><rect x="22" y="9" width="3" height="4" fill="#D32A2A"></rect><rect x="25" y="9" width="1" height="9" fill="#000000"></rect><rect x="10" y="10" width="1" height="2" fill="#F95252"></rect><rect x="16" y="10" width="1" height="6" fill="#D32A2A"></rect><rect x="17" y="10" width="1" height="1" fill="#000000"></rect><rect x="18" y="10" width="1" height="5" fill="#D32A2A"></rect><rect x="19" y="10" width="1" height="2" fill="#F95252"></rect><rect x="11" y="11" width="1" height="1" fill="#F95252"></rect><rect x="12" y="11" width="1" height="4" fill="#D32A2A"></rect><rect x="17" y="11" width="1" height="4" fill="#D32A2A"></rect><rect x="20" y="11" width="1" height="1" fill="#F95252"></rect><rect x="21" y="11" width="1" height="7" fill="#D32A2A"></rect><rect x="10" y="12" width="2" height="3" fill="#D32A2A"></rect><rect x="19" y="12" width="2" height="4" fill="#D32A2A"></rect><rect x="13" y="13" width="1" height="1" fill="#D32A2A"></rect><rect x="14" y="13" width="1" height="2" fill="#8B182C"></rect><rect x="15" y="13" width="1" height="2" fill="#D32A2A"></rect><rect x="22" y="13" width="1" height="1" fill="#D32A2A"></rect><rect x="23" y="13" width="1" height="1" fill="#8B182C"></rect><rect x="24" y="13" width="1" height="5" fill="#D32A2A"></rect><rect x="13" y="14" width="1" height="1" fill="#325A90"></rect><rect x="22" y="14" width="1" height="3" fill="#8B182C"></rect><rect x="23" y="14" width="1" height="4" fill="#D32A2A"></rect><rect x="10" y="15" width="1" height="1" fill="#000000"></rect><rect x="11" y="15" width="1" height="1" fill="#D32A2A"></rect><rect x="12" y="15" width="1" height="1" fill="#325A90"></rect><rect x="13" y="15" width="2" height="1" fill="#FFE5EA"></rect><rect x="15" y="15" width="1" height="1" fill="#80B5D5"></rect><rect x="17" y="15" width="2" height="1" fill="#F95252"></rect><rect x="11" y="16" width="1" height="1" fill="#000000"></rect><rect x="12" y="16" width="2" height="1" fill="#FFE5EA"></rect><rect x="14" y="16" width="1" height="1" fill="#80B5D5"></rect><rect x="15" y="16" width="1" height="2" fill="#FFE5EA"></rect><rect x="16" y="16" width="2" height="1" fill="#8B182C"></rect><rect x="18" y="16" width="2" height="2" fill="#FF7D7D"></rect><rect x="20" y="16" width="1" height="3" fill="#8B182C"></rect><rect x="6" y="17" width="2" height="1" fill="#000000"></rect><rect x="10" y="17" width="1" height="1" fill="#000000"></rect><rect x="11" y="17" width="2" height="1" fill="#FFE5EA"></rect><rect x="13" y="17" width="1" height="1" fill="#80B5D5"></rect><rect x="14" y="17" width="1" height="2" fill="#FFE5EA"></rect><rect x="16" y="17" width="1" height="1" fill="#325A90"></rect><rect x="17" y="17" width="1" height="2" fill="#D32A2A"></rect><rect x="22" y="17" width="1" height="1" fill="#000000"></rect><rect x="5" y="18" width="1" height="2" fill="#000000"></rect><rect x="6" y="18" width="2" height="2" fill="#325A90"></rect><rect x="8" y="18" width="2" height="1" fill="#000000"></rect><rect x="10" y="18" width="2" height="1" fill="#FFE5EA"></rect><rect x="12" y="18" width="1" height="1" fill="#80B5D5"></rect><rect x="13" y="18" width="1" height="2" fill="#FFE5EA"></rect><rect x="15" y="18" width="1" height="1" fill="#325A90"></rect><rect x="16" y="18" width="1" height="3" fill="#D32A2A"></rect><rect x="18" y="18" width="2" height="1" fill="#F95252"></rect><rect x="21" y="18" width="1" height="1" fill="#000000"></rect><rect x="23" y="18" width="2" height="1" fill="#000000"></rect><rect x="8" y="19" width="1" height="5" fill="#325A90"></rect><rect x="9" y="19" width="1" height="1" fill="#000000"></rect><rect x="10" y="19" width="1" height="1" fill="#FFE5EA"></rect><rect x="11" y="19" width="1" height="1" fill="#80B5D5"></rect><rect x="12" y="19" width="1" height="2" fill="#FFE5EA"></rect><rect x="14" y="19" width="1" height="1" fill="#000000"></rect><rect x="15" y="19" width="1" height="1" fill="#D32A2A"></rect><rect x="17" y="19" width="1" height="2" fill="#8B182C"></rect><rect x="18" y="19" width="1" height="4" fill="#F95252"></rect><rect x="19" y="19" width="1" height="2" fill="#FF7D7D"></rect><rect x="20" y="19" width="1" height="4" fill="#000000"></rect><rect x="6" y="20" width="1" height="1" fill="#000000"></rect><rect x="7" y="20" width="1" height="1" fill="#325A90"></rect><rect x="9" y="20" width="1" height="3" fill="#325A90"></rect><rect x="10" y="20" width="1" height="1" fill="#80B5D5"></rect><rect x="11" y="20" width="1" height="1" fill="#FFE5EA"></rect><rect x="13" y="20" width="1" height="1" fill="#000000"></rect><rect x="15" y="20" width="1" height="1" fill="#000000"></rect><rect x="7" y="21" width="1" height="1" fill="#000000"></rect><rect x="10" y="21" width="1" height="3" fill="#325A90"></rect><rect x="11" y="21" width="2" height="1" fill="#000000"></rect><rect x="16" y="21" width="2" height="1" fill="#000000"></rect><rect x="19" y="21" width="1" height="1" fill="#F95252"></rect><rect x="6" y="22" width="1" height="1" fill="#000000"></rect><rect x="7" y="22" width="1" height="3" fill="#325A90"></rect><rect x="11" y="22" width="1" height="3" fill="#325A90"></rect><rect x="12" y="22" width="1" height="1" fill="#000000"></rect><rect x="17" y="22" width="1" height="1" fill="#000000"></rect><rect x="19" y="22" width="1" height="1" fill="#FF7D7D"></rect><rect x="5" y="23" width="1" height="2" fill="#000000"></rect><rect x="6" y="23" width="1" height="2" fill="#325A90"></rect><rect x="9" y="23" width="1" height="1" fill="#000000"></rect><rect x="12" y="23" width="1" height="2" fill="#325A90"></rect><rect x="13" y="23" width="1" height="2" fill="#000000"></rect><rect x="18" y="23" width="2" height="1" fill="#000000"></rect><rect x="8" y="24" width="1" height="1" fill="#000000"></rect><rect x="10" y="24" width="1" height="1" fill="#000000"></rect><rect x="6" y="25" width="2" height="1" fill="#000000"></rect><rect x="11" y="25" width="2" height="1" fill="#000000"></rect></svg>
