<svg width="32" height="32" viewBox="0 0 32 32" fill="none" xmlns="http://www.w3.org/2000/svg" shape-rendering="crispEdges"><rect x="12" y="6" width="8" height="1" fill="#000000"></rect><rect x="11" y="7" width="1" height="1" fill="#000000"></rect><rect x="12" y="7" width="8" height="1" fill="#BD6F22"></rect><rect x="20" y="7" width="1" height="1" fill="#000000"></rect><rect x="10" y="8" width="1" height="1" fill="#000000"></rect><rect x="11" y="8" width="1" height="1" fill="#BD6F22"></rect><rect x="12" y="8" width="5" height="2" fill="#EEA60B"></rect><rect x="17" y="8" width="1" height="2" fill="#FFD231"></rect><rect x="18" y="8" width="2" height="2" fill="#C8E9F8"></rect><rect x="20" y="8" width="1" height="1" fill="#BD6F22"></rect><rect x="21" y="8" width="1" height="1" fill="#000000"></rect><rect x="9" y="9" width="1" height="1" fill="#000000"></rect><rect x="10" y="9" width="1" height="1" fill="#BD6F22"></rect><rect x="11" y="9" width="1" height="5" fill="#EEA60B"></rect><rect x="20" y="9" width="1" height="4" fill="#FFD231"></rect><rect x="21" y="9" width="1" height="1" fill="#BD6F22"></rect><rect x="22" y="9" width="1" height="1" fill="#000000"></rect><rect x="8" y="10" width="1" height="1" fill="#000000"></rect><rect x="9" y="10" width="1" height="7" fill="#BD6F22"></rect><rect x="10" y="10" width="1" height="4" fill="#EEA60B"></rect><rect x="12" y="10" width="2" height="1" fill="#EEA60B"></rect><rect x="14" y="10" width="1" height="2" fill="#393A6F"></rect><rect x="15" y="10" width="3" height="1" fill="#7C7DB2"></rect><rect x="18" y="10" width="2" height="1" fill="#FFD231"></rect><rect x="21" y="10" width="1" height="3" fill="#FFD231"></rect><rect x="22" y="10" width="1" height="7" fill="#BD6F22"></rect><rect x="23" y="10" width="1" height="1" fill="#000000"></rect><rect x="7" y="11" width="1" height="1" fill="#000000"></rect><rect x="8" y="11" width="1" height="1" fill="#BD6F22"></rect><rect x="12" y="11" width="1" height="1" fill="#EEA60B"></rect><rect x="13" y="11" width="1" height="1" fill="#393A6F"></rect><rect x="15" y="11" width="2" height="1" fill="#393A6F"></rect><rect x="17" y="11" width="2" height="2" fill="#C8E9F8"></rect><rect x="19" y="11" width="1" height="1" fill="#FFD231"></rect><rect x="23" y="11" width="1" height="1" fill="#BD6F22"></rect><rect x="24" y="11" width="1" height="1" fill="#000000"></rect><rect x="6" y="12" width="1" height="4" fill="#000000"></rect><rect x="7" y="12" width="1" height="1" fill="#BD6F22"></rect><rect x="8" y="12" width="1" height="4" fill="#100E1F"></rect><rect x="12" y="12" width="1" height="1" fill="#393A6F"></rect><rect x="13" y="12" width="4" height="5" fill="#000000"></rect><rect x="19" y="12" width="1" height="2" fill="#7C7DB2"></rect><rect x="23" y="12" width="1" height="5" fill="#100E1F"></rect><rect x="24" y="12" width="1" height="1" fill="#BD6F22"></rect><rect x="25" y="12" width="1" height="1" fill="#000000"></rect><rect x="7" y="13" width="1" height="3" fill="#7F4F2B"></rect><rect x="12" y="13" width="1" height="3" fill="#000000"></rect><rect x="17" y="13" width="1" height="4" fill="#000000"></rect><rect x="18" y="13" width="1" height="4" fill="#393A6F"></rect><rect x="20" y="13" width="2" height="1" fill="#EEA60B"></rect><rect x="24" y="13" width="1" height="3" fill="#100E1F"></rect><rect x="25" y="13" width="1" height="3" fill="#7F4F2B"></rect><rect x="26" y="13" width="1" height="3" fill="#000000"></rect><rect x="10" y="14" width="2" height="3" fill="#CD8E25"></rect><rect x="19" y="14" width="1" height="2" fill="#393A6F"></rect><rect x="20" y="14" width="2" height="3" fill="#CD8E25"></rect><rect x="7" y="16" width="1" height="1" fill="#000000"></rect><rect x="8" y="16" width="1" height="1" fill="#7F4F2B"></rect><rect x="12" y="16" width="1" height="4" fill="#BD6F22"></rect><rect x="19" y="16" width="1" height="4" fill="#BD6F22"></rect><rect x="24" y="16" width="1" height="1" fill="#7F4F2B"></rect><rect x="25" y="16" width="1" height="1" fill="#000000"></rect><rect x="8" y="17" width="1" height="1" fill="#000000"></rect><rect x="9" y="17" width="1" height="1" fill="#522E12"></rect><rect x="10" y="17" width="2" height="1" fill="#BD6F22"></rect><rect x="13" y="17" width="1" height="3" fill="#BD6F22"></rect><rect x="14" y="17" width="3" height="1" fill="#000000"></rect><rect x="17" y="17" width="1" height="1" fill="#393A6F"></rect><rect x="18" y="17" width="1" height="3" fill="#BD6F22"></rect><rect x="20" y="17" width="2" height="1" fill="#BD6F22"></rect><rect x="22" y="17" width="2" height="1" fill="#7F4F2B"></rect><rect x="24" y="17" width="1" height="1" fill="#000000"></rect><rect x="9" y="18" width="1" height="1" fill="#000000"></rect><rect x="10" y="18" width="1" height="1" fill="#522E12"></rect><rect x="11" y="18" width="1" height="1" fill="#BD6F22"></rect><rect x="14" y="18" width="4" height="2" fill="#BD6F22"></rect><rect x="20" y="18" width="1" height="1" fill="#BD6F22"></rect><rect x="21" y="18" width="1" height="1" fill="#7F4F2B"></rect><rect x="22" y="18" width="1" height="1" fill="#522E12"></rect><rect x="23" y="18" width="1" height="1" fill="#000000"></rect><rect x="10" y="19" width="1" height="1" fill="#000000"></rect><rect x="11" y="19" width="1" height="1" fill="#522E12"></rect><rect x="20" y="19" width="1" height="1" fill="#7F4F2B"></rect><rect x="21" y="19" width="1" height="1" fill="#522E12"></rect><rect x="22" y="19" width="1" height="1" fill="#000000"></rect><rect x="11" y="20" width="1" height="1" fill="#000000"></rect><rect x="12" y="20" width="8" height="1" fill="#522E12"></rect><rect x="20" y="20" width="2" height="1" fill="#000000"></rect><rect x="12" y="21" width="8" height="1" fill="#000000"></rect></svg>
